<?xml version="1.0" encoding="utf-8"?>
<!-- Generator: Adobe Illustrator 19.0.0, SVG Export Plug-In . SVG Version: 6.00 Build 0)  -->
<svg version="1.1" id="Capa_1" xmlns="http://www.w3.org/2000/svg" xmlns:xlink="http://www.w3.org/1999/xlink" x="0px" y="0px"
	 viewBox="-102 194.3 405.7 405.7" style="enable-background:new -102 194.3 405.7 405.7;" xml:space="preserve">
<style type="text/css">
	.st0{fill:#0C3B5D;}
	.st1{fill:#FFBBD2;}
</style>
<g>
	<g id="XMLID_1_">
		<g>
			<path class="st0" d="M272.8,336c4.8,8.6,5.3,19,1.3,29.3c-1.2,3-4,4.8-7,4.8c-0.9,0-1.8-0.2-2.7-0.5c-3.9-1.5-5.8-5.9-4.3-9.7
				c2.3-6,2.2-11.9-0.4-16.5c-2-3.6-5.4-6.1-9.1-6.8c-4.1-0.7-6.8-4.6-6.1-8.7c0.7-4.1,4.6-6.8,8.7-6.1
				C261.4,323.3,268.5,328.5,272.8,336z"/>
			<path class="st1" d="M52.9,226.9c15.9,0,30.3,9.3,40.5,26.2c1.4,2.3,3.8,3.6,6.4,3.6c1.3,0,2.6-0.3,3.7-1
				c1.1-0.6,2.1-1.5,2.7-2.7c10.3-16.9,24.6-26.3,40.5-26.3c20.7,0,39.8,16.1,45.4,38.2c4,15.8,9,71.1-92.4,127.7
				C-1.5,336.2,3.5,280.9,7.5,265.1c1.2-4.8,3.1-9.4,5.5-13.6c2.1-3.6,4.5-6.8,7.2-9.8c0.5-0.5,0.9-1,1.4-1.4
				C30.1,232,41.3,226.9,52.9,226.9z M29.2,308.6c0.9,0,1.8-0.2,2.7-0.5c3.9-1.5,5.8-5.8,4.3-9.7c-3.6-9.1-4.1-18.2-1.5-26
				c0.2-0.6,0.5-1.3,0.7-1.9c0.5-1.3,1.1-2.5,1.8-3.7c0.8-1.4,1.6-2.6,2.6-3.8c1.7-2.2,3.8-4.1,6-5.6c0.4-0.3,0.8-0.5,1.2-0.8
				c1-0.6,2.1-1.2,3.2-1.7c0.2-0.1,0.4-0.2,0.7-0.3c0.9-0.4,1.8-0.7,2.7-0.9c0.7-0.2,1.4-0.3,2.1-0.5c4.1-0.7,6.8-4.6,6.1-8.7
				c-0.7-4.1-4.6-6.8-8.7-6.1c-12.1,2.1-22.7,9.8-29,21.1c-7.3,13-8,28.8-1.9,44.5C23.3,306.8,26.2,308.6,29.2,308.6z"/>
			<path class="st0" d="M7.5,265.1c-4,15.8-9,71.1,92.3,127.7c101.4-56.6,96.4-112,92.4-127.7c-5.6-22.1-24.8-38.2-45.4-38.2
				c-15.9,0-30.3,9.3-40.5,26.3c-0.7,1.1-1.6,2-2.7,2.7c-1.1,0.6-2.4,1-3.7,1c-2.6,0-5.1-1.4-6.4-3.6
				c-10.3-16.9-24.6-26.2-40.5-26.2c-11.6,0-22.8,5.1-31.3,13.5c-0.5,0.5-0.9,0.9-1.4,1.4c-2.7,2.9-5.2,6.2-7.2,9.8
				C10.6,255.7,8.7,260.3,7.5,265.1z M303.1,340.1c2.7,17.7,0.5,62.7-74.8,106.9l12.7,12.7c2.9,2.9,2.9,7.7,0,10.6
				c-1.5,1.5-3.4,2.2-5.3,2.2s-3.8-0.7-5.3-2.2l-6.6-6.6c-0.3,29.3-4.9,88.8-34.4,116.7c-1.5,1.4-3.3,2-5.2,2c-2,0-4-0.8-5.5-2.3
				c-2.8-3-2.7-7.8,0.3-10.6c25.4-23.9,29.3-79.1,29.7-106.2l-7.1,7.1c-2.9,2.9-7.7,2.9-10.6,0c-2.9-2.9-2.9-7.7,0-10.6l12.7-12.7
				c-30.9-18.2-53.3-39-65.3-60.7c-8,5.6-16.6,11.2-25.9,16.5l12.5,12.5c2.9,2.9,2.9,7.7,0,10.6c-1.5,1.5-3.4,2.2-5.3,2.2
				s-3.8-0.7-5.3-2.2l-6.8-6.8v155.8c0,4.2-3.4,7.5-7.5,7.5s-7.5-3.3-7.5-7.5V419.1l-6.8,6.8c-2.9,2.9-7.7,2.9-10.6,0
				s-2.9-7.7,0-10.6l12.3-12.3c-8.8-5.1-17.1-10.4-24.8-15.7C50.5,408.7,28.5,429-2,446.9l12.7,12.7c2.9,2.9,2.9,7.7,0,10.6
				c-2.9,2.9-7.7,2.9-10.6,0l-7.1-7.1c0.3,27.1,4.3,82.3,29.7,106.2c3,2.8,3.1,7.6,0.3,10.6c-1.5,1.6-3.5,2.3-5.5,2.3
				c-1.9,0-3.7-0.7-5.2-2C-17.1,552.5-21.7,493-22,463.7l-6.6,6.6c-1.5,1.5-3.4,2.2-5.3,2.2s-3.8-0.7-5.3-2.2
				c-2.9-2.9-2.9-7.7,0-10.6l12.7-12.7c-75.3-44.2-77.5-89.2-74.8-106.9c3.5-22.8,20-40.9,41.1-45.1c17.1-3.4,33.7,3,46,17.3
				c2.6-3.1,5.5-5.8,8.5-8.2c-5.2-17.6-4-32.3-1.3-42.7c7.4-29.2,32.1-49.5,60-49.5c18.1,0,34.4,8.5,46.9,24.2
				c12.5-15.7,28.9-24.2,46.9-24.2c27.9,0,52.6,20.4,60,49.5c2.6,10.2,3.8,24.4-0.9,41.5c3.7,2.6,7.1,5.8,10.2,9.4
				c12.2-14.3,28.8-20.8,46-17.3C283.1,299.2,299.6,317.3,303.1,340.1z M276,386.2c10.1-14.9,14.4-30.1,12.3-43.9
				c-2.5-16.5-14.3-29.7-29.2-32.6c-14.1-2.8-27.5,4.2-36.7,19.4c-1.4,2.2-3.8,3.6-6.4,3.6c-2.6,0-5.1-1.4-6.4-3.6
				c-2.7-4.5-5.8-8.3-9.3-11.3c-2.1,4.6-4.6,9.3-7.7,14.2c-9.9,15.8-24,31-42.1,45.3c10.9,21,33.4,41.5,65.4,59.5
				C243.6,421.2,263.7,404.2,276,386.2z M-14.3,436.7C17.2,419,39.4,399,50.5,378.3C31.8,363.7,17.2,348.1,7,331.9
				c-2.8-4.4-5.1-8.7-7.1-12.8c-2.8,2.8-5.5,6.1-7.8,10c-0.7,1.1-1.6,2-2.7,2.6c-1.1,0.6-2.4,1-3.7,1c-2.6,0-5.1-1.4-6.4-3.6
				c-9.2-15.1-22.5-22.2-36.7-19.4c-14.9,3-26.7,16.1-29.2,32.6c-2.1,13.8,2.1,29,12.3,43.9C-62,404.2-41.8,421.2-14.3,436.7z"/>
			<path class="st0" d="M36.2,298.4c1.5,3.9-0.4,8.2-4.3,9.7c-0.9,0.4-1.8,0.5-2.7,0.5c-3,0-5.8-1.8-7-4.8
				c-6.1-15.7-5.5-31.5,1.9-44.5c6.4-11.3,16.9-19,29-21.1c4.1-0.7,8,2,8.7,6.1c0.7,4.1-2,8-6.1,8.7c-0.7,0.1-1.4,0.3-2.1,0.5
				c-0.9,0.3-1.8,0.6-2.7,0.9c-0.2,0.1-0.5,0.2-0.7,0.3c-1.1,0.5-2.2,1-3.2,1.7c-0.4,0.3-0.8,0.5-1.2,0.8c-2.2,1.5-4.3,3.5-6,5.6
				c-1,1.2-1.8,2.5-2.6,3.8c-0.7,1.2-1.3,2.4-1.8,3.7c-0.3,0.6-0.5,1.3-0.7,1.9C32.1,280.2,32.6,289.2,36.2,298.4z"/>
			<path class="st0" d="M39.7,262.9c-1,1.2-1.8,2.5-2.6,3.8c-0.7,1.2-1.3,2.4-1.8,3.7c0.5-1.3,1.1-2.5,1.8-3.7
				C37.9,265.4,38.8,264.1,39.7,262.9z"/>
			<path class="st0" d="M35.3,270.4c-0.3,0.6-0.5,1.3-0.7,1.9C34.8,271.7,35.1,271.1,35.3,270.4z"/>
			<path class="st0" d="M21.6,240.4c-0.5,0.5-0.9,0.9-1.4,1.4C20.7,241.3,21.2,240.8,21.6,240.4z"/>
			<path class="st0" d="M20.2,241.8c-2.7,2.9-5.2,6.2-7.2,9.8C15.1,248,17.5,244.7,20.2,241.8z"/>
			<path class="st0" d="M-42.8,328c0.7,4.1-2,8-6.1,8.7c-3.7,0.6-7,3.2-9.1,6.8c-2.6,4.6-2.7,10.5-0.4,16.5c1.5,3.9-0.4,8.2-4.3,9.7
				c-0.9,0.4-1.8,0.5-2.7,0.5c-3,0-5.8-1.8-7-4.8c-4-10.3-3.6-20.7,1.3-29.3c4.3-7.6,11.4-12.7,19.5-14.2
				C-47.4,321.2-43.5,323.9-42.8,328z"/>
		</g>
		<g>
		</g>
	</g>
</g>
</svg>
