<?xml version="1.0" encoding="utf-8"?>
<!-- Generator: Adobe Illustrator 19.2.1, SVG Export Plug-In . SVG Version: 6.00 Build 0)  -->
<svg version="1.1" id="Capa_1" xmlns="http://www.w3.org/2000/svg" xmlns:xlink="http://www.w3.org/1999/xlink" x="0px" y="0px"
	 viewBox="0 0 544.5 485" style="enable-background:new 0 0 544.5 485;" xml:space="preserve">
<style type="text/css">
	.st0{fill:#0C3B5D;}
	.st1{fill:#3D2718;}
	.st2{fill:#353535;}
	.st3{fill:#CC2323;}
	.st4{fill:#FFFFFF;}
	.st5{fill:#F4D967;}
	.st6{fill:#FCD614;}
</style>
<g>
	<g>
		<g>
			<path class="st0" d="M498.6,283.8c-39.2-16.2-78.6-33.1-78.6-33.1v-18.9c0-2.5-1.3-4.9-3.4-6.3c-2.1-1.4-4.8-1.6-7.1-0.6
				l-12.2,5.4v-16.1c15.2-10.3,27.8-26.3,36.3-46.3c0.7,0.1,1.4,0.1,2.1,0.1c11.1,0,21.6-9.1,25.4-22.8c4.3-15.9-2.3-31.1-15.2-34.6
				c0,0-0.1,0-0.2,0c1.4-34.7-6-61-21.9-78.2C408.8,16.2,386.2,8,356.7,8s-52,8.2-67,24.3c-16,17.2-23.3,43.5-21.9,78.2
				c0,0-0.1,0-0.2,0c-12.9,3.5-19.6,18.7-15.2,34.6c3.8,13.7,14.3,22.8,25.4,22.8c0.7,0,1.4,0,2.2-0.1c8.5,20,21.1,36.1,36.3,46.3
				v16.1l-12.2-5.4c-2.3-1-5-0.8-7.1,0.6c-2.1,1.4-3.4,3.8-3.4,6.3v18.9c-0.2,0.1-39.4,16.9-78.7,33.1c-35,14.6-41.9,34.5-41.9,64
				V376c0,4.1,3.4,7.5,7.5,7.5h352.4c4.1,0,7.5-3.4,7.5-7.5v-28.3C540.4,318.2,533.6,298.3,498.6,283.8z M444.4,126.6
				c2.6,2.7,3.9,8.3,2.2,14.6c-1.4,5.2-4.4,8.9-7.4,10.6C441.5,143.9,443.3,135.4,444.4,126.6z M266.9,141.2
				c-1.7-6.3-0.4-11.9,2.2-14.6c1.1,8.8,2.8,17.3,5.1,25.2C271.3,150.1,268.3,146.4,266.9,141.2z M404.9,243.3v30.3l-31.1-16.7
				L404.9,243.3z M356.7,248.1l-25.5-11.2v-14.8c8,3.1,16.6,4.8,25.5,4.8c8.9,0,17.4-1.7,25.5-4.8v14.8L356.7,248.1z M356.7,23
				c25.5,0,43.8,6.4,56,19.5c7.6,8.2,12.8,19.2,15.6,33c-29.8,0.6-57.4-6.5-82.1-21.3c-16.7-10-26.7-20.5-29.3-23.5
				C327.5,25.5,340.7,23,356.7,23z M300.7,42.5c1.1-1.2,2.4-2.4,3.6-3.5c0.1,0.1,0.1,0.2,0.2,0.3c0.3,0.4,5.3,6.4,14.7,14.2
				c-11.8,22-27.9,26.8-35.3,27.9C286.5,64.8,292.1,51.8,300.7,42.5z M283.2,116.9c-0.5-7.2-0.7-14-0.5-20.3
				c8.8-0.6,32.3-5,48.8-34.1c2,1.4,4.2,2.8,6.5,4.1c18.4,11.1,48,23.9,87.1,23.9c1.8,0,3.6,0,5.4-0.1c0.6,8.1,0.6,17-0.1,26.5
				c-4,55-35,95-73.5,95C318.2,211.9,287.3,171.9,283.2,116.9z M308.5,243.3l31.1,13.6l-31.1,16.7V243.3z M270.3,358.8l5.5,9.7
				h-22.7v-13.7c0-4.1-3.4-7.5-7.5-7.5c-4.2,0-7.5,3.4-7.5,7.5v13.7H188v-20.8c0-25.3,4.7-38.5,32.6-50c23-9.5,45.8-19.1,60.9-25.5
				l-23.9,53.9c-1,2.3-0.8,5,0.6,7.1c1.4,2.1,3.8,3.4,6.3,3.4h21.3l-13.9,13C269.2,352,268.7,355.8,270.3,358.8z M293,368.4
				L293,368.4l-6.7-11.8l23.6-21.9c2.3-2.1,3-5.4,1.9-8.2c-1.1-2.9-3.9-4.8-7-4.8h-28.9l17.6-39.7v4.1c0,2.6,1.4,5.1,3.6,6.4
				c1.2,0.7,2.5,1.1,3.9,1.1c1.2,0,2.4-0.3,3.5-0.9l0.8-0.4l39.1,76.1H293z M318.6,285.2l38.2-20.5l38.2,20.5l-38.2,74.3
				L318.6,285.2z M420.4,368.5H369l39.1-76.1l0.8,0.4c1.1,0.6,2.3,0.9,3.5,0.9c1.3,0,2.7-0.4,3.9-1.1c2.3-1.4,3.6-3.8,3.6-6.4V282
				l17.6,39.7h-28.9c-3.1,0-5.8,1.9-7,4.8c-1.2,2.9-0.4,6.1,1.9,8.2l23.6,21.9L420.4,368.5z M525.5,368.5h-50.2v-13.7
				c0-4.1-3.4-7.5-7.5-7.5c-4.1,0-7.5,3.4-7.5,7.5v13.7h-22.7l5.4-9.7c0.2-0.3,0.3-0.6,0.4-0.9c0.1-0.3,0.2-0.6,0.3-0.9
				c0.1-0.3,0.1-0.6,0.2-0.9c0-0.3,0.1-0.6,0.1-0.9c0-0.5,0-1-0.2-1.5c0-0.3-0.1-0.5-0.2-0.7c-0.1-0.2-0.2-0.5-0.3-0.7
				c-0.1-0.2-0.1-0.3-0.2-0.5c0-0.1-0.1-0.1-0.1-0.2c-0.1-0.2-0.2-0.4-0.3-0.5c0-0.1-0.1-0.2-0.1-0.2c-0.1-0.1-0.2-0.3-0.3-0.4
				c-0.1-0.1-0.1-0.1-0.2-0.2c-0.1-0.2-0.3-0.3-0.5-0.5l-14-13H449c2.5,0,4.9-1.3,6.3-3.4c1.4-2.1,1.6-4.8,0.6-7.1L432,272.2
				c15,6.4,37.8,16,60.9,25.5c1.7,0.7,3.4,1.5,5,2.2c1.1,0.5,2.2,1,3.2,1.6c20.7,10.7,24.5,23.7,24.5,46.3V368.5z"/>
			<path class="st1" d="M319.2,53.5c-11.8,22-27.9,26.8-35.3,27.9c2.6-16.6,8.2-29.6,16.8-38.9c1.1-1.2,2.4-2.4,3.6-3.5
				c0.1,0.1,0.1,0.2,0.2,0.3C304.8,39.7,309.8,45.7,319.2,53.5z"/>
			<path class="st1" d="M428.3,75.5c-29.8,0.6-57.4-6.5-82.1-21.3c-16.7-10-26.7-20.5-29.3-23.5c10.6-5.2,23.8-7.7,39.8-7.7
				c25.5,0,43.8,6.4,56,19.5C420.3,50.7,425.5,61.7,428.3,75.5z"/>
			<path class="st2" d="M525.4,347.7v20.8h-50.1v-13.7c0-4.1-3.4-7.5-7.5-7.5c-4.1,0-7.5,3.4-7.5,7.5v13.7h-22.7l5.5-9.7
				c0.2-0.3,0.3-0.6,0.4-0.9c0.1-0.3,0.2-0.6,0.3-0.9c0.1-0.3,0.1-0.6,0.2-0.9c0-0.3,0.1-0.6,0.1-0.9c0-0.5,0-1-0.2-1.5
				c0-0.3-0.1-0.5-0.2-0.7c-0.1-0.2-0.2-0.5-0.3-0.7c-0.1-0.2-0.1-0.3-0.2-0.5c0-0.1-0.1-0.1-0.1-0.2c-0.1-0.2-0.2-0.4-0.3-0.5
				c0-0.1-0.1-0.2-0.1-0.2c-0.1-0.1-0.2-0.3-0.3-0.4c-0.1-0.1-0.1-0.1-0.2-0.2c-0.1-0.2-0.3-0.3-0.5-0.5l-14-13H449
				c2.5,0,4.9-1.3,6.3-3.4c1.4-2.1,1.6-4.8,0.6-7.1L432,272.2c15,6.4,37.8,16,60.9,25.5c1.7,0.7,3.4,1.5,5,2.2
				C521.3,310.9,525.4,324,525.4,347.7z"/>
			<polygon class="st3" points="404.9,243.3 404.9,273.6 373.8,256.9 			"/>
			<polygon class="st3" points="339.6,256.9 308.5,273.6 308.5,243.3 			"/>
			<path class="st2" d="M270.3,358.8l5.5,9.7h-22.7v-13.7c0-4.1-3.4-7.5-7.5-7.5c-4.2,0-7.5,3.4-7.5,7.5v13.7H188v-20.8
				c0-25.3,4.7-38.5,32.6-50c23-9.5,45.8-19.1,60.9-25.5l-23.9,53.9c-1,2.3-0.8,5,0.6,7.1c1.4,2.1,3.8,3.4,6.3,3.4h21.3l-13.9,13
				C269.2,352,268.7,355.8,270.3,358.8z"/>
		</g>
		<g>
			<g>
				<path class="st0" d="M335.9,136h-24.1c-4.1,0-7.5-3.4-7.5-7.5c0-4.1,3.4-7.5,7.5-7.5h24.1c4.1,0,7.5,3.4,7.5,7.5
					C343.4,132.6,340,136,335.9,136z"/>
			</g>
			<g>
				<path class="st0" d="M401.7,136h-24.1c-4.1,0-7.5-3.4-7.5-7.5c0-4.1,3.4-7.5,7.5-7.5h24.1c4.1,0,7.5,3.4,7.5,7.5
					C409.2,132.6,405.8,136,401.7,136z"/>
			</g>
		</g>
		<g>
			<path class="st0" d="M356.7,184.4c-12,0-21.7-8.3-21.7-18.5c0-4.1,3.4-7.5,7.5-7.5s7.5,3.4,7.5,7.5c0,1.2,2.6,3.5,6.7,3.5
				c4.1,0,6.7-2.3,6.7-3.5c0-4.1,3.4-7.5,7.5-7.5s7.5,3.4,7.5,7.5C378.5,176.1,368.7,184.4,356.7,184.4z"/>
		</g>
	</g>
</g>
<g>
	<g>
		<path class="st0" d="M139.2,259.1c0,4.1-3.3,7.5-7.5,7.5h-15.5c-4.1,0-7.5-3.4-7.5-7.5c0-4.1,3.4-7.5,7.5-7.5h15.5
			C135.8,251.6,139.2,255,139.2,259.1z"/>
		<path class="st0" d="M199.1,259.1c0,4.1-3.4,7.5-7.5,7.5h-15.5c-4.1,0-7.5-3.4-7.5-7.5c0-4.1,3.4-7.5,7.5-7.5h15.5
			C195.8,251.6,199.1,254.9,199.1,259.1z"/>
		<path class="st0" d="M282.5,409.5V285.4c0-42.5-11.3-88.1-30.3-122.1c-24-43-58-65.7-98.3-65.7s-74.3,22.7-98.3,65.7
			c-19,34-30.3,79.7-30.3,122.1v124.1c-18.5,16-18.1,33.4-17.7,37.2v25.4c0,4.1,3.3,7.5,7.5,7.5h277.6c4.1,0,7.5-3.4,7.5-7.5v-25.4
			C300.6,442.9,301,425.5,282.5,409.5z M40.3,285.4c0-40,10.6-82.9,28.4-114.8c14.8-26.5,41.5-58,85.2-58s70.4,31.5,85.2,58
			c17.8,31.9,28.4,74.8,28.4,114.8v114c-4.7-2.5-10-4.8-16.1-7c-50.6-17.8-60.7-26.5-60.3-51.4v-5c7-4.2,13.5-9.5,19.3-15.8
			c5.4-5.9,10-12.4,13.7-19.4c12-0.1,28.9-6.5,33.6-30.8c2.6-13.3-3.3-21.4-9.7-24.6c-4-2-8.5-2.4-12.8-1.3
			c-3.6-38.8-17.5-64.5-41.7-76.8v-0.1c0-21.2-17.7-38.5-39.6-38.5c-21.8,0-39.6,17.3-39.6,38.5v0.1c-24.1,12.3-38,37.9-41.7,76.6
			c-4.2-0.9-8.4-0.5-12.2,1.4c-6.4,3.2-12.3,11.4-9.7,24.6c4.6,23.9,21,30.5,33,30.8c3.7,7,8.3,13.5,13.7,19.4
			c5.8,6.3,12.3,11.6,19.3,15.8v5c0.5,24.9-9.7,33.5-60.3,51.3c-6.1,2.1-11.5,4.5-16.1,7V285.4z M153.9,331.7
			c-16.3,0-32.9-7.9-45.5-21.5c-15.3-16.7-23-39.8-21-63.3c0.2-2.4,0.5-4.6,0.7-6.9c5.5-1,19.8-4.3,34.4-12.3
			c14.3-7.9,24.8-18.2,31.3-30.5c6.5,12.3,17,22.6,31.3,30.5c14.6,8,28.9,11.3,34.4,12.3c0.3,2.2,0.5,4.5,0.7,6.9
			c2,23.6-5.6,46.6-21,63.3C186.8,323.8,170.2,331.7,153.9,331.7z M186.3,374.4c-1.2,12.5-15.2,22.4-32.4,22.4s-31.3-9.9-32.4-22.4
			c6.7-8.2,10.1-18.1,10.2-31.5c7.2,2.4,14.7,3.7,22.2,3.7s14.9-1.3,22.2-3.7C176.2,356.3,179.6,366.3,186.3,374.4z M216.6,224
			c0,0.1,0.1,0.2,0.1,0.3c-6.2-1.6-15.5-4.5-24.6-9.6c-0.6-0.3-1.2-0.7-1.8-1c-0.5-0.3-0.9-0.6-1.4-0.9s-1-0.6-1.6-1
			c-0.5-0.3-1-0.6-1.4-1c-0.8-0.6-1.7-1.1-2.4-1.8c-0.5-0.4-1.1-0.8-1.6-1.2c-0.5-0.4-1-0.8-1.5-1.2c-0.2-0.2-0.4-0.3-0.6-0.5
			c-0.5-0.4-0.9-0.8-1.4-1.2c0,0-0.1,0-0.1-0.1c-0.6-0.5-1.1-1-1.6-1.5c-0.6-0.6-1.2-1.2-1.7-1.8c-0.3-0.3-0.6-0.6-0.9-1
			c-0.1-0.1-0.2-0.2-0.3-0.3c-0.4-0.5-0.8-0.9-1.2-1.4c-0.3-0.3-0.5-0.7-0.8-1c-0.4-0.6-0.8-1.1-1.3-1.7l-0.1-0.1
			c-0.3-0.3-0.5-0.7-0.7-1c-0.1-0.1-0.2-0.2-0.2-0.3c-0.3-0.4-0.5-0.7-0.7-1.1c-0.1-0.1-0.1-0.1-0.1-0.2c-0.5-0.8-1-1.7-1.5-2.6
			c-0.5-0.9-0.9-1.8-1.4-2.8c-0.2-0.5-0.4-0.9-0.6-1.4c-0.4-1-0.8-1.9-1.1-2.9c-0.3-0.8-0.6-1.7-0.8-2.6c-0.1-0.3-0.1-0.5-0.2-0.8
			c-0.2-0.8-0.4-1.5-0.6-2.3c-0.1-0.4-0.2-0.8-0.3-1.2c-0.1-0.4-0.1-0.7-0.2-1c-0.1-0.4-0.1-0.9-0.2-1.3c0,0,0,0,0.1,0
			c0.6,0.1,1.1,0.1,1.6,0.2c1.7,0.2,3.4,0.4,5,0.6c0.8,0.1,1.6,0.3,2.4,0.4c0.6,0.1,1.2,0.2,1.8,0.4c0.3,0.1,0.6,0.1,0.9,0.2
			c0.4,0.1,0.8,0.2,1.2,0.3c0.8,0.2,1.6,0.4,2.4,0.7c0.8,0,1.6,0.3,2.3,0.5c0.4,0.1,0.8,0.3,1.1,0.4c0.4,0.1,0.8,0.3,1.1,0.4
			c0.4,0.1,0.7,0.3,1.1,0.5c0.4,0.1,0.7,0.3,1.1,0.5c0.3,0.2,0.7,0.3,1.1,0.5c0.5,0.2,1,0.5,1.5,0.7c0.6,0.3,1.1,0.6,1.6,0.9
			c0.3,0.2,0.7,0.4,1,0.6c0.3,0.2,0.7,0.4,1,0.6c0.3,0.2,0.7,0.4,1,0.6c0.3,0.2,0.6,0.4,1,0.6c0.3,0.2,0.6,0.4,0.9,0.7
			c0.6,0.4,1.2,0.9,1.8,1.4c1.5,1.2,2.9,2.4,4.3,3.8c0.4,0.3,0.7,0.7,1,1.1c0.2,0.2,0.4,0.4,0.6,0.6c0.5,0.5,0.9,1,1.4,1.6
			c0.5,0.5,0.9,1.1,1.4,1.7s0.9,1.2,1.3,1.8c0.4,0.5,0.7,1,1,1.5c0.5,0.8,1.1,1.6,1.6,2.4c0.4,0.6,0.7,1.3,1.1,1.9
			c0.4,0.7,0.8,1.4,1.1,2.1c0.3,0.7,0.7,1.4,1.1,2.2c0,0,0,0.1,0.1,0.1c0.3,0.7,0.6,1.3,0.9,2c0.1,0.1,0.1,0.3,0.2,0.4
			c0.3,0.7,0.6,1.3,0.8,2c0.2,0.6,0.5,1.2,0.7,1.8c0.1,0.2,0.2,0.4,0.2,0.7c0.3,0.8,0.6,1.6,0.8,2.5c0.3,0.8,0.5,1.7,0.8,2.6
			c0.2,0.8,0.5,1.6,0.7,2.4C216.2,222.3,216.3,223.1,216.6,224z M177.5,161.5c-0.8-0.2-1.7-0.4-2.6-0.5c-0.2,0-0.5-0.1-0.7-0.1
			c-5.8-1.1-12-1.8-18.7-1.9c-0.5,0-1.1,0-1.6,0c-8.6,0-16.5,0.9-23.8,2.7c0.1-0.3,0.1-0.5,0.2-0.8c0-0.1,0.1-0.3,0.1-0.4
			c0.1-0.4,0.3-0.8,0.4-1.2c0.1-0.3,0.2-0.6,0.4-1c0,0,0,0,0-0.1c0.1-0.2,0.2-0.3,0.2-0.5c0.1-0.2,0.2-0.4,0.3-0.6
			c0.1-0.2,0.2-0.4,0.3-0.6c0.1-0.2,0.2-0.4,0.3-0.6c0.2-0.3,0.3-0.5,0.5-0.8c0.1-0.2,0.2-0.3,0.3-0.4c0.2-0.3,0.3-0.5,0.5-0.8
			s0.5-0.6,0.7-1c0.2-0.3,0.4-0.5,0.6-0.7c0.2-0.2,0.4-0.5,0.6-0.7l1.3-1.3c0.2-0.2,0.4-0.3,0.6-0.5c0.3-0.3,0.6-0.5,0.9-0.7
			c0.2-0.2,0.4-0.3,0.6-0.4c0.3-0.2,0.7-0.5,1-0.7s0.6-0.4,0.9-0.6c0.4-0.2,0.7-0.4,1.1-0.6c0.6-0.3,1.2-0.6,1.8-0.9
			c0.3-0.1,0.6-0.3,0.9-0.4c0.6-0.2,1.3-0.5,1.9-0.7c0.3-0.1,0.7-0.2,1-0.3c0.3-0.1,0.7-0.2,1-0.2c0.3-0.1,0.7-0.1,1-0.2
			c0.1,0,0.1,0,0.2,0c0.3,0,0.5-0.1,0.8-0.1c0.1,0,0.1,0,0.2,0c0.2,0,0.5-0.1,0.7-0.1h2.3c5.4,0,10.4,1.7,14.4,4.5
			c0.3,0.2,0.5,0.4,0.8,0.6C173.1,152,176.2,156.4,177.5,161.5z M145.9,174.3c-2.7,16.9-12.8,30.4-30.1,40.1
			c-9.2,5.1-18.5,8.1-24.6,9.6C98.7,192.7,116.5,176.7,145.9,174.3z M230.9,284.7c2.5-7.8,4-16,4.5-24.3c2.3-1.9,4.5-2.2,5.8-1.6
			c1.9,0.9,2.6,4.2,1.8,8.4C240.9,278.1,235.7,282.8,230.9,284.7z M76.8,284.4c-4.6-2.1-9.4-6.8-11.4-17.1c-0.8-4.2-0.1-7.5,1.8-8.4
			c1.1-0.6,3.1-0.4,5.1,1.1C72.8,268.4,74.3,276.6,76.8,284.4z M228,464.6H78.2v-8.2c0-5.6,17.6-16,59.6-16.7
			c1,1.8,8.1,15.2,8.7,16.1c0.5,0.8,1.1,1.6,1.9,2.2c1.2,1,2.6,1.7,4.7,1.7h0.1c2,0,3.5-0.6,4.7-1.7c0.8-0.6,1.4-1.4,1.8-2.2
			c0.6-1,7.7-14.3,8.7-16.1c42.1,0.7,59.6,11,59.6,16.7V464.6z M285.2,446.3v18.3H243v-8.2c0-19.6-30.3-31.7-79-31.7
			c-4.6,0-6.3,3.1-8.4,7.1c-0.7,1.3-1.6,3-2.5,4.7c-0.9-1.7-1.8-3.4-2.5-4.7c-2.1-4-3.8-7.1-8.4-7.1c-48.7,0-79,12.2-79,31.7v8.2
			H22.6v-18.3c0-0.4-1.7-25.5,38.9-39.8c20.3-7.2,36.1-13.5,47.5-21.1c6.4,15.4,24.1,26.4,44.9,26.4s38.5-11.1,44.9-26.4
			c11.4,7.6,27.2,13.9,47.5,21.1C286.9,420.8,285.2,445.9,285.2,446.3z"/>
		<path class="st4" d="M186.3,374.4c-1.2,12.5-15.2,22.4-32.4,22.4s-31.3-9.9-32.4-22.4c6.7-8.2,10.1-18.1,10.2-31.5
			c7.2,2.4,14.7,3.7,22.2,3.7s14.9-1.3,22.2-3.7C176.2,356.3,179.6,366.3,186.3,374.4z"/>
		<path class="st4" d="M220.2,246.9c-0.2-2.4-0.4-4.7-0.7-6.9c-5.5-1-19.8-4.3-34.4-12.3c-14.3-7.9-24.8-18.2-31.3-30.5
			c-6.5,12.3-17,22.6-31.3,30.5c-14.6,8-28.9,11.3-34.4,12.3c-0.2,2.3-0.5,4.5-0.7,6.9c-2,23.5,5.7,46.6,21,63.3
			c12.6,13.6,29.2,21.5,45.5,21.5s32.9-7.9,45.3-21.5C214.6,293.5,222.2,270.5,220.2,246.9z M116.2,266.6c-4.1,0-7.5-3.4-7.5-7.5
			c0-4.1,3.4-7.5,7.5-7.5h15.5c4.1,0,7.5,3.4,7.5,7.5c0,4.1-3.3,7.5-7.5,7.5H116.2z M153.9,313.9c-11.9,0-21.7-8.3-21.7-18.5
			c0-4.1,3.4-7.5,7.5-7.5c4.1,0,7.5,3.4,7.5,7.5c0,1.2,2.5,3.5,6.7,3.5c4.1,0,6.7-2.3,6.7-3.5c0-4.1,3.4-7.5,7.5-7.5
			c4.2,0,7.5,3.3,7.5,7.5C175.6,305.6,165.8,313.9,153.9,313.9z M191.6,266.6h-15.5c-4.1,0-7.5-3.4-7.5-7.5c0-4.1,3.4-7.5,7.5-7.5
			h15.5c4.2,0,7.5,3.3,7.5,7.5C199.1,263.2,195.7,266.6,191.6,266.6z"/>
		<path class="st4" d="M243,267.2c-2.1,10.9-7.3,15.6-12.1,17.5c2.5-7.8,4-16,4.5-24.3c2.3-1.9,4.5-2.2,5.8-1.6
			C243.1,259.7,243.8,263,243,267.2z"/>
		<path class="st4" d="M267.5,285.4v114c-4.7-2.5-10-4.8-16.1-7c-50.6-17.8-60.7-26.5-60.3-51.4v-5c7-4.2,13.5-9.5,19.3-15.8
			c5.4-5.9,10-12.4,13.7-19.4c12-0.1,28.9-6.5,33.6-30.8c2.6-13.3-3.3-21.4-9.7-24.6c-4-2-8.5-2.4-12.8-1.3
			c-3.6-38.8-17.5-64.5-41.7-76.8v-0.1c0-21.2-17.7-38.5-39.6-38.5c-21.8,0-39.6,17.3-39.6,38.5v0.1c-24.1,12.3-38,37.9-41.7,76.6
			c-4.2-0.9-8.4-0.5-12.2,1.4c-6.4,3.2-12.3,11.4-9.7,24.6c4.6,23.9,21,30.5,33,30.8c3.7,7,8.3,13.5,13.7,19.4
			c5.8,6.3,12.3,11.6,19.3,15.8v5c0.5,24.9-9.7,33.5-60.3,51.3c-6.1,2.1-11.5,4.5-16.1,7V285.4c0-40,10.6-82.9,28.4-114.8
			c14.8-26.5,41.5-58,85.2-58s70.4,31.5,85.2,58C256.9,202.5,267.5,245.4,267.5,285.4z"/>
		<path class="st5" d="M177.5,161.5c-0.8-0.2-1.7-0.4-2.6-0.5c-0.2,0-0.5-0.1-0.7-0.1c-5.8-1.2-12.1-1.8-18.7-1.9
			c-0.5,0-1.1,0-1.6,0c-8.6,0-16.5,0.9-23.8,2.7c0.1-0.3,0.1-0.5,0.2-0.8c0-0.1,0.1-0.3,0.1-0.4c0.1-0.4,0.3-0.8,0.4-1.2
			c0.1-0.3,0.2-0.6,0.4-1c0,0,0,0,0-0.1c0.1-0.2,0.2-0.3,0.2-0.5c0.1-0.2,0.2-0.4,0.3-0.6c0.1-0.2,0.2-0.4,0.3-0.6
			c0.1-0.2,0.2-0.4,0.3-0.6c0.2-0.3,0.3-0.5,0.5-0.8c0.1-0.2,0.2-0.3,0.3-0.4c0.2-0.3,0.3-0.5,0.5-0.8s0.5-0.6,0.7-1
			c0.2-0.3,0.4-0.5,0.6-0.7c0.2-0.2,0.4-0.5,0.6-0.7l1.3-1.3c0.2-0.2,0.4-0.3,0.6-0.5c0.3-0.3,0.6-0.5,0.9-0.7
			c0.2-0.2,0.4-0.3,0.6-0.4c0.3-0.2,0.7-0.5,1-0.7s0.6-0.4,0.9-0.6c0.4-0.2,0.7-0.4,1.1-0.6c0.6-0.3,1.2-0.6,1.8-0.9
			c0.3-0.1,0.6-0.3,0.9-0.4c0.6-0.2,1.3-0.5,1.9-0.7c0.3-0.1,0.7-0.2,1-0.3c0.3-0.1,0.7-0.2,1-0.2c0.3-0.1,0.7-0.1,1-0.2
			c0.1,0,0.1,0,0.2,0c0.3,0,0.5-0.1,0.8-0.1c0.1,0,0.1,0,0.2,0c0.2,0,0.5-0.1,0.7-0.1h2.3c5.4,0.1,10.4,1.7,14.4,4.5
			c0.3,0.2,0.5,0.4,0.8,0.6C173.1,152,176.2,156.4,177.5,161.5z"/>
		<path class="st6" d="M174.9,161c0.9,0.2,1.7,0.3,2.6,0.5c-1.3-5.1-4.4-9.5-8.6-12.7c4.3,3.2,7.4,7.6,8.8,12.8
			C176.8,161.4,175.9,161.2,174.9,161z"/>
		<path class="st5" d="M216.6,224c-6.2-1.6-15.4-4.5-24.5-9.6c-0.6-0.3-1.2-0.7-1.8-1c-0.5-0.3-0.9-0.6-1.4-0.9s-1-0.6-1.6-1
			c-0.5-0.3-1-0.6-1.4-1c-0.8-0.6-1.7-1.1-2.4-1.8c-0.5-0.4-1.1-0.8-1.6-1.2s-1-0.8-1.5-1.2c-0.2-0.2-0.4-0.3-0.6-0.5
			c-0.5-0.4-0.9-0.8-1.4-1.2c0,0-0.1,0-0.1-0.1c-0.6-0.5-1.1-1-1.6-1.5c-0.6-0.6-1.2-1.2-1.7-1.8c-0.3-0.3-0.6-0.6-0.9-1
			c-0.1-0.1-0.2-0.2-0.3-0.3c-0.4-0.5-0.8-0.9-1.2-1.4c-0.3-0.3-0.5-0.7-0.8-1c-0.4-0.6-0.8-1.1-1.3-1.7l-0.1-0.1
			c-0.3-0.3-0.5-0.7-0.7-1c-0.1-0.1-0.2-0.2-0.2-0.3c-0.3-0.4-0.5-0.7-0.7-1.1c-0.1-0.1-0.1-0.1-0.1-0.2c-0.5-0.8-1-1.7-1.5-2.6
			s-0.9-1.8-1.4-2.8c-0.2-0.5-0.4-0.9-0.6-1.4c-0.4-1-0.8-1.9-1.1-2.9c-0.3-0.8-0.6-1.7-0.8-2.6c-0.1-0.3-0.1-0.5-0.2-0.8
			c-0.2-0.8-0.4-1.5-0.6-2.3c-0.1-0.4-0.2-0.8-0.3-1.2c-0.1-0.4-0.1-0.7-0.2-1c-0.1-0.3-0.1-0.7-0.1-1c0.6,0.1,1.1,0.1,1.6,0.2
			c1.7,0.2,3.4,0.4,5,0.6c0.8,0.1,1.6,0.3,2.4,0.4c0.6,0.1,1.2,0.2,1.8,0.4c0.3,0.1,0.6,0.1,0.9,0.2c0.4,0.1,0.8,0.2,1.2,0.3
			c0.8,0.2,1.6,0.4,2.4,0.7c0.8,0,1.6,0.3,2.3,0.5c0.4,0.1,0.8,0.3,1.1,0.4c0.4,0.1,0.8,0.3,1.1,0.4c0.4,0.1,0.7,0.3,1.1,0.5
			c0.4,0.1,0.7,0.3,1.1,0.5c0.3,0.2,0.7,0.3,1.1,0.5c0.5,0.2,1,0.5,1.5,0.7c0.6,0.3,1.1,0.6,1.6,0.9c0.3,0.2,0.7,0.4,1,0.6
			c0.3,0.2,0.7,0.4,1,0.6c0.3,0.2,0.7,0.4,1,0.6c0.3,0.2,0.6,0.4,1,0.6c0.3,0.2,0.6,0.4,0.9,0.7c0.6,0.4,1.2,0.9,1.8,1.4
			c1.5,1.2,2.9,2.4,4.3,3.8c0.4,0.3,0.7,0.7,1,1.1c0.2,0.2,0.4,0.4,0.6,0.6c0.5,0.5,0.9,1,1.4,1.6c0.5,0.5,0.9,1.1,1.4,1.7
			s0.9,1.2,1.3,1.8c0.4,0.5,0.7,1,1,1.5c0.5,0.8,1.1,1.6,1.6,2.4c0.4,0.6,0.7,1.3,1.1,1.9c0.4,0.7,0.8,1.4,1.1,2.1
			c0.3,0.7,0.7,1.4,1.1,2.2c0,0,0,0.1,0.1,0.1c0.3,0.7,0.6,1.3,0.9,2c0.1,0.1,0.1,0.3,0.2,0.4c0.3,0.7,0.6,1.3,0.8,2
			c0.2,0.6,0.5,1.2,0.7,1.8c0.1,0.2,0.2,0.4,0.2,0.7c0.3,0.8,0.6,1.6,0.8,2.5c0.3,0.8,0.5,1.7,0.8,2.6c0.2,0.8,0.5,1.6,0.7,2.4
			C216.2,222.3,216.3,223.1,216.6,224z"/>
		<path class="st6" d="M177.2,177c0.8,0.2,1.6,0.5,2.3,0.8c-0.7-0.2-1.5-0.5-2.3-0.5c-0.8-0.3-1.6-0.5-2.4-0.7
			c-0.4-0.1-0.8-0.2-1.2-0.3c-0.3-0.1-0.6-0.1-0.9-0.2c-0.6-0.2-1.2-0.3-1.8-0.4c-0.8-0.1-1.6-0.3-2.4-0.4c-1.6-0.2-3.3-0.4-5-0.6
			c-0.6-0.1-1.1-0.1-1.6-0.2c0-0.1,0-0.2-0.1-0.3c0.6,0.1,1.1,0.1,1.7,0.2c1.7,0.2,3.4,0.4,5,0.6c0.8,0.1,1.6,0.3,2.4,0.4
			c0.6,0.1,1.2,0.2,1.8,0.4c0.3,0.1,0.6,0.1,0.9,0.2c0.4,0.1,0.8,0.2,1.2,0.3C175.6,176.5,176.4,176.7,177.2,177z"/>
		<path class="st6" d="M216.7,224C216.7,224,216.6,224,216.7,224c-0.3-0.9-0.5-1.7-0.8-2.6C216.2,222,216.5,223,216.7,224z"/>
		<path class="st5" d="M145.9,174.3c-2.7,16.9-12.8,30.4-30.1,40.1c-9.2,5.1-18.5,8.1-24.6,9.6C98.7,192.7,116.5,176.7,145.9,174.3z
			"/>
		<path class="st0" d="M175.6,295.4c0,10.2-9.8,18.5-21.7,18.5s-21.7-8.3-21.7-18.5c0-4.1,3.4-7.5,7.5-7.5c4.1,0,7.5,3.4,7.5,7.5
			c0,1.2,2.5,3.5,6.7,3.5c4.1,0,6.7-2.3,6.7-3.5c0-4.1,3.4-7.5,7.5-7.5C172.3,287.9,175.6,291.2,175.6,295.4z"/>
	</g>
</g>
</svg>
