<?xml version="1.0" encoding="utf-8"?>
<!-- Generator: Adobe Illustrator 19.0.0, SVG Export Plug-In . SVG Version: 6.00 Build 0)  -->
<svg version="1.1" id="Capa_1" xmlns="http://www.w3.org/2000/svg" xmlns:xlink="http://www.w3.org/1999/xlink" x="0px" y="0px"
	 viewBox="-96 188.8 417.2 417.2" style="enable-background:new -96 188.8 417.2 417.2;" xml:space="preserve">
<style type="text/css">
	.st0{fill:#0C3B5D;}
	.st1{fill:#FFBBD2;}
</style>
<g>
	<g id="XMLID_1_">
		<g>
			<path class="st0" d="M117.4,254.5c19.6-6.2,31.7-1.7,38.7,3.7l5.4-13.7l-27.6-13.9c-0.8-0.3-1.5-0.9-2.1-1.5
				c-0.2-0.3-0.4-0.5-0.6-0.8s-0.3-0.6-0.5-0.9c-0.2-0.3-0.3-0.5-0.4-0.8c-0.3-0.9-0.5-1.8-0.5-2.7v-20.2H105v20.2
				c0,2.8-1.6,5.4-4.1,6.7l-27.6,13.9l5.4,13.7C85.7,252.8,97.8,248.3,117.4,254.5z M262.9,483.5v61c0,4.1-3.4,7.5-7.5,7.5H125.3v28
				c0.6,6.5,6.4,11.4,12.9,10.9c5.2-0.4,9.6-4.1,10.8-9.2c0.9-4,5-6.5,9-5.5c4,0.9,6.5,5,5.5,9c-2.8,11.5-12.5,19.8-24.3,20.7
				c-0.6,0.1-1.3,0.1-2,0.1c-7.6,0-14.5-3.2-19.5-8.3c-5,5.1-11.9,8.3-19.5,8.3c-0.6,0-1.3-0.1-2-0.1c-11.8-0.9-21.5-9.2-24.3-20.7
				c-1-4,1.5-8,5.5-9s8,1.5,9,5.5c1.2,5.1,5.6,8.8,10.8,9.2c6.5,0.4,12.3-4.4,12.9-10.9v-28H-20c-4.2,0-7.5-3.4-7.5-7.5v-61
				c0-69.6,49.3-128,114.8-141.9c-1.6-8.2-5.5-23.7-13.2-32.7c-7.9-9.2-9.9-23.9-5.7-36l-11.5-29.3c-1.4-3.7,0.1-7.7,3.6-9.5
				l29.6-14.9v-23c0-4.1,3.4-7.5,7.5-7.5h39.7c4.2,0,7.5,3.4,7.5,7.5v23l29.6,14.9c3.5,1.8,5,5.9,3.6,9.5l-11.5,29.3
				c4.2,12.1,2.2,26.8-5.7,36c-7.3,8.5-11.4,23.6-13.1,32.7C213.2,355.6,262.4,413.9,262.9,483.5z M247.5,537v-53.5
				c0-46.7-24.7-87.6-61.7-110.6c14.9,20.5,29.8,55.3,28.8,112.1c-0.1,4.1-3.4,7.4-7.5,7.4H207c-4.2-0.1-7.5-3.5-7.4-7.6
				c1.5-89.4-37.5-119.5-54.4-128.3c-9-2-18.3-3-27.8-3s-18.8,1.1-27.7,3c-6.1,3.2-15.1,9.1-24,19.5
				c-20.8,24.3-31.3,61.9-30.5,108.8c0,4.1-3.3,7.5-7.4,7.6h-0.1c-4.1,0-7.4-3.3-7.5-7.4c-1-56.9,13.9-91.7,28.8-112.1
				c-37,23-61.7,64-61.7,110.6V537H247.5z M149.2,299.1c4.7-5.5,6.1-17.9,0.8-25.7c-6.4-9.6-19.6-7.6-29.5-4.2
				c-1.1,0.3-2.2,0.4-3.2,0.3c-1.1,0.2-2.1,0.1-3.2-0.3c-9.9-3.4-23-5.4-29.5,4.2c-5.2,7.8-3.9,20.2,0.8,25.7
				c10.4,12.2,14.8,30.7,16.3,40.1c5.1-0.5,10.3-0.8,15.5-0.8c5.2,0,10.4,0.2,15.5,0.8C134.4,329.8,138.8,311.3,149.2,299.1z"/>
			<path class="st1" d="M131.8,229.1c0.6,0.6,1.3,1.2,2.1,1.5l27.6,13.9l-5.4,13.7c-7-5.4-19.1-9.9-38.7-3.7
				c-19.6-6.2-31.7-1.7-38.7,3.7l-5.4-13.7l27.6-13.9c2.5-1.3,4.1-3.9,4.1-6.7v-20.2h24.8v20.2c0,0.9,0.2,1.8,0.5,2.7
				c0.1,0.3,0.2,0.5,0.4,0.8c0.2,0.3,0.3,0.6,0.5,0.9S131.6,228.8,131.8,229.1z"/>
		</g>
		<g>
		</g>
	</g>
</g>
</svg>
