<?xml version="1.0" encoding="utf-8"?>
<!-- Generator: Adobe Illustrator 19.2.1, SVG Export Plug-In . SVG Version: 6.00 Build 0)  -->
<svg version="1.1" id="Capa_1" xmlns="http://www.w3.org/2000/svg" xmlns:xlink="http://www.w3.org/1999/xlink" x="0px" y="0px"
	 viewBox="0 0 382 382" style="enable-background:new 0 0 382 382;" xml:space="preserve">
<style type="text/css">
	.st0{fill:#0C3B5D;}
	.st1{fill:#FCD614;}
</style>
<g>
	<g>
		<path class="st0" d="M176.3,161.5c0-4.1-3.4-7.5-7.5-7.5h-15.5c-4.1,0-7.5,3.4-7.5,7.5s3.4,7.5,7.5,7.5h15.5
			C173,169,176.3,165.6,176.3,161.5z"/>
		<path class="st0" d="M228.7,154h-15.5c-4.1,0-7.5,3.4-7.5,7.5s3.4,7.5,7.5,7.5h15.5c4.1,0,7.5-3.4,7.5-7.5
			C236.2,157.3,232.9,154,228.7,154z"/>
		<path class="st0" d="M319.6,311.9V187.8c0-42.5-11.3-88.1-30.3-122.1C265.3,22.7,231.3,0,191,0s-74.3,22.7-98.3,65.7
			c-19,34-30.3,79.7-30.3,122.1v124.1c-18.5,16-18.1,33.4-17.7,37.2v25.4c0,4.1,3.3,7.5,7.5,7.5h277.6c4.1,0,7.5-3.4,7.5-7.5v-25.4
			C337.7,345.3,338.1,327.9,319.6,311.9z M77.4,187.8c0-40,10.6-82.9,28.4-114.8c14.8-26.5,41.5-58,85.2-58
			c43.7,0,70.4,31.5,85.2,58c17.8,31.9,28.4,74.8,28.4,114.8v114c-4.7-2.5-10-4.8-16.1-7c-50.6-17.8-60.7-26.5-60.3-51.4v-5
			c7-4.2,13.5-9.5,19.3-15.8c5.4-5.9,10-12.4,13.7-19.4c12-0.1,28.9-6.5,33.6-30.8c2.6-13.3-3.3-21.4-9.7-24.6
			c-4-2-8.5-2.4-12.8-1.3c-3.6-38.8-17.5-64.5-41.7-76.8v-0.1c0-21.2-17.7-38.5-39.6-38.5c-21.8,0-39.6,17.3-39.6,38.5v0.1
			c-24.1,12.3-38,37.9-41.7,76.6c-4.2-0.9-8.4-0.5-12.2,1.4c-6.4,3.2-12.3,11.4-9.7,24.6c4.6,23.9,21,30.5,33,30.8
			c3.7,7,8.3,13.5,13.7,19.4c5.8,6.3,12.3,11.6,19.3,15.8v5c0.5,24.9-9.7,33.5-60.3,51.3c-6.1,2.1-11.5,4.5-16.1,7V187.8z
			 M191,234.1c-16.3,0-32.9-7.9-45.5-21.5c-15.3-16.7-23-39.8-21-63.3c0.2-2.4,0.5-4.6,0.7-6.9c5.5-1,19.8-4.3,34.4-12.3
			c14.3-7.9,24.8-18.2,31.3-30.5c6.5,12.3,17,22.6,31.3,30.5c14.6,8,28.9,11.3,34.4,12.3c0.3,2.2,0.5,4.5,0.7,6.9
			c2,23.6-5.6,46.6-21,63.3C223.9,226.2,207.3,234.1,191,234.1z M223.4,276.8c-1.2,12.5-15.2,22.4-32.4,22.4s-31.3-9.9-32.4-22.4
			c6.7-8.2,10.1-18.1,10.2-31.5c7.2,2.4,14.7,3.7,22.2,3.7c7.5,0,14.9-1.3,22.2-3.7C213.3,258.7,216.7,268.7,223.4,276.8z M191,61.3
			c-8.6,0-16.5,0.9-23.8,2.7c0.1-0.3,0.1-0.5,0.2-0.8c0-0.1,0.1-0.3,0.1-0.4c0.1-0.4,0.3-0.8,0.4-1.2c0.1-0.3,0.2-0.6,0.4-1
			c0,0,0,0,0-0.1c0.1-0.2,0.2-0.3,0.2-0.5c0.1-0.2,0.2-0.4,0.3-0.6c0.1-0.2,0.2-0.4,0.3-0.6c0.1-0.2,0.2-0.4,0.3-0.6
			c0.2-0.3,0.3-0.5,0.5-0.8c0.1-0.2,0.2-0.3,0.3-0.4c0.2-0.3,0.3-0.5,0.5-0.8c0.2-0.3,0.5-0.6,0.7-1c0.2-0.3,0.4-0.5,0.6-0.7
			c0.2-0.2,0.4-0.5,0.6-0.7c0.2-0.2,0.3-0.3,0.5-0.5c0.1-0.1,0.3-0.3,0.4-0.4c0.1-0.1,0.3-0.3,0.4-0.4c0.2-0.2,0.4-0.3,0.6-0.5
			c0.3-0.3,0.6-0.5,0.9-0.7c0.2-0.2,0.4-0.3,0.6-0.4c0.3-0.2,0.7-0.5,1-0.7c0.3-0.2,0.6-0.4,0.9-0.6c0.4-0.2,0.7-0.4,1.1-0.6
			c0.6-0.3,1.2-0.6,1.8-0.9c0.3-0.1,0.6-0.3,0.9-0.4c0.6-0.2,1.3-0.5,1.9-0.7c0.3-0.1,0.7-0.2,1-0.3c0.3-0.1,0.7-0.2,1-0.2
			c0.3-0.1,0.7-0.1,1-0.2c0.1,0,0.1,0,0.2,0c0.3,0,0.5-0.1,0.8-0.1c0.1,0,0.1,0,0.2,0c0,0,0,0,0,0c0.2,0,0.5-0.1,0.7-0.1
			c0.2,0,0.4,0,0.7,0c0.2,0,0.5,0,0.7,0c0.3,0,0.6,0,0.9,0c11.5,0,21.2,7.6,23.8,17.8C207.5,62.3,199.6,61.3,191,61.3z M216.6,80.2
			c0.4,0.1,0.8,0.3,1.1,0.4c0.4,0.1,0.8,0.3,1.1,0.4c0.4,0.1,0.7,0.3,1.1,0.5c0.4,0.1,0.7,0.3,1.1,0.5c0.3,0.2,0.7,0.3,1.1,0.5
			c0.5,0.2,1,0.5,1.5,0.7c0.6,0.3,1.1,0.6,1.6,0.9c0.3,0.2,0.7,0.4,1,0.6c0.3,0.2,0.7,0.4,1,0.6c0.3,0.2,0.7,0.4,1,0.6
			c0.3,0.2,0.6,0.4,1,0.6c0.3,0.2,0.6,0.4,0.9,0.7c0.6,0.4,1.2,0.9,1.8,1.4c1.5,1.2,2.9,2.4,4.3,3.8c0.4,0.3,0.7,0.7,1,1.1
			c0.2,0.2,0.4,0.4,0.6,0.6c0.5,0.5,0.9,1,1.4,1.6c0.5,0.5,0.9,1.1,1.4,1.7c0.5,0.6,0.9,1.2,1.3,1.8c0.4,0.5,0.7,1,1,1.5
			c0.5,0.8,1.1,1.6,1.6,2.4c0.4,0.6,0.7,1.3,1.1,1.9c0.4,0.7,0.8,1.4,1.1,2.1s0.7,1.4,1.1,2.2c0,0,0,0.1,0.1,0.1
			c0.3,0.7,0.6,1.3,0.9,2c0.1,0.1,0.1,0.3,0.2,0.4c0.3,0.7,0.6,1.3,0.8,2c0.2,0.6,0.5,1.2,0.7,1.8c0.1,0.2,0.2,0.4,0.2,0.7
			c0.3,0.8,0.6,1.6,0.8,2.5c0.3,0.8,0.5,1.7,0.8,2.6c0.2,0.8,0.5,1.6,0.7,2.4c0.3,1,0.5,1.9,0.8,2.9c-6.2-1.6-15.5-4.5-24.6-9.6
			c-0.6-0.3-1.2-0.7-1.8-1c-0.5-0.3-0.9-0.6-1.4-0.9c-0.5-0.3-1-0.6-1.6-1c-0.5-0.3-1-0.6-1.4-1c-0.8-0.6-1.7-1.1-2.4-1.8
			c-0.5-0.4-1.1-0.8-1.6-1.2c-0.5-0.4-1-0.8-1.5-1.2c-0.2-0.2-0.4-0.3-0.6-0.5c-0.5-0.4-0.9-0.8-1.4-1.2c0,0-0.1,0-0.1-0.1
			c-0.6-0.5-1.1-1-1.6-1.5c-0.6-0.6-1.2-1.2-1.7-1.8c-0.3-0.3-0.6-0.6-0.9-1c-0.1-0.1-0.2-0.2-0.3-0.3c-0.4-0.5-0.8-0.9-1.2-1.4
			c-0.3-0.3-0.5-0.7-0.8-1c-0.4-0.6-0.8-1.1-1.3-1.7c0,0-0.1-0.1-0.1-0.1c-0.3-0.3-0.5-0.7-0.7-1c-0.1-0.1-0.2-0.2-0.2-0.3
			c-0.3-0.4-0.5-0.7-0.7-1.1c-0.1-0.1-0.1-0.1-0.1-0.2c-0.5-0.8-1-1.7-1.5-2.6c-0.5-0.9-0.9-1.8-1.4-2.8c-0.2-0.5-0.4-0.9-0.6-1.4
			c-0.4-1-0.8-1.9-1.1-2.9c-0.3-0.8-0.6-1.7-0.8-2.6c-0.1-0.3-0.1-0.5-0.2-0.8c-0.2-0.8-0.4-1.5-0.6-2.3c-0.1-0.4-0.2-0.8-0.3-1.2
			c-0.1-0.4-0.1-0.7-0.2-1c-0.1-0.4-0.1-0.9-0.2-1.3c0.6,0.1,1.1,0.1,1.7,0.2c1.7,0.2,3.4,0.4,5,0.6c0.8,0.1,1.6,0.3,2.4,0.4
			c0.6,0.1,1.2,0.2,1.8,0.4c0.3,0.1,0.6,0.1,0.9,0.2c0.4,0.1,0.8,0.2,1.2,0.3c0.8,0.2,1.6,0.4,2.4,0.7
			C215.1,79.7,215.9,80,216.6,80.2z M183,76.7c-2.7,16.9-12.8,30.4-30.1,40.1c-9.2,5.1-18.5,8.1-24.6,9.6
			C135.8,95.1,153.6,79.1,183,76.7z M268,187.1c2.5-7.8,4-16,4.5-24.3c2.3-1.9,4.5-2.2,5.8-1.6c1.9,0.9,2.6,4.2,1.8,8.4
			C278,180.5,272.8,185.2,268,187.1z M113.9,186.8c-4.6-2.1-9.4-6.8-11.4-17.1c-0.8-4.2-0.1-7.5,1.8-8.4c1.1-0.6,3.1-0.4,5.1,1.1
			C109.9,170.8,111.4,179,113.9,186.8z M265.1,367H115.3v-8.2c0-5.6,17.6-16,59.6-16.7c1,1.8,8.1,15.2,8.7,16.1
			c0.5,0.8,1.1,1.6,1.9,2.2c1.2,1,2.6,1.7,4.7,1.7h0.1c2,0,3.5-0.6,4.7-1.7c0.8-0.6,1.4-1.4,1.8-2.2c0.6-1,7.7-14.3,8.7-16.1
			c42.1,0.7,59.6,11,59.6,16.7V367z M322.3,348.7V367h-42.2v-8.2c0-19.6-30.3-31.7-79-31.7c-4.6,0-6.3,3.1-8.4,7.1
			c-0.7,1.3-1.6,3-2.5,4.7c-0.9-1.7-1.8-3.4-2.5-4.7c-2.1-4-3.8-7.1-8.4-7.1c-48.7,0-79,12.2-79,31.7v8.2H59.7v-18.3
			c0-0.4-1.7-25.5,38.9-39.8c20.3-7.2,36.1-13.5,47.5-21.1c6.4,15.4,24.1,26.4,44.9,26.4c20.8,0,38.5-11.1,44.9-26.4
			c11.4,7.6,27.2,13.9,47.5,21.1C324,323.2,322.3,348.3,322.3,348.7z"/>
		<path class="st1" d="M214.8,64c-7.3-1.8-15.2-2.7-23.8-2.7c-8.6,0-16.5,0.9-23.8,2.7c0.1-0.3,0.1-0.5,0.2-0.8
			c0-0.1,0.1-0.3,0.1-0.4c0.1-0.4,0.3-0.8,0.4-1.2c0.1-0.3,0.2-0.6,0.4-1c0,0,0,0,0-0.1c0.1-0.2,0.2-0.3,0.2-0.5
			c0.1-0.2,0.2-0.4,0.3-0.6c0.1-0.2,0.2-0.4,0.3-0.6c0.1-0.2,0.2-0.4,0.3-0.6c0.2-0.3,0.3-0.5,0.5-0.8c0.1-0.2,0.2-0.3,0.3-0.4
			c0.2-0.3,0.3-0.5,0.5-0.8c0.2-0.3,0.5-0.6,0.7-1c0.2-0.3,0.4-0.5,0.6-0.7c0.2-0.2,0.4-0.5,0.6-0.7c0.2-0.2,0.3-0.3,0.5-0.5
			c0.1-0.1,0.3-0.3,0.4-0.4c0.1-0.1,0.3-0.3,0.4-0.4c0.2-0.2,0.4-0.3,0.6-0.5c0.3-0.3,0.6-0.5,0.9-0.7c0.2-0.2,0.4-0.3,0.6-0.4
			c0.3-0.2,0.7-0.5,1-0.7c0.3-0.2,0.6-0.4,0.9-0.6c0.4-0.2,0.7-0.4,1.1-0.6c0.6-0.3,1.2-0.6,1.8-0.9c0.3-0.1,0.6-0.3,0.9-0.4
			c0.6-0.2,1.3-0.5,1.9-0.7c0.3-0.1,0.7-0.2,1-0.3c0.3-0.1,0.7-0.2,1-0.2c0.3-0.1,0.7-0.1,1-0.2c0.1,0,0.1,0,0.2,0
			c0.3,0,0.5-0.1,0.8-0.1c0.1,0,0.1,0,0.2,0c0,0,0,0,0,0c0.2,0,0.5-0.1,0.7-0.1c0.2,0,0.4,0,0.7,0c0.2,0,0.5,0,0.7,0
			c0.3,0,0.6,0,0.9,0C202.5,46.3,212.2,53.8,214.8,64z"/>
		<path class="st1" d="M253.8,126.4c-6.2-1.6-15.5-4.5-24.6-9.6c-0.6-0.3-1.2-0.7-1.8-1c-0.5-0.3-0.9-0.6-1.4-0.9
			c-0.5-0.3-1-0.6-1.6-1c-0.5-0.3-1-0.6-1.4-1c-0.8-0.6-1.7-1.1-2.4-1.8c-0.5-0.4-1.1-0.8-1.6-1.2c-0.5-0.4-1-0.8-1.5-1.2
			c-0.2-0.2-0.4-0.3-0.6-0.5c-0.5-0.4-0.9-0.8-1.4-1.2c0,0-0.1,0-0.1-0.1c-0.6-0.5-1.1-1-1.6-1.5c-0.6-0.6-1.2-1.2-1.7-1.8
			c-0.3-0.3-0.6-0.6-0.9-1c-0.1-0.1-0.2-0.2-0.3-0.3c-0.4-0.5-0.8-0.9-1.2-1.4c-0.3-0.3-0.5-0.7-0.8-1c-0.4-0.6-0.8-1.1-1.3-1.7
			c0,0-0.1-0.1-0.1-0.1c-0.3-0.3-0.5-0.7-0.7-1c-0.1-0.1-0.2-0.2-0.2-0.3c-0.3-0.4-0.5-0.7-0.7-1.1c-0.1-0.1-0.1-0.1-0.1-0.2
			c-0.5-0.8-1-1.7-1.5-2.6c-0.5-0.9-0.9-1.8-1.4-2.8c-0.2-0.5-0.4-0.9-0.6-1.4c-0.4-1-0.8-1.9-1.1-2.9c-0.3-0.8-0.6-1.7-0.8-2.6
			c-0.1-0.3-0.1-0.5-0.2-0.8c-0.2-0.8-0.4-1.5-0.6-2.3c-0.1-0.4-0.2-0.8-0.3-1.2c-0.1-0.4-0.1-0.7-0.2-1c-0.1-0.4-0.1-0.9-0.2-1.3
			c0.6,0.1,1.1,0.1,1.7,0.2c1.7,0.2,3.4,0.4,5,0.6c0.8,0.1,1.6,0.3,2.4,0.4c0.6,0.1,1.2,0.2,1.8,0.4c0.3,0.1,0.6,0.1,0.9,0.2
			c0.4,0.1,0.8,0.2,1.2,0.3c0.8,0.2,1.6,0.4,2.4,0.7c0.8,0.2,1.6,0.5,2.3,0.8c0.4,0.1,0.8,0.3,1.1,0.4c0.4,0.1,0.8,0.3,1.1,0.4
			c0.4,0.1,0.7,0.3,1.1,0.5c0.4,0.1,0.7,0.3,1.1,0.5c0.3,0.2,0.7,0.3,1.1,0.5c0.5,0.2,1,0.5,1.5,0.7c0.6,0.3,1.1,0.6,1.6,0.9
			c0.3,0.2,0.7,0.4,1,0.6c0.3,0.2,0.7,0.4,1,0.6c0.3,0.2,0.7,0.4,1,0.6c0.3,0.2,0.6,0.4,1,0.6c0.3,0.2,0.6,0.4,0.9,0.7
			c0.6,0.4,1.2,0.9,1.8,1.4c1.5,1.2,2.9,2.4,4.3,3.8c0.4,0.3,0.7,0.7,1,1.1c0.2,0.2,0.4,0.4,0.6,0.6c0.5,0.5,0.9,1,1.4,1.6
			c0.5,0.5,0.9,1.1,1.4,1.7c0.5,0.6,0.9,1.2,1.3,1.8c0.4,0.5,0.7,1,1,1.5c0.5,0.8,1.1,1.6,1.6,2.4c0.4,0.6,0.7,1.3,1.1,1.9
			c0.4,0.7,0.8,1.4,1.1,2.1s0.7,1.4,1.1,2.2c0,0,0,0.1,0.1,0.1c0.3,0.7,0.6,1.3,0.9,2c0.1,0.1,0.1,0.3,0.2,0.4
			c0.3,0.7,0.6,1.3,0.8,2c0.2,0.6,0.5,1.2,0.7,1.8c0.1,0.2,0.2,0.4,0.2,0.7c0.3,0.8,0.6,1.6,0.8,2.5c0.3,0.8,0.5,1.7,0.8,2.6
			c0.2,0.8,0.5,1.6,0.7,2.4C253.3,124.4,253.6,125.4,253.8,126.4z"/>
		<path class="st1" d="M183,76.7c-2.7,16.9-12.8,30.4-30.1,40.1c-9.2,5.1-18.5,8.1-24.6,9.6C135.8,95.1,153.6,79.1,183,76.7z"/>
		<path class="st0" d="M205.2,190.3c-4.1,0-7.5,3.4-7.5,7.5c0,1.2-2.6,3.5-6.7,3.5c-4.2,0-6.7-2.3-6.7-3.5c0-4.1-3.4-7.5-7.5-7.5
			s-7.5,3.4-7.5,7.5c0,10.2,9.8,18.5,21.7,18.5s21.7-8.3,21.7-18.5C212.7,193.6,209.4,190.3,205.2,190.3z"/>
	</g>
</g>
</svg>
