<?xml version="1.0" encoding="utf-8"?>
<!-- Generator: Adobe Illustrator 19.0.0, SVG Export Plug-In . SVG Version: 6.00 Build 0)  -->
<svg version="1.1" id="Capa_1" xmlns="http://www.w3.org/2000/svg" xmlns:xlink="http://www.w3.org/1999/xlink" x="0px" y="0px"
	 viewBox="-94 185.5 422.5 422.5" style="enable-background:new -94 185.5 422.5 422.5;" xml:space="preserve">
<style type="text/css">
	.st0{fill:#0D3C5E;}
	.st1{fill:#FFBBD2;}
</style>
<g>
	<g id="XMLID_1_">
	</g>
	<g>
		<g id="XMLID_10_">
			<g>
				<path class="st0" d="M237.6,231.3c2.9,2.9,2.9,7.7,0,10.6l-24.2,24.2c-1.5,1.5-3.4,2.2-5.3,2.2c-1.9,0-3.8-0.7-5.3-2.2
					c-2.9-2.9-2.9-7.7,0-10.6l24.3-24.3C229.9,228.3,234.6,228.3,237.6,231.3z"/>
				<path class="st0" d="M152.4,365.3c57.1,10.3,100.5,60.4,100.5,120.4c0,67.5-54.9,122.3-122.3,122.3S8.3,553.1,8.3,485.7
					c0-60,43.4-110.1,100.5-120.4L61,334c-2.9-1.9-4.1-5.6-2.9-8.9l14.2-38.2c1.1-2.9,3.9-4.9,7-4.9h102.5c3.1,0,5.9,1.9,7,4.9
					l14.2,38.2c1.2,3.3,0,7-2.9,8.9L152.4,365.3z M237.9,485.7c0-59.2-48.1-107.3-107.3-107.3S23.4,426.6,23.4,485.7
					C23.3,544.8,71.4,593,130.6,593C189.8,593,237.9,544.8,237.9,485.7z M181.8,310.7l-5.1-13.6h-18.2L181.8,310.7z M130.6,361.6
					l40.3-26.4H90.3L130.6,361.6z M92.9,320.2h75.4l-37.6-22L92.9,320.2z M79.4,310.7l23.5-13.6H84.6L79.4,310.7z"/>
				<path class="st0" d="M130.6,397.7c48.5,0,88,39.5,88,88s-39.5,88-88,88s-88-39.5-88-88S82.2,397.7,130.6,397.7z M203.6,485.7
					c0-40.2-32.7-73-73-73s-73,32.7-73,73c0,40.2,32.7,73,73,73S203.6,525.9,203.6,485.7z"/>
				<polygon class="st1" points="176.6,297.1 181.8,310.7 158.4,297.1 				"/>
				<polygon class="st1" points="170.9,335.2 130.6,361.6 90.3,335.2 				"/>
				<polygon class="st1" points="168.4,320.2 92.9,320.2 130.8,298.2 				"/>
				<path class="st0" d="M137.6,193v34.3c0,4.1-3.4,7.5-7.5,7.5c-4.1,0-7.5-3.4-7.5-7.5V193c0-4.1,3.4-7.5,7.5-7.5
					C134.1,185.5,137.6,188.9,137.6,193z"/>
				<polygon class="st1" points="102.9,297.1 79.4,310.7 84.6,297.1 				"/>
				<path class="st0" d="M57.3,255.5c2.9,2.9,2.9,7.7,0,10.6c-1.5,1.5-3.4,2.2-5.3,2.2c-1.9,0-3.8-0.7-5.3-2.2l-24.2-24.2
					c-2.9-2.9-2.9-7.7,0-10.6c2.9-2.9,7.7-2.9,10.6,0L57.3,255.5z"/>
			</g>
			<g>
			</g>
		</g>
	</g>
</g>
</svg>
