<?xml version="1.0" encoding="utf-8"?>
<!-- Generator: Adobe Illustrator 19.0.0, SVG Export Plug-In . SVG Version: 6.00 Build 0)  -->
<svg version="1.1" id="Capa_1" xmlns="http://www.w3.org/2000/svg" xmlns:xlink="http://www.w3.org/1999/xlink" x="0px" y="0px"
	 viewBox="-121 213.8 367.2 367.2" style="enable-background:new -121 213.8 367.2 367.2;" xml:space="preserve">
<style type="text/css">
	.st0{fill:#FFC0C9;}
	.st1{fill:#0D3C5E;}
	.st2{fill:#FFBBD2;}
	.st3{fill:#FFFFFF;}
</style>
<g>
	<g id="XMLID_1_">
		<g>
			<polygon class="st0" points="174.4,439.1 205.3,490.3 -80.1,490.3 -49.3,439.1 			"/>
			<path class="st0" d="M151.4,410.6c0,0.2,0,0.5,0,0.7c-0.2,2.6-1.2,5-2.9,7c1.8-2.2,2.8-4.8,2.8-7.6v-12.2c0-3.1-1.2-5.9-3.2-8.2
				c1.9,2.1,3.1,4.6,3.3,7.4c0,0.2,0,0.4,0,0.6V410.6z"/>
			<path class="st0" d="M151.3,398.5v12.2c0,2.8-1,5.4-2.8,7.6c-0.3,0.3-0.6,0.6-0.9,0.9c-3,3-7.5,4.9-12.7,4.9H95.8
				c-8.7,0-15.8-5.7-16.3-12.8c0-0.2,0-0.5,0-0.7v-12.2c0-0.2,0-0.4,0-0.6c0-0.4,0.1-0.9,0.2-1.3c0-0.2,0.1-0.4,0.1-0.7c0,0,0,0,0,0
				c1.4-5.7,7.2-10.1,14.3-10.7c0.6-0.1,1.1-0.1,1.7-0.1h39.1c0.6,0,1.1,0,1.7,0.1c1.1,0.1,2.2,0.3,3.2,0.5c0,0,0,0,0,0
				c0.8,0.2,1.5,0.4,2.2,0.7c0,0,0,0,0,0c0.9,0.4,1.8,0.8,2.7,1.3c1.3,0.8,2.4,1.7,3.3,2.7C150.1,392.6,151.3,395.4,151.3,398.5z"/>
			<path class="st1" d="M148.5,418.2c1.7-2,2.7-4.4,2.9-7c-0.3,6.2-5.9,11.4-13.1,12.6c3.8-0.6,7.1-2.3,9.4-4.7
				C147.9,418.9,148.2,418.5,148.5,418.2z"/>
			<path class="st2" d="M144.7,387.6c-0.8-0.5-1.7-0.9-2.7-1.3C143,386.6,143.9,387.1,144.7,387.6z"/>
			<path class="st2" d="M139.9,385.6c0.8,0.2,1.5,0.4,2.2,0.7C141.4,386,140.6,385.8,139.9,385.6z"/>
			<path class="st2" d="M136.6,385c1.1,0.1,2.2,0.3,3.2,0.5C138.8,385.3,137.7,385.1,136.6,385z"/>
			<path class="st1" d="M135.8,424.1c0.6,0,1.1-0.1,1.6-0.1C136.9,424.1,136.3,424.1,135.8,424.1z"/>
			<path class="st3" d="M124.6,257.5c1.8,12.7-0.8,45.5-62,79c-61.1-33.5-63.8-66.3-61.9-79c2-14.1,11.9-25.4,24.6-28.1
				c4.9-1,9.8-0.6,14.3,1.1c0,0,0,0,0.1,0c0.5,0.2,1.1,0.4,1.6,0.7c0.6,0.3,1.1,0.6,1.7,0.9c5,2.8,9.5,7.2,13.2,13.2
				c1.4,2.2,3.7,3.4,6.1,3.5c0.1,0,0.2,0,0.3,0c1.4,0,2.8-0.3,4.1-1.1c1-0.6,1.7-1.4,2.3-2.2c0-0.1,0.1-0.1,0.1-0.2
				c3.7-6,8.2-10.4,13.2-13.2c0.6-0.3,1.1-0.6,1.7-0.9c0.5-0.3,1.1-0.5,1.6-0.7c0,0,0.1,0,0.1,0c4.5-1.7,9.4-2.1,14.3-1.1
				C112.7,232.1,122.6,243.4,124.6,257.5z"/>
			<path class="st1" d="M124.7,257.5c1.8,12.7-0.9,45.4-62,79c0,0,0,0-0.1,0C123.8,302.9,126.3,270.2,124.7,257.5
				c-2.1-14.1-12-25.4-24.7-28.1c-4.9-1-9.8-0.6-14.3,1.1c4.6-1.8,9.5-2.1,14.5-1.1C112.8,232.1,122.7,243.4,124.7,257.5z"/>
			<path class="st1" d="M135.1,424.2H95.8c-0.6,0-1.1,0-1.7-0.1c-7.1-0.6-12.9-5-14.3-10.7c0,0,0,0,0,0c0-0.2-0.1-0.4-0.1-0.7
				c-0.1-0.5-0.2-1-0.2-1.4c0.4,7.1,7.6,12.8,16.3,12.8h39.1c5.1,0,9.7-1.9,12.7-4.9c-2.3,2.4-5.6,4.1-9.4,4.7
				c-0.3,0.1-0.5,0.1-0.8,0.1c-0.5,0.1-1.1,0.1-1.6,0.1C135.5,424.2,135.3,424.2,135.1,424.2z"/>
			<path class="st1" d="M79.9,413.4c1.4,5.7,7.2,10.1,14.3,10.7C87.1,423.5,81.3,419.1,79.9,413.4z"/>
			<path class="st1" d="M83.9,231.1c0.5-0.3,1.1-0.5,1.6-0.7C85,230.7,84.5,230.9,83.9,231.1z"/>
			<path class="st2" d="M79.9,395.7c1.4-5.7,7.2-10.1,14.3-10.7C87.1,385.6,81.3,390.1,79.9,395.7z"/>
			<path class="st2" d="M79.9,395.8c0,0.2-0.1,0.4-0.1,0.7C79.8,396.2,79.8,396,79.9,395.8z"/>
			<path class="st1" d="M79.7,412.7c0,0.2,0.1,0.5,0.1,0.7C79.8,413.1,79.8,412.9,79.7,412.7z"/>
			<path class="st1" d="M62.7,336.5c61.1-33.6,63.8-66.3,62-79c-2-14.1-11.9-25.4-24.5-28.1c-5-1.1-9.9-0.7-14.5,1.1c0,0,0,0-0.1,0
				c-0.5,0.2-1.1,0.4-1.6,0.7c-0.6,0.3-1.1,0.5-1.7,0.9c-5,2.7-9.6,7.2-13.4,13.2c0,0.1-0.1,0.1-0.1,0.2c-0.6,0.9-1.3,1.7-2.3,2.2
				c-1.2,0.8-2.5,1.1-3.9,1.1c-0.1,0-0.2,0-0.3,0c-2.3-0.1-4.6-1.4-5.9-3.5c-3.8-6-8.3-10.4-13.4-13.2c-0.6-0.3-1.1-0.6-1.7-0.9
				c-0.5-0.3-1.1-0.5-1.6-0.7c0,0,0,0-0.1,0c-4.6-1.8-9.5-2.1-14.5-1.1c-12.7,2.7-22.6,14-24.6,28.1c-1.7,12.7,1,45.5,62.1,79
				C62.6,336.4,62.6,336.4,62.7,336.5C62.6,336.4,62.6,336.4,62.7,336.5z M226.1,497.8v75.8c0,4.1-3.4,7.5-7.5,7.5h-47.2
				c-4.1,0-7.5-3.4-7.5-7.5v-19.8H-38.7v19.8c0,4.1-3.4,7.5-7.5,7.5h-47.2c-4.1,0-7.5-3.4-7.5-7.5v-27.3v-48.4c0-1.4,0.4-2.7,1-3.8
				c0,0,0-0.1,0.1-0.1l38.9-64.5v-81c0-4.1,3.4-7.5,7.5-7.5H41c-55.1-35.4-57.2-71-55.1-85.6c2.8-20.3,17.5-36.7,36.3-40.7
				c15-3.2,29.6,2,40.6,14.1c10.9-12.1,25.5-17.3,40.5-14.1c18.9,4,33.5,20.4,36.3,40.7c2,14.6,0,50.2-55.1,85.6h94.2
				c4.1,0,7.5,3.4,7.5,7.5v81l38.9,64.5v0.1C225.6,495.2,226.1,496.5,226.1,497.8z M211.1,566.1v-12.3h-32.2v12.3H211.1z
				 M211.1,538.8v-33.4h-297v33.4H211.1z M205.3,490.4v-0.1l-30.9-51.2H-49.3l-30.9,51.2h0.1l-0.1,0.1H205.3z M171.1,424.1V356H-46
				v68.1h8.5c-2.4-4-3.7-8.6-3.7-13.5v-12.2c0-15.7,14-28.5,31.3-28.5h39.1c17.3,0,31.3,12.8,31.3,28.5v12.2c0,4.9-1.4,9.5-3.8,13.5
				h11.5c-2.4-4-3.7-8.6-3.7-13.5v-12.2c0-15.7,14-28.5,31.3-28.5h39.1c17.3,0,31.3,12.8,31.3,28.5v12.2c0,4.9-1.4,9.5-3.7,13.5
				H171.1z M151.4,410.6v-12.2c0-0.2,0-0.4,0-0.6c-0.4-7.1-7.5-12.9-16.3-12.9H95.8c-8.8,0-15.9,5.7-16.3,12.9c0,0.2,0,0.4,0,0.6
				v12.2c0,0.2,0,0.5,0,0.7c0,0.5,0.1,1,0.2,1.4c0,0.2,0.1,0.5,0.1,0.7c0,0,0,0,0,0c1.4,5.7,7.2,10.1,14.3,10.7
				c0.6,0,1.1,0.1,1.7,0.1h39.2c0.3,0,0.5,0,0.7,0c0.6,0,1.1-0.1,1.6-0.1c0.3,0,0.5-0.1,0.8-0.1c7.3-1.2,12.8-6.4,13.1-12.6
				C151.3,411,151.4,410.8,151.4,410.6z M45.5,410.6v-12.2c0-0.2,0-0.4,0-0.6c-0.4-7.1-7.5-12.9-16.3-12.9H-9.9
				c-8.8,0-15.9,5.7-16.3,12.9c0,0.2,0,0.4,0,0.6v12.2c0,0.2,0,0.5,0,0.7c0,0.5,0.1,1,0.2,1.4c0,0.2,0.1,0.5,0.1,0.7c0,0,0,0,0,0
				c1.4,5.7,7.2,10.1,14.3,10.7c0.6,0,1.1,0.1,1.7,0.1h39.1c0.6,0,1.1,0,1.7-0.1c7.1-0.6,12.9-5,14.3-10.7c0,0,0,0,0,0
				c0.1-0.2,0.1-0.5,0.1-0.7c0.1-0.5,0.1-0.9,0.2-1.4C45.5,411,45.5,410.8,45.5,410.6z M-53.7,566.1v-12.3h-32.2v12.3H-53.7z"/>
			<path class="st1" d="M56.3,245.2c1.3,2.1,3.6,3.4,5.9,3.5c-2.4-0.1-4.7-1.3-6.1-3.5c-3.7-6-8.2-10.4-13.2-13.2
				C48,234.7,52.6,239.2,56.3,245.2z"/>
			<path class="st0" d="M29.3,385c8.7,0,15.8,5.6,16.3,12.8c0,0.2,0,0.4,0,0.6v12.2c0,0.2,0,0.5,0,0.7c-0.4,7.2-7.6,12.8-16.3,12.8
				H-9.9c-8.7,0-15.8-5.7-16.3-12.8c0-0.2,0-0.5,0-0.7v-12.2c0-0.2,0-0.4,0-0.6c0-0.4,0.1-0.9,0.2-1.3c0-0.2,0.1-0.4,0.1-0.7
				c0,0,0,0,0,0c1.4-5.7,7.2-10.1,14.3-10.7c0.6-0.1,1.1-0.1,1.7-0.1H29.3z"/>
			<path class="st1" d="M45.2,413.4c0-0.2,0.1-0.4,0.1-0.7C45.3,412.9,45.3,413.1,45.2,413.4z"/>
			<path class="st1" d="M30.9,424.1c7.1-0.6,12.9-5,14.3-10.7C43.8,419.1,38,423.5,30.9,424.1z"/>
			<path class="st1" d="M29.3,424.1c8.7,0,15.8-5.6,16.3-12.8c0,0.5-0.1,1-0.2,1.4c0,0.2-0.1,0.5-0.1,0.7c0,0,0,0,0,0
				c-1.4,5.7-7.2,10.1-14.3,10.7C30.4,424.1,29.8,424.2,29.3,424.1l-39.1,0.1c-0.6,0-1.1,0-1.7-0.1c-7.1-0.6-12.9-5-14.3-10.7
				c0,0,0,0,0,0c-0.1-0.2-0.1-0.4-0.1-0.7c-0.1-0.5-0.2-1-0.2-1.4c0.4,7.1,7.6,12.8,16.3,12.8H29.3z"/>
			<path class="st1" d="M-25.8,413.4c1.4,5.7,7.2,10.1,14.3,10.7C-18.6,423.5-24.4,419.1-25.8,413.4z"/>
			<path class="st2" d="M-11.5,385c-7.1,0.6-12.9,5-14.3,10.7C-24.4,390-18.6,385.6-11.5,385z"/>
			<path class="st2" d="M-25.8,395.8c-0.1,0.2-0.1,0.4-0.1,0.7C-25.9,396.2-25.9,396-25.8,395.8z"/>
			<path class="st1" d="M-26,412.7c0,0.2,0.1,0.5,0.1,0.7C-25.9,413.1-25.9,412.9-26,412.7z"/>
			<polygon class="st1" points="-49.3,439.1 -80.1,490.3 -80.2,490.3 			"/>
		</g>
		<g>
		</g>
	</g>
</g>
</svg>
