<?xml version="1.0" encoding="utf-8"?>
<!-- Generator: Adobe Illustrator 19.2.1, SVG Export Plug-In . SVG Version: 6.00 Build 0)  -->
<svg version="1.1" id="Capa_1" xmlns="http://www.w3.org/2000/svg" xmlns:xlink="http://www.w3.org/1999/xlink" x="0px" y="0px"
	 viewBox="0 0 612 612" style="enable-background:new 0 0 612 612;" xml:space="preserve">
<style type="text/css">
	.st0{fill:#0C3C5D;}
	.st1{fill:#FFD700;}
</style>
<g>
	<g>
		<g>
			<g>
				<path d="M515.3,50.3c-0.1-0.1-0.2-0.2-0.3-0.4c0.3,0.3,0.5,0.6,0.8,0.9C515.6,50.7,515.4,50.5,515.3,50.3z M312.6,562.9
					c0,0,0.1-0.1,0.1-0.1c0,0,0.1-0.1,0.1-0.1c0.2-0.2,0.4-0.4,0.6-0.6c0,0,0.1-0.1,0.1-0.1c0.1-0.1,0.3-0.3,0.4-0.4
					c0.1-0.1,0.2-0.3,0.3-0.4c0,0,0,0,0-0.1c0.2-0.2,0.3-0.4,0.5-0.7C314.2,561.4,313.5,562.3,312.6,562.9z M302.8,564
					c0.2,0.1,0.3,0.2,0.5,0.2c0.3,0.1,0.5,0.2,0.8,0.3C303.6,564.3,303.2,564.1,302.8,564z M301.5,563.3c-0.1-0.1-0.2-0.1-0.3-0.2
					c0,0,0.1,0.1,0.1,0.1C301.5,563.2,301.5,563.3,301.5,563.3c0.3,0.2,0.4,0.3,0.6,0.4C301.9,563.5,301.7,563.4,301.5,563.3z
					 M301,562.8c-0.2-0.1-0.3-0.3-0.5-0.4c0.1,0.1,0.2,0.2,0.3,0.3c0,0,0.1,0,0.1,0.1c0.1,0.1,0.2,0.2,0.3,0.3
					C301.1,563,301,562.9,301,562.8z M299.3,561.2c0,0.1,0.1,0.1,0.1,0.2c0,0,0,0,0,0c0,0,0.1,0.1,0.1,0.1
					C299.4,561.4,299.4,561.3,299.3,561.2z M306.2,47.2c0.4,0,0.9,0,1.3,0C307.1,47.1,306.6,47.1,306.2,47.2z"/>
				<path class="st0" d="M516,51.2c0-0.1-0.1-0.1-0.1-0.2c0,0,0,0-0.1-0.1c0,0,0,0-0.1-0.1c0,0,0,0,0,0c-0.2-0.3-0.5-0.6-0.8-0.9
					l-0.2-0.2c-0.2-0.2-0.4-0.3-0.5-0.5c-0.7-0.6-1.6-1.1-2.5-1.5c-0.3-0.1-0.5-0.2-0.8-0.3c-0.9-0.3-1.8-0.4-2.8-0.4v0H105.5
					c-3.5,0-6.5,1.9-8.2,4.7l-95,132.9c0,0,0,0,0,0l-0.5,0.7c-2.5,3.6-2.3,8.3,0.4,11.6l0.5,0.6c0,0,0,0,0,0l296.7,363.7
					c0-0.1-0.1-0.1-0.1-0.2c0.1,0.1,0.2,0.2,0.3,0.3c0.1,0.1,0.2,0.2,0.3,0.3c0,0,0.1,0.1,0.1,0.1c0,0,0.1,0.1,0.1,0.1
					c0.1,0.1,0.2,0.2,0.3,0.3c0,0,0,0,0,0c0,0,0,0,0,0h0c0.2,0.2,0.3,0.3,0.5,0.4c0.1,0.1,0.2,0.1,0.2,0.2c0,0,0,0,0,0c0,0,0,0,0,0
					l0,0c0.1,0,0.2,0.1,0.3,0.2c0.2,0.1,0.4,0.3,0.6,0.4c0,0,0,0,0,0c0.2,0.1,0.4,0.2,0.6,0.3c0.4,0.2,0.9,0.4,1.3,0.5
					c0.1,0,0.1,0,0.2,0c0.3,0.1,0.6,0.2,1,0.2c0,0,0,0,0.1,0s0,0,0,0c0.5,0.1,1,0.1,1.5,0.1c0.2,0,0.5,0,0.7,0c0,0,0.1,0,0.1,0
					c0.2,0,0.4,0,0.5-0.1c0.1,0,0.1,0,0.2,0c0,0,0,0,0,0c0.1,0,0.3,0,0.4-0.1c0.1,0,0.2,0,0.3-0.1c0.1,0,0.2,0,0.3-0.1c0,0,0,0,0,0
					c0,0,0.1,0,0.1,0c0,0,0,0,0,0c0.7-0.2,1.4-0.5,2-0.9c0,0,0,0,0.1,0c0,0,0.1,0,0.1-0.1c0.3-0.2,0.5-0.4,0.8-0.5
					c0.9-0.7,1.6-1.5,2.2-2.4c-0.1,0.2-0.3,0.5-0.5,0.7L611.5,197l0.1-3.1v0l0.1-5.5l0.1-3.1L516,51.2z M307.5,47.2
					c-0.4,0-0.9,0-1.3,0C306.6,47.1,307.1,47.1,307.5,47.2z M282.5,66.3L164.3,176.7L119.7,66.3H282.5z M103.1,76.5l42.3,104.9H28.2
					L103.1,76.5z M29.7,200.5h123.5l121.1,299.8L29.7,200.5z M565.7,200.5h18.2L339.3,500.3L428,280.8c2-4.9-0.4-10.5-5.3-12.4
					c-4.9-2-10.5,0.4-12.4,5.3L306.8,529.8l-133-329.3h200c5.3,0,9.6-4.3,9.6-9.6s-4.3-9.6-9.6-9.6H187.3L306.8,69.8l89.3,83.4
					c3.9,3.6,9.9,3.4,13.5-0.5c3.6-3.9,3.4-9.9-0.5-13.5l-78-72.8H494l-10.2,25.2c-2,4.9,0.4,10.5,5.3,12.4c4.9,2,10.5-0.4,12.4-5.3
					l9-22.2l74.9,104.9h-19.8c-5.3,0-9.6,4.3-9.6,9.6S560.4,200.5,565.7,200.5z"/>
				<polygon class="st1" points="274.3,500.3 29.7,200.5 153.2,200.5 				"/>
				<polygon class="st1" points="145.5,181.3 28.2,181.3 103.1,76.5 				"/>
				<path class="st1" d="M556.1,190.9c0-5.3,4.3-9.6,9.6-9.6h19.8L510.5,76.4l-9,22.2c-2,4.9-7.5,7.3-12.4,5.3
					c-4.9-2-7.3-7.5-5.3-12.4L494,66.3H331.1l78,72.8c3.9,3.6,4.1,9.6,0.5,13.5c-3.6,3.9-9.6,4.1-13.5,0.5l-89.3-83.4L187.3,181.3
					h186.6c5.3,0,9.6,4.3,9.6,9.6s-4.3,9.6-9.6,9.6h-200l133,329.3l103.4-256.1c2-4.9,7.5-7.3,12.4-5.3c4.9,2,7.3,7.6,5.3,12.4
					l-88.6,219.6l244.6-299.8h-18.2C560.4,200.5,556.1,196.2,556.1,190.9z M535.9,195.2c-1,1.9-2.5,3.3-4.2,4.2l-35.4,17.9
					l-17.9,35.4c-2.4,4.7-8.1,6.6-12.8,4.2c-1.9-1-3.3-2.5-4.2-4.2l-17.8-35.4L408,199.5c-4.7-2.4-6.6-8.1-4.2-12.8
					c1-1.9,2.5-3.3,4.2-4.2l35.4-17.9l17.8-35.4c2.4-4.7,8.1-6.6,12.9-4.2c1.9,0.9,3.3,2.5,4.2,4.2l17.9,35.4l35.4,17.9
					C536.4,184.8,538.3,190.5,535.9,195.2z"/>
				<polygon class="st1" points="282.5,66.3 164.3,176.7 119.7,66.3 				"/>
			</g>
			<path d="M2.7,197.6C1,195.9,0,193.5,0,190.9c0-2.4,0.8-4.5,2.3-6.2l-0.5,0.7c-2.5,3.6-2.3,8.3,0.4,11.6L2.7,197.6z"/>
			<path d="M612,190.9c0,1-0.2,2-0.5,3l0.1-5.5C611.9,189.2,612,190,612,190.9z"/>
			<path d="M299.5,561.5c0,0-0.1-0.1-0.1-0.1c0,0,0,0,0,0c0-0.1-0.1-0.1-0.1-0.2C299.4,561.3,299.4,561.4,299.5,561.5z"/>
			<path d="M301,562.8c0,0-0.1,0-0.1-0.1c0,0-0.1-0.1-0.1-0.1c-0.1-0.1-0.2-0.2-0.3-0.3C300.6,562.6,300.8,562.7,301,562.8z"/>
			<path d="M301.5,563.3c-0.1,0-0.1,0-0.1-0.1c0,0-0.1-0.1-0.1-0.1C301.4,563.1,301.5,563.2,301.5,563.3z"/>
			<path d="M302.1,563.6c-0.2-0.1-0.3-0.2-0.5-0.3c0,0-0.1,0-0.1-0.1C301.7,563.4,301.9,563.5,302.1,563.6z"/>
			<path d="M304,564.5c-0.3-0.1-0.5-0.2-0.8-0.3c-0.2-0.1-0.4-0.2-0.5-0.2C303.2,564.1,303.6,564.3,304,564.5z"/>
			<path d="M314.8,560.5c-0.1,0.2-0.3,0.5-0.5,0.7c0,0,0,0,0,0.1c-0.1,0.1-0.2,0.3-0.3,0.4c-0.1,0.2-0.3,0.3-0.4,0.4
				c0,0-0.1,0.1-0.1,0.1c-0.2,0.2-0.4,0.4-0.6,0.6c0,0-0.1,0.1-0.1,0.1c0,0-0.1,0.1-0.1,0.1C313.5,562.3,314.2,561.4,314.8,560.5z"
				/>
			<path d="M511,47.6c-0.9-0.3-1.8-0.4-2.8-0.4v0C509.1,47.1,510,47.3,511,47.6z"/>
			<path d="M307.5,47.2c-0.4,0-0.9,0-1.3,0C306.6,47.1,307.1,47.1,307.5,47.2z"/>
			<path class="st0" d="M531.7,182.4l-35.4-17.9l-17.9-35.4c-0.9-1.8-2.3-3.3-4.2-4.2c-4.7-2.3-10.5-0.5-12.9,4.2l-17.8,35.4
				L408,182.4c-1.8,0.9-3.3,2.3-4.2,4.2c-2.4,4.7-0.5,10.5,4.2,12.8l35.4,17.9l17.8,35.4c0.9,1.8,2.3,3.3,4.2,4.2
				c4.7,2.4,10.5,0.5,12.8-4.2l17.9-35.4l35.4-17.9c1.8-0.9,3.3-2.3,4.2-4.2C538.3,190.5,536.4,184.8,531.7,182.4z M484.8,201.7
				c-1.9,1-3.3,2.5-4.2,4.2l-10.7,21.3l-10.7-21.3c-1-1.9-2.5-3.3-4.2-4.2l-21.3-10.7l21.3-10.7c1.9-1,3.3-2.5,4.2-4.2l10.7-21.3
				l10.7,21.3c1,1.9,2.5,3.3,4.2,4.2l21.3,10.7L484.8,201.7z"/>
			<path class="st1" d="M506.1,190.9l-21.3,10.7c-1.9,1-3.3,2.5-4.2,4.2l-10.7,21.3l-10.7-21.3c-1-1.9-2.5-3.3-4.2-4.2l-21.3-10.7
				l21.3-10.7c1.9-1,3.3-2.5,4.2-4.2l10.7-21.3l10.7,21.3c1,1.9,2.5,3.3,4.2,4.2L506.1,190.9z"/>
		</g>
	</g>
</g>
</svg>
