<?xml version="1.0" encoding="utf-8"?>
<!-- Generator: Adobe Illustrator 19.2.1, SVG Export Plug-In . SVG Version: 6.00 Build 0)  -->
<svg version="1.1" id="Capa_1" xmlns="http://www.w3.org/2000/svg" xmlns:xlink="http://www.w3.org/1999/xlink" x="0px" y="0px"
	 viewBox="0 0 378.2 378.2" style="enable-background:new 0 0 378.2 378.2;" xml:space="preserve">
<style type="text/css">
	.st0{fill:#0C3B5D;}
	.st1{fill:#FCD614;}
</style>
<g>
	<g>
		<path class="st0" d="M232.5,176.5c0.9-1.2,1.7-2.5,2.5-3.7c0.2-0.3,0.4-0.6,0.6-0.9c-0.2,0.3-0.4,0.6-0.6,0.9
			C234.3,174.1,233.4,175.3,232.5,176.5z M240,163c0.4-1.1,0.8-2.3,1.2-3.4C240.8,160.8,240.5,161.9,240,163z M242.1,156.4
			c0.3-1,0.5-2.1,0.6-3.1C242.5,154.3,242.3,155.4,242.1,156.4z"/>
		<path class="st0" d="M339.8,147C339.8,147,339.8,147,339.8,147l-29.7-24.1V92c0-2-0.8-3.9-2.2-5.3L223.5,2.2
			c-1.4-1.4-3.3-2.2-5.3-2.2H75.5C71.4,0,68,3.4,68,7.5v115.6c-0.3,0.2-0.7,0.4-1,0.7l-28.6,23.2c0,0,0,0,0,0
			c-8.2,6.6-12.9,16.3-12.9,26.8v170.1c0,18.9,15.4,34.3,34.3,34.3h258.7c18.9,0,34.3-15.4,34.3-34.3V173.8
			C352.8,163.3,348,153.5,339.8,147z M310.2,142.2l12.8,10.4l-12.8,9.7V142.2z M225.7,25.6l58.9,58.9h-58.9V25.6z M83,15h127.7v77
			c0,4.1,3.4,7.5,7.5,7.5h77v74.2l-106.1,80.6L83,173.7V15z M68,142.2v20l-12.8-9.7L68,142.2z M40.5,343.9V173.8c0-4,1.2-7.8,3.5-11
			l132.2,100.5l-134,88.6C41.1,349.4,40.5,346.7,40.5,343.9z M318.5,363.2H59.8c-2.1,0-4.2-0.4-6.1-1l135.4-89.5l135.5,89.5
			C322.6,362.8,320.6,363.2,318.5,363.2z M337.8,343.9c0,2.8-0.6,5.5-1.7,7.9l-134-88.6l132.2-100.5c2.2,3.2,3.5,7,3.5,11V343.9z"/>
		<path class="st1" d="M218.2,99.5c-4.1,0-7.5-3.4-7.5-7.5V15H83v158.7l106.1,80.6l106.1-80.6V99.5H218.2z M242.7,153.3
			c-0.1,1-0.3,2-0.6,3.1c-0.1,0.5-0.3,1.1-0.4,1.6c-0.1,0.5-0.3,1.1-0.5,1.6c-0.3,1.1-0.7,2.2-1.2,3.4c-0.3,0.8-0.7,1.7-1.1,2.6v0
			c-0.3,0.6-0.5,1.2-0.8,1.8c-0.1,0.3-0.3,0.6-0.5,0.9c-0.3,0.6-0.6,1.2-1,1.8c0,0,0,0,0,0c-0.3,0.6-0.7,1.2-1.1,1.8c0,0,0,0,0,0
			c-0.2,0.3-0.4,0.6-0.6,0.9c-0.8,1.2-1.6,2.5-2.5,3.7c-0.3,0.4-0.6,0.8-0.9,1.2c-0.6,0.8-1.2,1.6-1.9,2.4c-0.3,0.4-0.7,0.8-1,1.2
			c-0.7,0.8-1.4,1.6-2.1,2.4c-0.7,0.8-1.5,1.6-2.3,2.3c-8.1,8.2-18.7,15.9-31.7,23c-1.1,0.6-2.4,0.9-3.6,0.9c-1.2,0-2.5-0.3-3.6-0.9
			c-19.8-10.8-34-23-42.3-36.2c-9.4-15-9-27.5-7-35.4c1.6-6.2,4.6-11.6,8.7-15.8c0.3-0.3,0.6-0.6,1-1c5.8-5.6,13.5-9,21.7-9
			c8,0,15.4,3.2,21.5,9.1c6.1-5.9,13.5-9.1,21.5-9.1c14.6,0,27.5,10.6,31.4,25.7C243,141.5,243.7,147,242.7,153.3z"/>
		<path class="st0" d="M242,137.4c-3.9-15.2-16.8-25.7-31.4-25.7c-8,0-15.4,3.2-21.5,9.1c-6-5.9-13.5-9.1-21.5-9.1
			c-8.2,0-15.9,3.4-21.7,9c-0.3,0.3-0.7,0.6-1,1c-4.1,4.2-7.1,9.6-8.7,15.8c-2,7.9-2.4,20.5,7,35.4c8.3,13.3,22.5,25.5,42.3,36.2
			c1.1,0.6,2.4,0.9,3.6,0.9c1.2,0,2.5-0.3,3.6-0.9c13-7.1,23.6-14.8,31.7-23c0.8-0.8,1.5-1.6,2.3-2.3c0.7-0.8,1.4-1.6,2.1-2.4
			c0.3-0.4,0.7-0.8,1-1.2c0.7-0.8,1.3-1.6,1.9-2.4c0.3-0.4,0.6-0.8,0.9-1.2c0.9-1.2,1.7-2.5,2.5-3.7c0.2-0.3,0.4-0.6,0.6-0.9
			c0,0,0,0,0,0c0.4-0.6,0.7-1.2,1.1-1.8c0,0,0,0,0,0c0.3-0.6,0.7-1.2,1-1.8c0.2-0.3,0.3-0.6,0.5-0.9c0.3-0.6,0.6-1.2,0.8-1.8v0
			c0.4-0.9,0.8-1.7,1.1-2.6c0.4-1.1,0.8-2.3,1.2-3.4c0.2-0.5,0.3-1.1,0.5-1.6c0.2-0.5,0.3-1.1,0.4-1.6c0.3-1,0.5-2.1,0.6-3.1
			C243.7,147,243,141.5,242,137.4z M189.1,193.9c-41.8-24.1-40-46.4-38.3-52.8c2.1-8.4,9.2-14.4,16.8-14.4c5.8,0,11.1,3.6,15.1,10
			c1.4,2.2,3.8,3.6,6.4,3.6c1.3,0,2.6-0.3,3.7-1c1.1-0.6,2-1.5,2.7-2.7c3.9-6.5,9.3-10,15.1-10c7.6,0,14.7,6.1,16.9,14.4
			C229.1,147.5,231,169.8,189.1,193.9z"/>
	</g>
</g>
</svg>
