<?xml version="1.0" encoding="utf-8"?>
<!-- Generator: Adobe Illustrator 19.0.0, SVG Export Plug-In . SVG Version: 6.00 Build 0)  -->
<svg version="1.1" id="Capa_1" xmlns="http://www.w3.org/2000/svg" xmlns:xlink="http://www.w3.org/1999/xlink" x="0px" y="0px"
	 viewBox="-126 218.2 357.8 357.8" style="enable-background:new -126 218.2 357.8 357.8;" xml:space="preserve">
<style type="text/css">
	.st0{fill:#FFBBD2;}
	.st1{fill:#0D3C5E;}
</style>
<g>
	<path class="st0" d="M-6.8,506.2c-2.2-8.5-9.4-14.7-17.2-14.7c-5.9,0-11.4,3.6-15.4,10.2c-1.4,2.2-3.8,3.6-6.4,3.6h0
		c-2.6,0-5.1-1.4-6.4-3.6c-4-6.6-9.5-10.2-15.4-10.2c-7.8,0-15,6.2-17.2,14.7c-1.7,6.5-3.6,29.2,39,53.7
		C-3.2,535.4-5.1,512.7-6.8,506.2z"/>
	<path class="st0" d="M190.5,469.5c-2.2-8.5-9.4-14.7-17.2-14.7c-5.9,0-11.4,3.6-15.4,10.2c-1.4,2.2-3.8,3.6-6.4,3.6h0
		c-2.6,0-5.1-1.4-6.4-3.6c-4-6.6-9.5-10.2-15.4-10.2c-7.8,0-15,6.2-17.2,14.7c-1.7,6.5-3.6,29.2,39,53.7
		C194.1,498.7,192.2,476,190.5,469.5z"/>
	<g id="XMLID_1_">
		<g>
			<path class="st1" d="M206.2,474.4c0.2,7.4-1.6,16.7-8.2,27.2c-8.4,13.4-22.9,25.8-42.9,36.7c-1.1,0.6-2.4,0.9-3.6,0.9
				c-1.2,0-2.5-0.3-3.6-0.9c-20-10.9-34.5-23.3-42.9-36.7c-9.5-15.2-9.1-27.9-7-35.8c3.9-15.3,17-26,31.7-26
				c8.1,0,15.7,3.3,21.8,9.3c6.1-6,13.7-9.3,21.8-9.3c6.5,0,12.7,2.1,17.9,5.7V315.6L9,396.6v114.6c0.2,7.4-1.6,16.7-8.2,27.2
				c-8.4,13.4-22.9,25.8-42.9,36.7c-1.1,0.6-2.3,0.9-3.6,0.9c-1.2,0-2.5-0.3-3.6-0.9c-20-10.9-34.5-23.3-42.9-36.7
				c-9.5-15.2-9.1-27.9-7-35.8c3.9-15.3,17-26,31.7-26c8.1,0,15.6,3.3,21.8,9.3c6.1-6,13.7-9.3,21.8-9.3c6.5,0,12.7,2.1,17.9,5.7
				V313.8c0,0,0,0,0,0c-0.1-2.9,1.6-5.7,4.4-7l197.3-87.9c3.8-1.7,8.2,0,9.9,3.8c0.6,1.5,0.6,3,0.6,3.1V474.4z M191.2,299.2v-61.9
				L9,318.4v61.7L191.2,299.2z M151.5,523.2c42.6-24.5,40.6-47.2,39-53.7c-2.2-8.5-9.4-14.7-17.2-14.7c-5.9,0-11.4,3.6-15.4,10.2
				c-0.7,1.1-1.6,2-2.7,2.6c-1.1,0.6-2.4,1-3.7,1c-2.6,0-5.1-1.4-6.4-3.6c-4-6.6-9.5-10.2-15.4-10.2c-7.8,0-15,6.2-17.2,14.7
				C110.9,476,109,498.7,151.5,523.2z M-45.8,559.9c42.6-24.5,40.7-47.2,39-53.7c-2.2-8.5-9.4-14.7-17.2-14.7
				c-5.9,0-11.4,3.6-15.4,10.3c-0.7,1.1-1.6,2-2.7,2.7c-1.1,0.6-2.4,1-3.7,1c-2.6,0-5.1-1.4-6.4-3.6c-4-6.6-9.5-10.3-15.4-10.3
				c-7.8,0-15,6.2-17.2,14.7C-86.4,512.7-88.3,535.4-45.8,559.9z"/>
		</g>
		<g>
		</g>
	</g>
</g>
</svg>
