<?xml version="1.0" encoding="utf-8"?>
<!-- Generator: Adobe Illustrator 19.0.0, SVG Export Plug-In . SVG Version: 6.00 Build 0)  -->
<svg version="1.1" id="Capa_1" xmlns="http://www.w3.org/2000/svg" xmlns:xlink="http://www.w3.org/1999/xlink" x="0px" y="0px"
	 viewBox="-119 211.9 371.1 371.1" style="enable-background:new -119 211.9 371.1 371.1;" xml:space="preserve">
<style type="text/css">
	.st0{fill:#FFBBD2;}
	.st1{fill:#0D3C5E;}
</style>
<g>
	<path class="st0" d="M20.5,315.4c6.1-18.7,18.7-34.2,33.2-46.8c-15.3-10.5-30.5-17.4-41.8-21.6c4,10.2,6.5,24,1.1,39.7
		c-1.1,3.2-2.6,6.8-4.3,10.5C3.6,309-2.8,323.8-2.8,343.7c0,14.3,4.4,25.9,13.1,34.5c5.6,5.6,12.4,9.4,19.2,12.1
		c-2.1-2.5-4.2-5.5-6.1-9C16.3,368.7,10.1,347.1,20.5,315.4z"/>
	<path class="st0" d="M122.2,380.7c8.3-8.9,11.9-21,10.8-35.8c-1.4-19.1-6.3-27.6-11.4-36.7c-2.7-4.7-5.4-9.6-7.6-15.7
		c-5.9-16.7-3-32.4,1.4-44c-25.2,11.1-68.7,35.1-80.6,71.6c-16.1,49.6,13.7,68.2,15,68.9c0.2,0.1,0.3,0.2,0.4,0.3
		c6.9,4.7,18,7.6,29.7,7.6C97.3,396.8,112.7,390.9,122.2,380.7z"/>
	<path class="st0" d="M66,258.9c9.8-7,19.9-12.9,29-17.6l-15.4-13.7c-19.9,5.5-32.5,11.2-39.8,15.2c8.1,4.2,17,9.3,25.8,15.7
		C65.8,258.7,65.9,258.8,66,258.9z"/>
	<g id="XMLID_1_">
		<g>
			<path class="st1" d="M159.7,468.9c1.2,2.2,1.3,4.8,0.2,7c-19.9,40.5-42.4,61.1-66.9,61.1c-7.2,0-13.3-1.9-18.1-4.1v42.7
				c0,4.1-3.3,7.5-7.5,7.5c-4.1,0-7.5-3.4-7.5-7.5v-68.1c-5,2.6-11.7,5-19.8,5c0,0,0,0,0,0c-24.5,0-47-20.5-66.9-61
				c-1.1-2.2-1-4.8,0.2-7c1.2-2.2,3.4-3.6,5.9-3.8c7.2-0.7,14.1-1,20.6-1c27.7,0,47.9,6.1,60,18.3v-46.7
				c-13.7-0.3-41.3-3.4-60.3-22.2c-11.6-11.6-17.5-26.8-17.5-45.2c0-23,7.4-40.1,12.8-52.5c1.6-3.6,2.9-6.7,3.8-9.4
				c8.2-24-8.7-42.5-8.8-42.7c-1.6-1.7-2.3-4.1-1.9-6.4c0.4-2.3,1.9-4.3,4-5.4c2.8-1.4,4.4-1,11.2,1c3.4,1,18.6,6.5,20.3,7.1
				c5.6-4.2,21.6-14.2,56.1-23.3c2.4-0.6,5,0,6.9,1.6l23.2,20.6c10.8-4.7,18.4-7.2,19.4-7.5c3.1-1,6.5,0.1,8.4,2.8
				c1.9,2.7,1.8,6.3-0.2,8.9c-0.2,0.2-18.1,24.1-9.3,48.8c1.8,4.9,4.1,9,6.5,13.4c5.5,9.6,11.7,20.5,13.3,43
				c1.4,18.9-3.7,35.2-14.8,47.1c-12.3,13.3-31.7,20.9-53.3,20.9c-1.7,0-3.3-0.1-5-0.1v69.2c12.3-11.1,31.9-16.7,58.4-16.7
				c6.4,0,13.3,0.3,20.6,1C156.3,465.3,158.5,466.7,159.7,468.9z M141.2,479.3c-2.7-0.1-5.4-0.2-7.9-0.2c-25.3,0-43.1,5.6-51.6,16.3
				c-6.2,7.8-6.2,16.5-5.8,20.5c2.8,2.1,9,6,17.2,6C109.2,521.9,125.7,507.2,141.2,479.3z M122.2,380.7c8.3-8.9,11.9-21,10.8-35.8
				c-1.4-19.1-6.3-27.6-11.4-36.7c-2.7-4.7-5.4-9.6-7.6-15.7c-5.9-16.7-3-32.4,1.4-44c-25.2,11.1-68.7,35.1-80.6,71.6
				c-16.1,49.6,13.8,68.2,15,68.9c0.2,0.1,0.3,0.2,0.4,0.3c6.9,4.7,18,7.6,29.7,7.6C97.3,396.8,112.7,390.9,122.2,380.7z M95,241.3
				l-15.4-13.7c-19.9,5.5-32.5,11.2-39.8,15.2c8.1,4.2,17,9.3,25.8,15.7c0.1,0.1,0.3,0.2,0.4,0.3C75.8,251.9,85.8,246,95,241.3z
				 M57.3,491.4c0.4-4,0.4-12.7-5.8-20.5c-8.5-10.7-26.4-16.4-51.7-16.4c-2.5,0-5.2,0.1-7.9,0.2c15.5,27.9,32,42.6,48.2,42.6
				c0,0,0,0,0,0C48.3,497.3,54.5,493.5,57.3,491.4z M20.5,315.4c6.1-18.6,18.7-34.2,33.2-46.8c-15.3-10.5-30.5-17.4-41.8-21.6
				c4.1,10.2,6.5,24,1.1,39.7c-1.1,3.2-2.6,6.8-4.3,10.5C3.6,309-2.8,323.8-2.8,343.7c0,14.3,4.4,25.9,13.1,34.5
				c5.6,5.6,12.4,9.4,19.2,12.1c-2.1-2.5-4.2-5.5-6.1-9C16.3,368.7,10.1,347.1,20.5,315.4z"/>
		</g>
		<g>
		</g>
	</g>
</g>
</svg>
