<?xml version="1.0" encoding="utf-8"?>
<!-- Generator: Adobe Illustrator 19.0.0, SVG Export Plug-In . SVG Version: 6.00 Build 0)  -->
<svg version="1.1" id="Capa_1" xmlns="http://www.w3.org/2000/svg" xmlns:xlink="http://www.w3.org/1999/xlink" x="0px" y="0px"
	 viewBox="-101 193.3 407.7 407.7" style="enable-background:new -101 193.3 407.7 407.7;" xml:space="preserve">
<style type="text/css">
	.st0{fill:#0D3C5E;}
	.st1{fill:#FFBBD2;}
</style>
<g>
	<g id="XMLID_1_">
		<g>
			<path class="st0" d="M288.8,343.8c1,1.7,24.1,42.6,16.3,92.5c0,0.1,0,0.1,0,0.2v29c0,4.1-3.4,7.5-7.5,7.5H187.5
				c-4.1,0-7.5-3.4-7.5-7.5v-17.8c-16.6,3.5-35.6,9.8-50.9,20.9c-9.5,6.9-28.8,10.2-59.1,10.2c-58.7,0-146.4-13.2-166.5-22.7
				c-2.7-1.3-5.4-4.6-4.2-9.7c2-8.9,16.5-30.3,40.7-30.3c0.4,0,0.7,0,1.1,0c10.5,0.3,21.6,0.4,33,0.4c15.7,0,28-0.3,33.1-0.4
				l37.3-30.2c-5.9-11.2-3.7-25.5,6.1-34.4c7.9-7.1,18.8-9,28.3-5.8c1.6-9.1,5.3-20.7,14.4-28.3c3.2-2.7,7.9-2.2,10.6,1
				c2.7,3.2,2.2,7.9-1,10.6c-4.9,4.1-7.4,10.8-8.7,16.7l17.7-14.4c2.9-2.4,7.1-2.2,9.9,0.4c0.3,0.3,35.9,33.5,67,33.5
				c0.3,0,0.6,0,0.8,0c33-0.7,89.4-24.3,89.9-24.5C282.9,339.1,286.9,340.5,288.8,343.8z M291,428.1c3.3-31.8-7.1-59.5-12.4-71.1
				c-16.4,6.5-59.7,22.4-88.9,23c-30.2,0.6-61.6-23.2-73.5-33.2l-19.5,15.8l24.8,21.9c3.1,2.7,3.4,7.5,0.7,10.6
				c-1.5,1.7-3.6,2.5-5.6,2.5c-1.8,0-3.5-0.6-5-1.9l-26.8-23.5l-18,14.6l16,14.1c3.1,2.7,3.4,7.5,0.7,10.6c-1.5,1.7-3.6,2.5-5.6,2.5
				c-1.8,0-3.5-0.6-5-1.9l-18-15.8l-40.5,32.9c-1.3,1-2.9,1.6-4.5,1.7c-0.2,0-15.1,0.5-36.1,0.5c-11.5,0-22.8-0.1-33.4-0.4
				c-12.4-0.3-20.4,8.2-24.2,13.9c26.1,7.9,101,18.9,153.6,18.9c36.2,0,47.2-5.2,50.3-7.4c37.8-27.5,92.8-28.2,98.9-28.2h0.3H291z
				 M290.1,458v-14.8h-70.9c-0.9,0-10.7,0.1-24.2,1.9h0V458h0H290.1z M56.5,375.9l19.1-15.4c-4.8-2.4-10.8-1.8-15,2
				C56.7,366,55.3,371.2,56.5,375.9z"/>
			<path class="st1" d="M195,445c13.5-1.9,23.3-1.9,24.2-1.9h70.9V458H195V445z"/>
		</g>
		<g>
		</g>
	</g>
</g>
</svg>
