<?xml version="1.0" encoding="utf-8"?>
<!-- Generator: Adobe Illustrator 19.0.0, SVG Export Plug-In . SVG Version: 6.00 Build 0)  -->
<svg version="1.1" id="Capa_1" xmlns="http://www.w3.org/2000/svg" xmlns:xlink="http://www.w3.org/1999/xlink" x="0px" y="0px"
	 viewBox="-119 210.8 372.2 372.2" style="enable-background:new -119 210.8 372.2 372.2;" xml:space="preserve">
<style type="text/css">
	.st0{fill:#FFBBD2;}
	.st1{fill:#0D3C5E;}
</style>
<g>
	<path class="st0" d="M228.3,364.6c14.9-28,13.1-56.5-5.3-84.7c-1.3-2-2.6-3.9-3.9-5.7c-18.4,12-40.3,37-62.3,71.4
		c-22.7,35.5-42.5,76.2-54.2,111.8c-6.3,19.1-18.1,32.5-35,39.9c-10.9,4.8-23,6.6-34.9,6.6c-31.7,0-62.5-12.6-68.3-15.2
		c-0.4-0.2-4.1-1.7-5.6-2.3c-21.3,7.6-43.4,15.7-51.8,19.1c-10.7,4.3-10.8,15-10.8,15.5c0,10.7,14.9,14.5,15.1,14.6
		c0.2,0.1,0.5,0.1,0.7,0.2c0.3,0.1,34.2,11.5,110.1,11.5c9.3,0,19-0.2,28.8-0.5c47-1.6,52.3-20.7,61.1-52.3
		c1.3-4.8,2.7-9.7,4.3-14.8c12.5-40,61.9-83.7,64-85.5c2.2-1.9,5.4-2.4,8-1.2c2.7,1.2,4.4,3.9,4.4,6.8v138.7h13.5
		c-0.3-20-1.1-73.7,0.1-98.8c1.6-31.7,21-73,21.8-74.8C228.1,364.8,228.2,364.7,228.3,364.6z"/>
	<g id="XMLID_1_">
		<g>
			<path class="st1" d="M235.5,271.8c21.3,32.6,23.4,67,6.1,99.8c-1.2,2.6-18.9,41.1-20.3,68.9c-1.5,30,0,104.7,0,105.4
				c0,2-0.7,4-2.1,5.4c-1.4,1.4-3.3,2.3-5.4,2.3h-28.6c-4.1,0-7.5-3.4-7.5-7.5V417.4c-15.1,15.2-39.5,42.5-47.1,66.9
				c-1.5,4.9-2.9,9.7-4.2,14.4c-8.8,31.5-17.1,61.3-75.1,63.3c-10,0.4-19.8,0.5-29.3,0.5c-75.4,0-110.5-10.8-114.7-12.2
				c-9.9-2.5-26.2-11.3-26.2-29.1c0-10.5,6.2-23.7,20.2-29.4c6.5-2.6,20.6-7.8,36.2-13.5c-3.5-3-6.1-6.8-7.4-11.2
				c-2-6.9-0.7-14.5,3.7-20.9c4.1-6,10.6-10.5,18.1-12.8c3.3-1,6.6-1.5,9.9-1.5c12.8,0,23.5,7.2,26.7,17.9c1,3.3,1.1,6.6,0.6,9.9
				c7.2-2.5,12-4.2,12.8-4.5c1.9-0.7,4-0.5,5.8,0.3c0.1,0,12,5.7,24.9,5.7h0c16.8,0,27.2-9.3,31.7-28.5
				c6.4-27.5,24.1-66.5,47.3-104.4c25.2-41.1,52.9-75,78.1-95.3c2.6-2.1,6.3-2.2,9-0.3C199.3,233.4,219.8,247.7,235.5,271.8z
				 M228.3,364.6c14.9-28,13.1-56.5-5.3-84.7c-1.3-2-2.6-3.9-3.9-5.7c-18.4,12-40.3,37-62.3,71.4c-22.7,35.5-42.5,76.3-54.2,111.8
				c-6.3,19.1-18.1,32.5-35,39.9c-10.9,4.8-23,6.6-34.9,6.6c-31.7,0-62.5-12.6-68.3-15.2c-0.4-0.2-4.1-1.6-5.6-2.3
				c-21.3,7.6-43.4,15.7-51.8,19.1c-10.7,4.3-10.8,15-10.8,15.5c0,10.7,14.9,14.5,15.1,14.6c0.3,0.1,0.5,0.1,0.7,0.2
				c0.3,0.1,34.2,11.5,110.1,11.5c9.3,0,19-0.2,28.8-0.5c47-1.6,52.3-20.7,61.1-52.3c1.3-4.8,2.7-9.7,4.3-14.8
				c12.6-40,61.9-83.7,64-85.5c2.2-2,5.4-2.4,8-1.2c2.7,1.2,4.4,3.9,4.4,6.8v138.7h13.5c-0.3-20-1.1-73.8,0.1-98.8
				c1.6-31.7,21-73,21.8-74.8C228.1,364.8,228.2,364.7,228.3,364.6z M209.4,262.7c-5.9-6.4-11.4-11.2-15-14.2
				C144.2,291.9,90.8,385,78.8,436.2c-6,25.8-22.5,40.1-46.3,40.1h0c-12.2,0-23.3-3.8-28.5-5.9c-4.3,1.5-13.1,4.6-23.9,8.5
				c17.9,6.3,54.8,16.5,81.4,4.8c13-5.7,21.7-15.8,26.7-30.9c12.2-36.7,32.5-78.7,55.8-115.2C166.5,302.4,189.4,276.3,209.4,262.7z
				 M-37.7,469.2c8-2.4,13.4-9.3,11.7-15.1c-1.3-4.3-6.2-7.2-12.3-7.2c-1.9,0-3.8,0.3-5.7,0.8c-4.2,1.2-7.8,3.7-10,6.9
				c-1.1,1.6-2.7,4.7-1.7,8.2c1.3,4.3,6.2,7.2,12.3,7.2C-41.5,470-39.6,469.7-37.7,469.2z"/>
		</g>
		<g>
		</g>
	</g>
</g>
</svg>
