<?xml version="1.0" encoding="utf-8"?>
<!-- Generator: Adobe Illustrator 19.0.0, SVG Export Plug-In . SVG Version: 6.00 Build 0)  -->
<svg version="1.1" id="Capa_1" xmlns="http://www.w3.org/2000/svg" xmlns:xlink="http://www.w3.org/1999/xlink" x="0px" y="0px"
	 viewBox="-121 212.3 368.7 368.7" style="enable-background:new -121 212.3 368.7 368.7;" xml:space="preserve">
<style type="text/css">
	.st0{fill:#0D3C5E;}
	.st1{fill:#FFBBD2;}
</style>
<g>
	<g id="XMLID_1_">
		<g>
			<path class="st0" d="M238.3,265.1c4,1.2,6.3,5.3,5.1,9.3c-1.2,4-5.3,6.3-9.3,5.1L199,269.2l-44.3,107.7l23.1,17.1
				c1.6,1.2,2.7,3,3,5c0.3,2-0.3,4-1.5,5.6L70.8,543.2v30.3c0,4.1-3.4,7.5-7.5,7.5s-7.5-3.4-7.5-7.5v-30.3L-52.6,404.7
				c-1.2-1.6-1.8-3.6-1.5-5.6c0.3-2,1.3-3.8,3-5l23.1-17.1l-44.3-107.7l-35.1,10.3c-4,1.2-8.2-1.1-9.3-5.1c-1.2-4,1.1-8.1,5.1-9.3
				l111-32.5v-12.8c0-2.5,1.2-4.8,3.3-6.2c2-1.4,4.7-1.7,7-0.8c0,0,43.6,17.2,43.9,17.4c3-1.3,6.4-2,9.9-2s6.8,0.7,9.9,2
				c0.3-0.2,43.9-17.4,43.9-17.4c2.3-0.9,4.9-0.6,7,0.8c2.1,1.4,3.3,3.7,3.3,6.2v12.5L238.3,265.1z M138.6,376.6L184.6,265h0
				l-49-14.3l-8.3,37.2l-0.6,2.5L77.9,509.9l84.8-108.4l-21.6-16C138.4,383.4,137.3,379.8,138.6,376.6z M112.3,276.5v-45.6
				l-26.8,10.5c0.1,0.2,0.3,0.5,0.4,0.7c0.2,0.5,0.5,0.9,0.7,1.4c0.9,2.2,1.6,4.5,1.9,6.9c0.1,1.1,0.2,2.2,0.2,3.3
				c0,4.4-1.1,8.6-3.2,12.3L112.3,276.5z M63.3,506.1l47.7-214l-36.8-14.5c-0.3-0.1-0.7-0.3-1-0.5c-3,1.3-6.4,2-9.9,2
				s-6.8-0.7-9.9-2c-0.3,0.2-0.6,0.3-1,0.5l-36.8,14.5L63.3,506.1z M73.8,253.6c0-5.7-4.7-10.4-10.4-10.4c-5.8,0-10.4,4.7-10.4,10.4
				c0,5.7,4.7,10.4,10.4,10.4C69.1,264.1,73.8,259.4,73.8,253.6z M48.8,509.9L-8.9,250.7l-49,14.3l45.9,111.6
				c0.1,0.2,0.2,0.5,0.3,0.7c0.1,0.5,0.2,1,0.3,1.4c0.1,1.1,0,2.2-0.4,3.3c-0.1,0.3-0.2,0.5-0.3,0.8c-0.1,0.3-0.3,0.5-0.4,0.8
				c-0.5,0.7-1.1,1.4-1.8,1.9l-21.6,16L48.8,509.9z M37.9,253.6c0-4.4,1.2-8.6,3.2-12.3l-26.7-10.5v45.6l26.7-10.5
				C39.1,262.3,37.9,258.1,37.9,253.6z"/>
			<path class="st1" d="M184.6,265l-45.9,111.6c-1.3,3.2-0.3,6.8,2.5,8.9l21.6,16L77.9,509.9l48.9-219.5c0.3-0.8,0.5-1.6,0.6-2.5
				l8.3-37.2L184.6,265z"/>
			<path class="st1" d="M112.3,230.8v45.6l-26.8-10.5c2-3.6,3.2-7.8,3.2-12.3c0-1.1-0.1-2.2-0.2-3.3c-0.3-2.4-1-4.7-1.9-6.9
				c-0.2-0.5-0.4-0.9-0.7-1.4c-0.1-0.2-0.3-0.5-0.4-0.7L112.3,230.8z"/>
			<path class="st0" d="M68.7,305c1.4,1.4,2.2,3.3,2.2,5.3c0,2-0.8,3.9-2.2,5.3c-1.4,1.4-3.3,2.2-5.3,2.2c-2,0-3.9-0.8-5.3-2.2
				c-1.4-1.4-2.2-3.3-2.2-5.3c0-2,0.8-3.9,2.2-5.3c1.4-1.4,3.3-2.2,5.3-2.2C65.3,302.8,67.3,303.6,68.7,305z"/>
			<path class="st0" d="M68.7,359.4c1.4,1.4,2.2,3.3,2.2,5.3c0,2-0.8,3.9-2.2,5.3c-1.4,1.4-3.3,2.2-5.3,2.2c-2,0-3.9-0.8-5.3-2.2
				c-1.4-1.4-2.2-3.3-2.2-5.3c0-2,0.8-3.9,2.2-5.3c1.4-1.4,3.3-2.2,5.3-2.2C65.3,357.2,67.3,358,68.7,359.4z"/>
			<path class="st0" d="M68.7,413.8c1.4,1.4,2.2,3.3,2.2,5.3s-0.8,3.9-2.2,5.3c-1.4,1.4-3.3,2.2-5.3,2.2c-2,0-3.9-0.8-5.3-2.2
				c-1.4-1.4-2.2-3.3-2.2-5.3s0.8-3.9,2.2-5.3c1.4-1.4,3.3-2.2,5.3-2.2C65.3,411.6,67.3,412.4,68.7,413.8z"/>
			<path class="st1" d="M-8.9,250.7l57.7,259.2L-36,401.5l21.6-16c0.7-0.5,1.3-1.2,1.8-1.9c0.2-0.2,0.3-0.5,0.4-0.8
				c0.1-0.3,0.2-0.5,0.3-0.8c0.4-1,0.5-2.1,0.4-3.3c0-0.5-0.1-1-0.3-1.4c-0.1-0.2-0.2-0.5-0.3-0.7L-57.9,265L-8.9,250.7z"/>
			<path class="st1" d="M37.9,253.6c0,4.4,1.2,8.6,3.2,12.3l-26.7,10.5v-45.6l26.7,10.5C39.1,245,37.9,249.2,37.9,253.6z"/>
		</g>
		<g>
		</g>
	</g>
</g>
</svg>
