<?xml version="1.0" encoding="utf-8"?>
<!-- Generator: Adobe Illustrator 19.0.0, SVG Export Plug-In . SVG Version: 6.00 Build 0)  -->
<svg version="1.1" id="Capa_1" xmlns="http://www.w3.org/2000/svg" xmlns:xlink="http://www.w3.org/1999/xlink" x="0px" y="0px"
	 viewBox="-123 215.8 363.2 363.2" style="enable-background:new -123 215.8 363.2 363.2;" xml:space="preserve">
<style type="text/css">
	.st0{fill:#0D3C5E;}
	.st1{fill:#FFBBD2;}
</style>
<g>
	<g id="XMLID_1_">
		<g>
			<path class="st0" d="M240.3,354.3v59.9c0,4.2-3.4,7.5-7.5,7.5h-23.2v21.6c0,4.1-3.4,7.5-7.5,7.5h-75.2v29.5
				c0,4.1-3.3,7.5-7.5,7.5h-6.2l50.4,71.3c2.4,3.4,1.6,8.1-1.8,10.5c-1.3,0.9-2.8,1.4-4.3,1.4c-2.4,0-4.7-1.1-6.1-3.2l-52.6-74.4
				v70.1c0,4.1-3.4,7.5-7.5,7.5s-7.5-3.4-7.5-7.5v-70.1L31,567.7c-1.5,2.1-3.8,3.2-6.1,3.2c-1.5,0-3-0.5-4.3-1.4
				c-3.4-2.4-4.2-7.1-1.8-10.5l50.4-71.3H63c-4.1,0-7.5-3.4-7.5-7.5v-29.5h-75.2c-4.2,0-7.5-3.4-7.5-7.5v-26.5h-23.4
				c-4.1,0-7.5-3.4-7.5-7.5V405l-53.8,31c-1.2,0.7-2.4,1-3.8,1s-2.6-0.3-3.8-1c-2.3-1.3-3.8-3.8-3.8-6.5v-90.6
				c0-2.7,1.4-5.1,3.8-6.5c2.3-1.3,5.2-1.3,7.5,0l53.8,31V360c0-4.1,3.4-7.5,7.5-7.5h23.4v-27.4c0-4.1,3.3-7.5,7.5-7.5H6.9
				c-10.4-9.9-16.9-23.9-16.9-39.3c0-14.5,5.6-28.2,15.9-38.5c10.3-10.3,23.9-16,38.4-16c20,0,37.5,10.8,46.9,26.8
				c2.3-3.9,5.1-7.6,8.4-10.9c10.3-10.3,23.9-16,38.4-16c30,0,54.4,24.4,54.4,54.3c0,15.5-6.5,29.5-16.9,39.4H202
				c4.1,0,7.5,3.4,7.5,7.5v21.6h23.2C236.9,346.8,240.3,350.1,240.3,354.3z M225.3,406.6v-44.9h-15.7v44.9H225.3z M194.5,435.7
				V332.6H-12.1v103.1H194.5z M138.1,317.6c21.7,0,39.4-17.7,39.3-39.4c0-21.7-17.7-39.3-39.4-39.3c-10.6,0-20.4,4.1-27.9,11.6
				c-7.4,7.5-11.5,17.3-11.5,27.9C98.7,300,116.4,317.6,138.1,317.6L138.1,317.6z M111.8,472.8v-22H70.5v22H111.8z M81.7,317.6h18.9
				c-3.7-3.5-6.9-7.5-9.4-11.9C88.6,310.1,85.4,314.1,81.7,317.6z M44.3,317.6c21.7,0,39.4-17.7,39.3-39.4
				c0-21.7-17.7-39.3-39.4-39.3c-10.6,0-20.4,4.1-27.9,11.6C9,257.9,4.9,267.8,4.9,278.3C4.9,300,22.6,317.6,44.3,317.6L44.3,317.6z
				 M-27.1,401.7v-34.2H-43v34.2H-27.1z M-58,387.6v-6.9l-50-28.9v64.7L-58,387.6z"/>
			<rect x="209.5" y="361.8" class="st1" width="15.7" height="44.9"/>
			<rect x="70.5" y="450.7" class="st1" width="41.3" height="22"/>
			<rect x="-43" y="367.5" class="st1" width="15.9" height="34.2"/>
			<polygon class="st1" points="-58,380.7 -58,387.6 -108,416.5 -108,351.8 			"/>
		</g>
		<g>
		</g>
	</g>
</g>
</svg>
