<?xml version="1.0" encoding="utf-8"?>
<!-- Generator: Adobe Illustrator 19.0.0, SVG Export Plug-In . SVG Version: 6.00 Build 0)  -->
<svg version="1.1" id="Capa_1" xmlns="http://www.w3.org/2000/svg" xmlns:xlink="http://www.w3.org/1999/xlink" x="0px" y="0px"
	 viewBox="-94 186.1 421.9 421.9" style="enable-background:new -94 186.1 421.9 421.9;" xml:space="preserve">
<style type="text/css">
	.st0{fill:#FFBBD2;}
	.st1{fill:#0D3C5E;}
	.st2{fill:#FFFFFF;}
</style>
<g>
	<g id="XMLID_1_">
		<g>
			<path class="st0" d="M244.8,415.4c-0.4,0.2-0.8,0.3-1.1,0.5c-0.9,0.4-1.7,0.8-2.5,1.2c-0.4,0.2-0.8,0.5-1.2,0.7
				c0,0-0.1,0.1-0.1,0.1c-1.6,0.9-2.9,1.9-4.2,2.9c-0.6,0.5-1.3,1.1-1.9,1.6c0,0-0.1,0.1-0.1,0.1c-1.8,1.6-3.4,3.2-4.9,4.8
				c0,0-0.1,0.1-0.1,0.1c-5.6,5.5-9.4,9.6-18,9.6c-8.6,0-12.6-4-18.1-9.7c-4.2-4.1-8.9-9-15.9-11.9H244.8z"/>
			<path class="st0" d="M235.7,420.8c1.3-1.1,2.6-2,4.2-2.9C238.3,418.7,237,419.8,235.7,420.8z"/>
			<path class="st1" d="M243.7,415.9c0.3-0.2,0.7-0.3,1.1-0.5h0.1c-0.4,0.2-0.9,0.4-1.3,0.6c-0.9,0.4-1.7,0.8-2.5,1.2
				c-0.4,0.2-0.8,0.5-1.2,0.7c-1.5,0.9-2.9,1.9-4.3,3c-0.6,0.5-1.2,1-1.8,1.5c0.6-0.6,1.2-1.1,1.9-1.6c1.3-1,2.6-2,4.2-2.9
				c0,0,0.1,0,0.1-0.1c0.4-0.2,0.8-0.5,1.2-0.7C242,416.6,242.8,416.3,243.7,415.9z"/>
			<path class="st0" d="M204.1,523.5c-13.2,7.8-36.4,14.7-66.9,16.9c-0.1,0-0.1,0-0.1,0c-1.9,0-3.6,0.6-4.9,1.8
				c-0.1,0.1-0.3,0.3-0.4,0.4c-0.2,0.1-0.3,0.3-0.4,0.4c0,0,0,0-0.1,0.1c0,0-0.1,0.1-0.1,0.1c-0.1,0.2-0.3,0.4-0.4,0.6
				c-0.3,0.4-0.5,0.8-0.7,1.3c-0.4,0.9-0.6,1.9-0.6,2.9v22.3c0,2.4,1.1,4.6,3,6l22,16.6H79.3l22-16.6c1.9-1.4,3-3.6,3-6V548
				c0-4.1-3.4-7.5-7.5-7.5h-0.1c-30.8-2.2-53.9-9.2-67.1-17H204.1z"/>
			<path class="st0" d="M159.4,329.6h43.2c-5.6,3.1-9.1,8.4-12,12.7c-4.1,6.1-6.1,8.6-9.7,8.7c-3.6-0.1-5.6-2.6-9.7-8.7
				C168.3,338.1,164.8,332.8,159.4,329.6z"/>
			<path class="st1" d="M192.6,427.3c5.5,5.7,9.5,9.7,18.1,9.7c8.6,0,12.4-4.1,18-9.6c-5.5,5.7-9.5,9.7-18.1,9.7
				c-8.6,0-12.5-4.1-18.1-9.7c-4.1-4.3-8.9-9.2-16.1-12h0.3C183.7,418.3,188.4,423.1,192.6,427.3z"/>
			<path class="st0" d="M159.4,329.6c5.4,3.1,8.9,8.4,11.8,12.7c4.1,6.1,6.1,8.6,9.7,8.7c0,0-0.1,0-0.1,0c-3.6,0-5.7-2.5-9.8-8.7
				c-2.7-4.3-6.2-9.6-11.8-12.7H159.4z"/>
			<rect x="158.7" y="264.5" class="st0" width="0.1" height="10.9"/>
			<rect x="75.2" y="264.5" class="st0" width="83.5" height="10.9"/>
			<polygon class="st0" points="154.6,593 79.2,593 79.3,593 154.5,593 			"/>
			<path class="st0" d="M144,344.3c-0.5,0.5-0.9,1.1-1.4,1.7c-0.2,0.2-0.3,0.4-0.5,0.6c-0.7,1-1.4,1.9-2.1,2.9
				C141.6,347.1,142.8,345.5,144,344.3z"/>
			<path class="st0" d="M95.2,329.6h43.4c-5.5,3.1-9.1,8.4-11.9,12.7c-0.3,0.4-0.5,0.8-0.8,1.1c-0.2,0.4-0.5,0.7-0.7,1
				c-0.5,0.7-0.9,1.4-1.4,1.9c0,0,0,0.1-0.1,0.1c-0.2,0.3-0.4,0.5-0.6,0.8c0,0,0,0.1-0.1,0.1c-0.2,0.3-0.5,0.5-0.7,0.7
				c0,0.1-0.1,0.1-0.1,0.2c-0.1,0.1-0.3,0.3-0.4,0.4c-1.6,1.6-3.1,2.3-5,2.3c-3.6,0-5.6-2.5-9.8-8.6
				C104.3,338.1,100.7,332.8,95.2,329.6z"/>
			<path class="st0" d="M137.2,540.5c30.6-2.2,53.7-9.1,66.9-16.9h0.1C191,531.3,167.8,538.3,137.2,540.5l-0.2,0.1
				c-1.8,0-3.5,0.6-4.8,1.7C133.5,541.1,135.2,540.5,137.2,540.5C137.1,540.5,137.1,540.5,137.2,540.5z"/>
			<path class="st2" d="M91.7,206.2c2.2-3,5.5-4.9,8.9-4.9c3.8,0,7.2,2.4,9.9,6.8c1.3,2.2,3.8,3.6,6.4,3.6c1.3,0,2.6-0.4,3.7-1
				c0.1-0.1,0.3-0.2,0.4-0.3c1-0.6,1.8-1.4,2.4-2.5c0.7-1.1,1.4-2.1,2.2-2.9c0.3-0.4,0.7-0.7,1.1-1.1c2-1.8,4.2-2.7,6.6-2.7
				c5,0,9.7,4,11.1,9.6c2.4,9.2-3.7,23.7-27.4,37.6c-23.7-13.9-29.8-28.4-27.3-37.6c0.3-1.4,0.9-2.7,1.6-3.9
				C91.4,206.7,91.5,206.4,91.7,206.2z"/>
			<path class="st1" d="M116.9,248.3c23.7-13.9,29.8-28.4,27.4-37.6c-1.4-5.6-6.1-9.6-11.1-9.6c-2.4,0-4.6,0.9-6.6,2.7
				c2-1.8,4.3-2.8,6.7-2.8c5,0,9.7,4.1,11.1,9.7C146.7,220,140.6,234.5,116.9,248.3C117,248.3,117,248.3,116.9,248.3z"/>
			<path class="st0" d="M131.4,543.1c0.2-0.2,0.3-0.4,0.4-0.4c0,0-0.1,0.1-0.1,0.1C131.6,542.9,131.5,543,131.4,543.1z"/>
			<path class="st0" d="M131.3,543.3c0.1-0.2,0.3-0.3,0.5-0.5C131.6,543,131.5,543.2,131.3,543.3z"/>
			<path class="st1" d="M131.8,542.8c-0.2,0.2-0.4,0.3-0.5,0.5C131.5,543.2,131.6,543,131.8,542.8z M120.7,210.6
				c-1.1,0.7-2.4,1-3.7,1c-2.6,0-5-1.3-6.4-3.6c-2.7-4.4-6.1-6.8-9.9-6.8c-3.5,0-6.8,1.9-9,5c-0.2,0.2-0.3,0.5-0.5,0.7
				c-0.8,1.2-1.4,2.5-1.7,4c-2.3,9.1,3.8,23.6,27.4,37.5c0,0,0,0,0,0c0,0,0,0,0.1,0c23.6-13.9,29.7-28.4,27.4-37.6
				c-1.4-5.6-6.1-9.7-11.1-9.7c-2.4,0-4.7,1-6.7,2.8c-0.4,0.3-0.7,0.7-1.1,1.1c-0.8,0.9-1.6,1.9-2.3,3c-0.6,1-1.4,1.8-2.3,2.4
				C120.9,210.5,120.8,210.5,120.7,210.6z M82.1,342.6c-1.6,0.8-3.1,2.5-4.9,5.1c0.1-0.1,0.2-0.1,0.2-0.2c-0.1,0.1-0.2,0.2-0.2,0.3
				c-0.6,0.9-1.3,1.8-2,2.9C70.9,357.1,65,366,53,366s-17.9-8.9-22.2-15.3c-0.8-1.2-1.6-2.3-2.3-3.3v52.9h176.9v-52.8
				c-0.7,1-1.4,2-2.3,3.3c-4.3,6.5-10.2,15.3-22.2,15.3s-17.9-8.9-22.2-15.3c-4.1-6.1-6.1-8.7-9.8-8.7c-1.9,0-3.4,0.7-4.9,2.3
				c-0.4,0.5-0.9,1-1.4,1.6c0.4-0.6,0.9-1.1,1.4-1.7c-1.2,1.2-2.4,2.9-4,5.2c0.7-1,1.4-2,2.1-2.9c-0.6,0.9-1.3,1.9-2.1,3
				c-0.3,0.4-0.5,0.8-0.8,1.2c-4.3,6.5-10.2,15.3-22.2,15.3s-17.9-8.9-22.2-15.3c-4.1-6.1-6.1-8.7-9.8-8.7c-1.1,0-2,0.2-2.9,0.7
				c0,0-0.1,0.1-0.1,0.1C82,342.8,82.1,342.7,82.1,342.6z M29.6,523.5L29.6,523.5c13.2,7.9,36.3,14.9,67.1,17.1h0.1
				c4.1,0,7.5,3.4,7.5,7.5v22.3c0,2.4-1.1,4.6-3,6L79.2,593h0.1l-0.1,0.1h75.4l-0.1-0.1h0.2l-22.1-16.7c-1.9-1.4-3-3.6-3-6V548
				c0-1,0.2-2,0.6-2.9c0.2-0.4,0.4-0.9,0.7-1.3c0.1-0.2,0.3-0.4,0.4-0.6c0,0,0,0,0.1-0.1c0.1-0.1,0.2-0.2,0.3-0.3
				c0,0,0.1-0.1,0.1-0.1c0.1-0.1,0.3-0.3,0.4-0.4c1.3-1.1,2.9-1.7,4.8-1.7h0.1c30.7-2.2,53.9-9.2,67.1-17h-0.1
				c0.1,0,0.1-0.1,0.2-0.1H29.6z M-1.7,420.9c0.7,0.5,1.3,1.1,1.9,1.6c1.8,1.6,3.4,3.3,5,4.9c5.2,5.3,9,9.2,16.5,9.6
				c0.5,0,1,0.1,1.6,0.1c0.5,0,1,0,1.5-0.1c7.6-0.4,11.5-4.3,16.6-9.6c4.1-4.3,8.9-9.2,16.1-12h-0.1H-11c0.5,0.2,0.9,0.4,1.3,0.6
				c0,0,0,0,0.1,0c0.9,0.4,1.7,0.8,2.5,1.2c0.4,0.2,0.8,0.5,1.2,0.7C-4.5,418.7-3.1,419.7-1.7,420.9C-1.7,420.8-1.7,420.8-1.7,420.9
				z M293.9,508.6c4.1,0,7.5,3.3,7.5,7.5c0,4.1-3.4,7.5-7.5,7.5h-67.2c-13,18.6-49.1,28.3-82.1,31.5v11.6l37,27.9
				c2.6,1.9,3.6,5.3,2.6,8.4c-1,3.1-3.9,5.1-7.1,5.1H56.8c-3.2,0-6.1-2.1-7.1-5.1s0-6.4,2.6-8.4l37.1-27.9V555
				c-33-3.2-69.2-12.9-82.2-31.5H-60c-4.1,0-7.5-3.4-7.5-7.5c0-4.1,3.4-7.5,7.5-7.5h28.9V407.9c0-4.1,3.4-7.5,7.5-7.5h37.1v-78.2
				c0-4.1,3.4-7.5,7.5-7.5h39.2V257c0-4.1,3.4-7.5,7.5-7.5h25.1c-5.1-4.5-9.2-9.2-12.3-14.1c-7.5-11.9-7.1-22-5.5-28.4
				c3.1-12.3,13.7-20.9,25.6-20.9c6,0,11.7,2.2,16.4,6.3c4.7-4.1,10.4-6.3,16.3-6.3c12,0,22.5,8.6,25.6,20.9
				c1.6,6.4,2,16.4-5.5,28.4c-3.1,4.9-7.2,9.6-12.3,14.1h25.1c4.1,0,7.5,3.4,7.5,7.5v57.7h39.2c4.1,0,7.5,3.4,7.5,7.5v78.2h37.1
				c4.1,0,7.5,3.4,7.5,7.5v100.7H293.9z M250,508.6v-79.1c-4,1.6-7,4.7-10.6,8.4c-6.2,6.3-13.9,14.3-28.8,14.3
				c-14.9,0-22.6-7.9-28.8-14.3c-5.5-5.7-9.5-9.7-18.1-9.7c-8.5,0-12.5,4.1-18.1,9.7c-6.2,6.3-13.9,14.3-28.8,14.3
				s-22.6-7.9-28.8-14.3c-5.5-5.7-9.5-9.7-18.1-9.7s-12.5,4.1-18.1,9.7c-6.2,6.3-13.9,14.3-28.8,14.3s-22.6-7.9-28.8-14.3
				c-3.6-3.7-6.6-6.7-10.6-8.4v79.1H250z M244.8,415.4c0.1,0,0.1-0.1,0.2-0.1h-68.5c0.1,0,0.2,0.1,0.2,0.1h-0.3
				c7.2,2.8,12,7.7,16.1,12c5.6,5.6,9.5,9.7,18.1,9.7c8.6,0,12.6-4,18.1-9.7c0,0,0.1-0.1,0.1-0.1c1.5-1.5,3.1-3.2,4.9-4.8
				c0,0,0.1-0.1,0.1-0.1c0.6-0.5,1.2-1,1.8-1.5c1.4-1.1,2.8-2.1,4.3-3c0.4-0.2,0.8-0.5,1.2-0.7c0.8-0.4,1.6-0.8,2.5-1.2
				c0.4-0.2,0.9-0.4,1.3-0.6H244.8z M202.8,329.6h-0.2h-43.2h-0.2c5.6,3.1,9.1,8.4,11.8,12.7c4.1,6.2,6.2,8.7,9.8,8.7
				c0,0,0.1,0,0.1,0s0.1,0,0.1,0c3.6,0,5.6-2.5,9.8-8.7C193.7,338.1,197.2,332.8,202.8,329.6z M158.8,275.4v-10.9h-0.1H75.2v10.9
				h83.5H158.8z M158.7,314.6v-24.3H75.2v24.3H158.7z M149.8,415.9c0.4-0.2,0.9-0.4,1.3-0.5H82.7c3.6,1.4,6.6,3.3,9.2,5.4
				c2.6,2.1,4.8,4.4,6.9,6.6c1.1,1.1,2.2,2.2,3.2,3.2c2.1,2,4.2,3.7,6.7,4.8c2.3,1.1,4.9,1.7,8.2,1.7c0.5,0,1.1,0,1.6-0.1
				c7.6-0.5,11.4-4.3,16.5-9.6c0.3-0.3,0.5-0.5,0.8-0.8C139.5,422.8,143.8,418.6,149.8,415.9z M138.7,329.6L138.7,329.6H95.2
				c5.5,3.1,9.1,8.4,11.9,12.7c4.1,6.2,6.2,8.7,9.8,8.7c1.9,0,3.4-0.7,5-2.3c0.2-0.2,0.3-0.3,0.4-0.5c0.1-0.1,0.1-0.1,0.2-0.2
				c0.2-0.2,0.4-0.5,0.6-0.7c0,0,0,0,0.1-0.1c0.2-0.2,0.4-0.5,0.6-0.8c0,0,0-0.1,0.1-0.1c0.5-0.6,1-1.3,1.5-1.9
				c0.2-0.3,0.5-0.7,0.7-1c0.2-0.4,0.5-0.7,0.8-1.1C129.6,338.1,133.2,332.8,138.7,329.6z M74.4,329.6c0.1,0,0.1-0.1,0.2-0.1H31.3
				c0.1,0,0.1,0.1,0.2,0.1h-0.4c2.1,1.2,3.9,2.7,5.5,4.3c1.4,1.3,2.5,2.8,3.6,4.2c1.1,1.4,2,2.9,2.9,4.2c4.2,6.2,6.2,8.7,9.8,8.7
				c3.7,0,5.7-2.5,9.8-8.7c2.8-4.3,6.4-9.6,11.9-12.7H74.4z"/>
			<path class="st0" d="M135,427.4c-5.2,5.3-9,9.2-16.5,9.6C125.9,436.5,129.8,432.6,135,427.4z"/>
			<path class="st0" d="M123.1,347.3c0.2-0.2,0.4-0.5,0.6-0.8C123.6,346.8,123.3,347,123.1,347.3z"/>
			<path class="st0" d="M116.9,437.1c-3.3,0-5.9-0.6-8.2-1.7c-1.9-1.4-3.9-2.9-6.2-4.5c-0.1-0.1-0.3-0.2-0.4-0.3
				c-1-1-2.1-2.1-3.2-3.2c-2.1-2.1-4.3-4.5-7-6.6c-2.6-2.1-5.6-4-9.2-5.4h68.4c-0.5,0.2-0.9,0.4-1.3,0.5c-6.1,2.7-10.3,6.8-14,10.6
				c-0.3,0.3-0.5,0.5-0.8,0.8c-5.3,5.3-9.1,9.2-16.5,9.6C118,437,117.4,437.1,116.9,437.1z"/>
			<path class="st0" d="M116.9,351.1c-3.6,0-5.7-2.5-9.8-8.7c4.2,6.1,6.2,8.6,9.8,8.6c1.9,0,3.4-0.7,5-2.3c0.1-0.1,0.3-0.3,0.4-0.4
				c-0.1,0.2-0.3,0.4-0.4,0.5C120.3,350.4,118.8,351.1,116.9,351.1z"/>
			<path class="st1" d="M100.7,201.2c3.8,0,7.2,2.4,9.9,6.8c1.4,2.3,3.8,3.6,6.4,3.6c1.3,0,2.6-0.3,3.7-1c0.1-0.1,0.2-0.1,0.3-0.2
				c-0.1,0.1-0.2,0.2-0.4,0.3c-1.1,0.6-2.4,1-3.7,1c-2.6,0-5.1-1.4-6.4-3.6C107.8,203.7,104.4,201.3,100.7,201.2c-3.5,0.1-6.8,2-9,5
				C93.9,203.1,97.2,201.2,100.7,201.2z"/>
			<path class="st0" d="M82,342.8c-0.2,0.2-0.4,0.4-0.6,0.6c-1.3,1.3-2.7,2.7-4,4.1C79.1,345.2,80.5,343.6,82,342.8z"/>
			<path class="st0" d="M82,342.8c-1.5,0.8-2.9,2.3-4.5,4.7c-0.1,0.1-0.2,0.1-0.2,0.2c1.8-2.6,3.3-4.3,4.9-5.1
				C82.1,342.7,82,342.8,82,342.8z"/>
			<path class="st0" d="M31.5,329.6h43c-5.4,3.1-8.9,8.4-11.7,12.6c-4.1,6.2-6.2,8.7-9.8,8.7c-3.6,0-5.6-2.5-9.6-8.7
				c-0.9-1.3-1.8-2.8-2.9-4.2c-1.1-1.4-2.3-2.8-3.6-4.2C35.2,332.2,33.5,330.8,31.5,329.6z"/>
			<path class="st0" d="M57.5,415.4c-7.2,2.8-12,7.7-16.1,12c-5.2,5.4-9,9.2-16.6,9.6c7.5-0.5,11.3-4.4,16.5-9.6
				C45.4,423.1,50.3,418.1,57.5,415.4L57.5,415.4z"/>
			<path class="st0" d="M36.7,334c1.3,1.3,2.5,2.7,3.6,4.1C39.2,336.7,38,335.3,36.7,334z"/>
			<path class="st0" d="M40.3,338.1c-1.1-1.5-2.3-2.9-3.6-4.1C38,335.3,39.2,336.7,40.3,338.1z M43.3,342.3c4,6.2,6,8.7,9.6,8.7
				c3.6,0,5.7-2.5,9.8-8.7c2.9-4.3,6.3-9.5,11.7-12.6h0.2c-5.5,3.1-9.1,8.4-11.9,12.7c-4.1,6.2-6.1,8.7-9.8,8.7
				c-3.6,0-5.6-2.5-9.8-8.7c-0.9-1.3-1.8-2.8-2.9-4.2c-1.1-1.4-2.2-2.9-3.6-4.2c-1.6-1.6-3.4-3.1-5.5-4.3h0.4c2,1.2,3.8,2.6,5.3,4.2
				c1.3,1.4,2.5,2.8,3.6,4.2C41.5,339.5,42.4,341,43.3,342.3z"/>
			<path class="st0" d="M0.2,422.5c1.8,1.6,3.5,3.3,5,4.9C3.6,425.8,2,424.1,0.2,422.5z"/>
			<path class="st0" d="M-5.9,417.8c1.5,0.9,2.9,1.9,4.3,3C-3.1,419.8-4.5,418.7-5.9,417.8z"/>
			<path class="st0" d="M-5.9,417.8c1.5,0.9,2.9,2,4.3,3C-3.1,419.7-4.5,418.7-5.9,417.8z M-1.7,420.9
				C-1.7,420.8-1.7,420.8-1.7,420.9c-1.3-1.1-2.7-2.1-4.3-3c-0.4-0.2-0.8-0.5-1.2-0.7c-0.8-0.4-1.6-0.8-2.5-1.2c0,0,0,0-0.1,0
				c-0.4-0.3-0.9-0.5-1.3-0.6h68.4c-7.1,2.8-12,7.8-16.1,12c-5.3,5.3-9,9.2-16.5,9.6c-0.5,0-1,0.1-1.5,0.1c-0.5,0-1.1,0-1.6-0.1
				c-7.5-0.5-11.3-4.4-16.5-9.6c-1.5-1.6-3.2-3.3-5-4.9C-0.4,421.9-1,421.4-1.7,420.9z"/>
		</g>
		<g>
		</g>
	</g>
</g>
</svg>
