<?xml version="1.0" encoding="utf-8"?>
<!-- Generator: Adobe Illustrator 19.0.0, SVG Export Plug-In . SVG Version: 6.00 Build 0)  -->
<svg version="1.1" id="Capa_1" xmlns="http://www.w3.org/2000/svg" xmlns:xlink="http://www.w3.org/1999/xlink" x="0px" y="0px"
	 viewBox="-96 187.1 418.9 418.9" style="enable-background:new -96 187.1 418.9 418.9;" xml:space="preserve">
<style type="text/css">
	.st0{fill:#3CBCC6;}
	.st1{fill:#FFBBD2;}
	.st2{fill:#0D3C5E;}
</style>
<g>
	<g id="XMLID_1_">
		<g>
			<path class="st0" d="M143.1,240.2c-0.5,0.7-1.1,1.5-1.6,2.2C142.1,241.7,142.6,241,143.1,240.2z"/>
			<path class="st1" d="M133.9,202.1c7.1,0,13.7,5.6,15.6,13.4c0.9,3.7,1.9,12.9-6.4,24.7c-0.5,0.7-1.1,1.5-1.6,2.2
				c-5.5,7-14.2,14.7-28,22.7c-3-1.7-5.7-3.4-8.2-5.1c-0.8-0.6-1.7-1.1-2.4-1.7h0c-0.8-0.6-1.5-1.1-2.3-1.7
				c-1.9-1.4-3.6-2.7-5.2-4.1c-0.6-0.5-1.2-1.1-1.8-1.6c-0.3-0.3-0.6-0.5-0.9-0.8c-0.6-0.5-1.1-1.1-1.7-1.6
				c-0.8-0.8-1.6-1.6-2.3-2.3c-0.5-0.5-0.9-1-1.4-1.5c-0.2-0.3-0.4-0.5-0.6-0.8c-0.4-0.5-0.8-1-1.2-1.5c-1-1.2-1.9-2.5-2.6-3.6
				c-0.3-0.5-0.6-0.9-0.9-1.4c-6.3-10.4-5.4-18.5-4.5-21.9c2-7.8,8.6-13.4,15.7-13.4c5.4,0,10.3,3.2,14,9.4c1.4,2.3,3.8,3.6,6.4,3.6
				h0c2.6,0,5.1-1.4,6.4-3.6C123.6,205.3,128.4,202.1,133.9,202.1z"/>
			<path class="st2" d="M119.9,211.5c-1.4,2.2-3.8,3.6-6.4,3.6h0c-2.6,0-5.1-1.4-6.4-3.6c-3.7-6.1-8.5-9.4-14-9.4
				c-7.1,0-13.7,5.6-15.7,13.4c-0.9,3.4-1.8,11.4,4.5,21.9c0.3,0.5,0.6,0.9,0.9,1.4c0.8,1.2,1.7,2.4,2.6,3.6c0.4,0.5,0.8,1,1.2,1.5
				c0.2,0.3,0.4,0.5,0.6,0.8c0.4,0.5,0.9,1,1.4,1.5c0.7,0.8,1.5,1.6,2.3,2.3c0.5,0.5,1.1,1.1,1.7,1.6c0.3,0.3,0.6,0.5,0.9,0.8
				c0.6,0.5,1.2,1.1,1.8,1.6c1.6,1.4,3.3,2.7,5.2,4.1c0.7,0.6,1.5,1.1,2.3,1.7h0c0.8,0.6,1.6,1.1,2.4,1.7c2.5,1.7,5.2,3.4,8.2,5.1
				c13.8-8,22.6-15.7,28-22.7c0.6-0.8,1.1-1.5,1.6-2.2c8.3-11.8,7.3-21,6.4-24.7c-2-7.8-8.6-13.4-15.6-13.4
				C128.4,202.1,123.6,205.3,119.9,211.5z M256.2,409v173.4c0,13.2-14.1,23.6-32,23.6c-18,0-32-10.3-32-23.6V427.2
				c-32.5-9.1-52.4-28.2-64.3-45.7c-6.6-9.6-11.2-19.4-14.5-28.1c-3.3,8.7-7.9,18.5-14.5,28.1c-11.9,17.5-31.8,36.6-64.3,45.7v155.2
				c0,13.2-14.1,23.6-32,23.6c-18,0-32-10.3-32-23.6V409c0-71,52.1-130,120-141c-9.2-7-16.3-14.4-21.2-22.3
				c-9-14.3-8.6-26.4-6.6-33.9c3.7-14.6,16.1-24.7,30.2-24.7c7.5,0,14.6,3,20.4,8.5c5.8-5.5,12.9-8.5,20.4-8.5
				c14.1,0,26.5,10.2,30.2,24.7c1.9,7.6,2.3,19.6-6.6,33.9c-4.9,7.8-12,15.3-21.2,22.3C204.1,279,256.2,338,256.2,409z M241.2,582.4
				V553h-34v29.4c0,3.5,6.6,8.6,17,8.6S241.2,585.9,241.2,582.4z M241.2,538v-44.2h-34V538H241.2z M241.2,478.9v-46.5
				c-2.7,0.1-5.4,0.2-7.9,0.2c-9.4,0-18.1-0.7-26.1-2v48.4H241.2z M241.2,417.3V409c0-67.9-53.3-123.7-120.3-127.6v34.1
				c48.2,3.8,86.3,44.3,86.3,93.5v6.4C217.7,417.2,229.1,417.9,241.2,417.3z M192.2,411.7V409c0-40.4-30.6-73.8-69.8-78.2
				c2.1,9.9,7.1,26.7,18.2,42.8C153.5,392.2,170.7,404.9,192.2,411.7z M105.9,315.6v-34.1C39,285.3-14.3,341.1-14.3,409v8.3
				c12.2,0.5,23.5-0.1,34-2V409C19.7,359.8,57.8,319.4,105.9,315.6z M86.6,373.1c10.9-16,15.8-32.6,17.9-42.3
				c-39.2,4.5-69.8,37.8-69.8,78.2v2.7C56.4,404.9,73.7,392,86.6,373.1z M19.7,582.4V553h-34v29.4c0,3.5,6.6,8.6,17,8.6
				S19.7,585.9,19.7,582.4z M19.7,538v-44.2h-34V538H19.7z M19.7,478.9v-48.4c-8,1.3-16.7,2-26.1,2c-2.6,0-5.2-0.1-7.9-0.2v46.5
				H19.7z"/>
		</g>
		<g>
		</g>
	</g>
</g>
</svg>
