<?xml version="1.0" encoding="utf-8"?>
<!-- Generator: Adobe Illustrator 19.0.0, SVG Export Plug-In . SVG Version: 6.00 Build 0)  -->
<svg version="1.1" id="Capa_1" xmlns="http://www.w3.org/2000/svg" xmlns:xlink="http://www.w3.org/1999/xlink" x="0px" y="0px"
	 viewBox="-138 229.7 334.3 334.3" style="enable-background:new -138 229.7 334.3 334.3;" xml:space="preserve">
<style type="text/css">
	.st0{fill:#3CBCC6;}
	.st1{fill:#0D3C5E;}
	.st2{fill:#FFBBD2;}
</style>
<g>
	<g id="XMLID_1_">
		<g>
			<path class="st0" d="M102,373.7c-0.2,0.7-0.4,1.5-0.6,2.2C101.6,375.1,101.8,374.4,102,373.7z"/>
			<path class="st0" d="M100.3,379.2c0.1-0.4,0.3-0.8,0.4-1.1C100.6,378.4,100.4,378.8,100.3,379.2z"/>
			<path class="st0" d="M97.8,385c-0.4,0.8-0.8,1.6-1.2,2.4C97.1,386.6,97.4,385.8,97.8,385z"/>
			<path class="st0" d="M96.6,387.4c-0.6,1.2-1.3,2.4-2,3.7C95.3,389.9,96,388.7,96.6,387.4z"/>
			<path class="st0" d="M92.2,394.9c-3.7,5.5-8.2,11-13.5,16.2C84.1,405.8,88.6,400.4,92.2,394.9c0.6-0.8,1.1-1.7,1.6-2.5
				C93.3,393.2,92.8,394,92.2,394.9z"/>
			<path class="st1" d="M-1.5,313.1c10.9,0,20.9,4.3,29.1,12.3c0.3,0.3,0.5,0.5,0.8,0.8c0.3,0.3,0.5,0.6,0.8,0.8l0,0
				c0.3-0.3,0.5-0.6,0.8-0.8c0.3-0.3,0.5-0.5,0.8-0.8c8.2-8,18.2-12.3,29.1-12.3c19.8,0,37.7,14.7,42.6,34.9
				c1.6,6.5,2.3,15.3-0.5,25.7c-0.2,0.7-0.4,1.4-0.6,2.2c-0.2,0.7-0.5,1.5-0.7,2.2c-0.1,0.4-0.3,0.8-0.4,1.1
				c-0.7,1.9-1.5,3.9-2.4,5.8c-0.4,0.8-0.8,1.6-1.2,2.4c0,0,0,0,0,0c-0.6,1.2-1.3,2.4-2,3.7c-0.2,0.4-0.5,0.8-0.8,1.3
				c-0.5,0.8-1,1.7-1.6,2.5c-3.7,5.5-8.2,10.9-13.5,16.2c-11.6,11.5-27.1,22.3-46.2,32.1c-1.1,0.6-2.2,0.8-3.4,0.8s-2.4-0.3-3.4-0.8
				c-27.8-14.3-47.8-30.6-59.6-48.3C-47,375.1-46.7,358.5-44.2,348C-39.3,327.7-21.3,313.1-1.5,313.1z M29.2,428.1
				c42.9-23,64.8-51.4,58.7-76.6c-3.3-13.6-15.1-23.4-28-23.4c-9.5,0-18.1,5.4-24.4,15.2c-1.4,2.2-3.8,3.5-6.3,3.5s-5-1.3-6.3-3.5
				c-6.3-9.8-14.9-15.2-24.4-15.2c-13,0-24.8,9.9-28,23.4C-35.7,376.6-13.8,405.1,29.2,428.1z"/>
			<path class="st2" d="M29.2,244.7c31.2,0,59.5,12.7,80,33.2c0.6,0.6,1.3,1.3,1.9,1.9c0.6,0.7,1.3,1.3,1.9,2c1.8,2,3.6,4.1,5.3,6.2
				c3.9,5,7.4,10.3,10.5,16c1.3,2.4,2.5,4.9,3.7,7.4c1.5,3.4,2.9,6.8,4.1,10.3c3.9,11.4,5.9,23.6,5.9,36.3c0,8-2,17.6-5.9,28.5
				c0,0,0,0,0,0c-0.4,1.1-0.8,2.2-1.2,3.3c0,0,0,0,0,0c-1.5,3.9-3.2,8-5.2,12.3c0,0,0,0,0,0c-2.5,5.5-5.4,11.2-8.7,17.3
				c-0.4,0.7-0.7,1.3-1.1,2c-1.5,2.7-3.1,5.4-4.7,8.3c-0.4,0.7-0.8,1.4-1.3,2.1c-0.8,1.4-1.7,2.8-2.6,4.3
				c-7.9,12.9-17.3,26.9-28.1,41.7c-22,30.2-44.3,56.1-54.4,67.6c-5-5.7-13.1-15-22.7-26.7c-1.2-1.5-2.4-3-3.7-4.5
				c-0.6-0.8-1.3-1.5-1.9-2.3c-1.3-1.6-2.5-3.2-3.8-4.8c-1.9-2.4-3.9-5-5.9-7.5c-3.3-4.3-6.8-8.7-10.2-13.3
				c-1.4-1.8-2.8-3.7-4.1-5.6c-0.7-0.9-1.4-1.9-2.1-2.8c-13.2-18.1-24.3-34.9-33.2-50.2c-0.8-1.4-1.6-2.8-2.4-4.1
				c-1.2-2-2.3-4.1-3.3-6c-2.8-5.3-5.4-10.4-7.7-15.3c0,0,0,0,0,0c-2-4.3-3.7-8.4-5.2-12.3c0,0,0,0,0,0c-0.4-1.1-0.8-2.2-1.2-3.3
				c0,0,0,0,0,0c-3.9-11-5.9-20.5-5.9-28.5c0-12.7,2.1-24.9,5.9-36.3c1.2-3.5,2.6-6.9,4.1-10.3c1.1-2.5,2.4-5,3.7-7.4
				c3.1-5.6,6.6-11,10.5-16c1.7-2.1,3.4-4.2,5.3-6.2c0.6-0.7,1.2-1.3,1.9-2c0.6-0.6,1.3-1.3,1.9-1.9
				C-30.4,257.4-2.1,244.7,29.2,244.7z M-33.9,394.9c11.8,17.8,31.8,34,59.6,48.3c1.1,0.6,2.3,0.8,3.4,0.8s2.4-0.3,3.4-0.8
				c19.1-9.8,34.6-20.6,46.2-32.1c5.3-5.2,9.8-10.6,13.5-16.2c0.6-0.8,1.1-1.7,1.6-2.5c0.3-0.4,0.5-0.8,0.8-1.3
				c0.7-1.2,1.4-2.5,2-3.7c0,0,0,0,0,0c0.4-0.8,0.8-1.6,1.2-2.4c0.9-2,1.8-3.9,2.4-5.8c0.2-0.4,0.3-0.8,0.4-1.1
				c0.3-0.8,0.5-1.5,0.7-2.2c0.2-0.7,0.4-1.5,0.6-2.2c2.7-10.4,2-19.2,0.5-25.7c-4.9-20.2-22.8-34.9-42.6-34.9
				c-10.9,0-20.9,4.3-29.1,12.3c-0.3,0.3-0.5,0.5-0.8,0.8c-0.3,0.3-0.5,0.5-0.8,0.8c-0.3-0.3-0.5-0.6-0.8-0.8
				c-0.3-0.3-0.5-0.5-0.8-0.8c-8.2-8-18.2-12.3-29.1-12.3c-19.8,0-37.7,14.7-42.6,34.9C-46.7,358.5-47,375.1-33.9,394.9z"/>
			<path class="st1" d="M6.5,518.5c9.6,11.7,17.7,21,22.7,26.7c10.1-11.4,32.3-37.4,54.4-67.6c10.8-14.8,20.2-28.7,28.1-41.7
				c0.9-1.4,1.7-2.9,2.6-4.3c0.4-0.7,0.8-1.4,1.3-2.1c1.7-2.8,3.2-5.6,4.7-8.3c0.4-0.7,0.8-1.3,1.1-2c3.3-6,6.2-11.8,8.7-17.3
				c0,0,0,0,0,0c2-4.3,3.7-8.4,5.2-12.3c0,0,0,0,0,0c0.4-1.1,0.8-2.2,1.2-3.3c0,0,0,0,0,0c3.9-11,5.9-20.5,5.9-28.5
				c0-12.7-2.1-24.9-6-36.3c-1.2-3.5-2.6-7-4.1-10.3c-1.1-2.5-2.3-5-3.7-7.4c-3.1-5.6-6.6-11-10.5-16c-1.7-2.1-3.4-4.2-5.3-6.2
				c-0.6-0.7-1.2-1.3-1.9-2s-1.3-1.3-1.9-1.9c-20.5-20.5-48.8-33.2-80-33.2c-31.2,0-59.5,12.7-80.1,33.2c-0.6,0.6-1.3,1.3-1.9,1.9
				c-0.6,0.7-1.3,1.3-1.9,2c-1.8,2-3.6,4.1-5.3,6.2c-3.9,5-7.4,10.3-10.5,16c-1.3,2.4-2.5,4.9-3.7,7.4c-1.5,3.4-2.9,6.8-4.1,10.3
				c-3.9,11.4-6,23.6-6,36.3c0,8,2,17.6,5.9,28.5c0,0,0,0,0,0c0.4,1.1,0.8,2.2,1.2,3.3c0,0,0,0,0,0c1.5,3.9,3.2,8,5.2,12.3
				c0,0,0,0,0,0c2.3,4.9,4.8,10,7.7,15.3c1.1,2,2.2,4,3.3,6c0.8,1.4,1.5,2.7,2.4,4.1c8.9,15.3,19.9,32.1,33.2,50.2
				c0.7,0.9,1.4,1.9,2.1,2.8c1.4,1.9,2.8,3.7,4.1,5.6c3.4,4.6,6.8,9,10.2,13.3c2,2.6,4,5.1,5.9,7.5c1.3,1.6,2.6,3.2,3.8,4.8
				c0.6,0.8,1.3,1.5,1.9,2.3C4,515.5,5.3,517,6.5,518.5z M29.2,229.7c70.7,0,128.3,57.5,128.3,128.3c0,68.8-117.7,198.2-122.7,203.6
				c-1.4,1.5-3.4,2.4-5.5,2.4c-2.1,0-4.1-0.9-5.5-2.4c-5-5.5-122.7-134.8-122.7-203.6C-99.1,287.2-41.6,229.7,29.2,229.7z"/>
			<path class="st0" d="M29.2,327L29.2,327c-0.3-0.3-0.5-0.5-0.8-0.8C28.6,326.4,28.9,326.7,29.2,327z"/>
			<path class="st0" d="M28.4,326.2c-0.3-0.3-0.5-0.5-0.8-0.8C27.8,325.6,28.1,325.9,28.4,326.2z"/>
			<path class="st0" d="M2.8,514c1.2,1.5,2.5,3,3.7,4.5C5.3,517,4,515.5,2.8,514z"/>
			<path class="st0" d="M-2.9,506.9c1.3,1.6,2.6,3.2,3.8,4.8C-0.3,510.1-1.6,508.5-2.9,506.9z"/>
			<path class="st0" d="M-8.9,499.4c2,2.6,4,5.1,5.9,7.5C-4.9,504.5-6.8,501.9-8.9,499.4z"/>
			<path class="st0" d="M-19,486.1c3.4,4.6,6.9,9,10.2,13.3C-12.2,495.1-15.6,490.6-19,486.1z"/>
			<path class="st0" d="M-23.2,480.5c1.4,1.9,2.8,3.7,4.1,5.6C-20.4,484.2-21.8,482.4-23.2,480.5z"/>
			<path class="st0" d="M-50.9,277.9c-0.6,0.6-1.3,1.3-1.9,1.9C-52.2,279.2-51.5,278.5-50.9,277.9z"/>
			<path class="st0" d="M-54.6,281.8c-1.8,2-3.6,4.1-5.3,6.2C-58.2,285.9-56.5,283.8-54.6,281.8z"/>
			<path class="st0" d="M-60.8,423.4c0.8,1.4,1.6,2.7,2.4,4.1C-59.2,426.1-60,424.8-60.8,423.4z"/>
			<path class="st0" d="M-71.8,402.1c2.3,4.9,4.8,10,7.7,15.3C-67,412.1-69.5,407-71.8,402.1z"/>
			<path class="st0" d="M-70.4,304c-1.3,2.4-2.5,4.9-3.7,7.4C-72.9,308.8-71.7,306.4-70.4,304z"/>
			<path class="st0" d="M-77,389.8c1.5,3.9,3.2,8,5.2,12.3C-73.7,397.8-75.5,393.7-77,389.8z"/>
			<path class="st0" d="M-78.2,386.5c0.4,1.1,0.8,2.2,1.2,3.3C-77.4,388.7-77.8,387.6-78.2,386.5z"/>
			<path class="st0" d="M-78.1,321.6c-3.9,11.4-5.9,23.6-5.9,36.3c0,8,2,17.6,5.9,28.5c-3.9-11-5.9-20.5-5.9-28.5
				C-84.1,345.2-82,333-78.1,321.6z"/>
		</g>
		<g>
		</g>
	</g>
</g>
</svg>
