<?xml version="1.0" encoding="utf-8"?>
<!-- Generator: Adobe Illustrator 19.0.0, SVG Export Plug-In . SVG Version: 6.00 Build 0)  -->
<svg version="1.1" id="Capa_1" xmlns="http://www.w3.org/2000/svg" xmlns:xlink="http://www.w3.org/1999/xlink" x="0px" y="0px"
	 viewBox="-101 193.5 407.5 407.5" style="enable-background:new -101 193.5 407.5 407.5;" xml:space="preserve">
<style type="text/css">
	.st0{fill:#0C3B5D;}
	.st1{fill:#FFD7F9;}
	.st2{fill:#FFBBD2;}
</style>
<g>
	<g id="XMLID_1_">
		<g>
			<path class="st0" d="M242.6,275.8v317.7c0,4.1-3.3,7.5-7.5,7.5H-29.6c-4.1,0-7.5-3.4-7.5-7.5V275.8c0-1.8,0.6-3.5,1.7-4.8
				c0.9-1.2,2.1-2.2,3.4-2.7l184-74.2c2.3-1,4.9-0.7,7,0.7c2.1,1.4,3.3,3.7,3.3,6.2v67.3h72.8C239.3,268.3,242.6,271.7,242.6,275.8z
				 M227.6,586V283.3H-22.1V586H227.6z M147.3,268.3v-56.2L8.8,268.3H147.3z"/>
			<path class="st1" d="M109.3,385.8c-1.4,2.2-3.8,3.5-6.4,3.5c-1.2,0-2.4-0.3-3.4-0.8c1,0.5,2.1,0.7,3.2,0.7c2.6,0,5-1.3,6.4-3.5
				c8.7-14,20.8-21.7,34.1-21.7c5.4,0,10.6,1.3,15.5,3.5c-4.8-2.2-10-3.4-15.3-3.4C130.1,364.1,118,371.8,109.3,385.8z"/>
			<path class="st0" d="M102.6,504.3L102.6,504.3c0.1,0,0.1,0.1,0.2,0.1c86.7-47.2,82.7-94.1,79.6-107.3
				c-3.1-12.6-11.3-23-21.7-28.5c-0.7-0.4-1.3-0.7-2-1c-4.8-2.3-10.1-3.5-15.5-3.5c-13.3,0-25.4,7.7-34.1,21.7
				c-1.4,2.2-3.8,3.5-6.4,3.5c-1.1,0-2.2-0.2-3.2-0.7c-0.1,0-0.2-0.1-0.2-0.1c-1.1-0.6-2.1-1.5-2.8-2.6c-1.7-2.6-3.4-5-5.3-7.2
				c-0.6-0.7-1.3-1.4-1.9-2.1c-3.4-3.6-7.2-6.5-11.2-8.5c-0.5-0.3-1-0.5-1.5-0.7c-4.6-2.2-9.5-3.3-14.6-3.3
				c-10,0-19.6,4.4-26.9,11.6c-0.3,0.3-0.6,0.6-0.9,0.9c-0.6,0.6-1.2,1.3-1.7,1.9c-1.4,1.6-2.7,3.4-3.8,5.3c-0.9,1.5-1.8,3-2.5,4.7
				c-0.3,0.5-0.5,1.1-0.7,1.6c-0.2,0.5-0.5,1.1-0.7,1.7c-0.6,1.7-1.2,3.4-1.6,5.2c-0.3,1.1-0.6,2.6-0.8,4.2c0,0.2-0.1,0.5-0.1,0.7
				c-0.4,3.2-0.6,7.2-0.2,11.9c0,0.6,0.1,1.2,0.2,1.8c0.2,1.7,0.5,3.5,0.9,5.4c0.4,1.8,0.8,3.6,1.4,5.5c0.2,0.6,0.3,1.1,0.5,1.7
				c0.3,0.9,0.6,1.8,0.9,2.7c2.7,7.3,7,15.3,13.6,23.9c0.3,0.4,0.6,0.8,0.9,1.2c1,1.2,2,2.4,3,3.6c0.5,0.5,0.9,1.1,1.4,1.6
				s1,1.1,1.5,1.6c0.5,0.6,1,1.1,1.6,1.7c1.3,1.4,2.7,2.8,4.1,4.2c0.6,0.5,1.1,1.1,1.8,1.7c0.9,0.8,1.8,1.7,2.8,2.5
				c0.6,0.6,1.3,1.1,1.9,1.7c1,0.8,2,1.7,3,2.6c0.7,0.6,1.4,1.1,2.1,1.7c0.7,0.6,1.4,1.2,2.2,1.7c1.1,0.9,2.2,1.7,3.4,2.6
				c0.8,0.6,1.6,1.2,2.3,1.7c0.4,0.3,0.8,0.6,1.2,0.9c0.8,0.6,1.6,1.2,2.4,1.8c1,0.7,2,1.4,3,2.1c1,0.7,2.1,1.4,3.1,2.1
				c2.7,1.8,5.4,3.5,8.3,5.3c1.2,0.7,2.3,1.4,3.5,2.1c1.3,0.7,2.5,1.5,3.8,2.2C98.9,502.3,100.7,503.3,102.6,504.3z M196.8,393.3
				c3.4,13.7,3.9,35.4-12.8,61.3c-15.2,23.7-41.4,45.5-77.8,64.8c-1.1,0.6-2.3,0.9-3.5,0.9c-1.2,0-2.4-0.3-3.5-0.9
				c-36.4-19.3-62.6-41.1-77.8-64.8C4.8,428.7,5.3,406.9,8.7,393.3c6.4-25.7,29-44.3,53.6-44.3c15.5,0,29.6,7,40.5,20
				c11-13,25-20,40.5-20C167.9,349,190.4,367.6,196.8,393.3z"/>
			<path class="st1" d="M102.6,504.3L102.6,504.3c-1.9-1-3.7-2-5.5-3C98.9,502.3,100.7,503.3,102.6,504.3z"/>
			<path class="st0" d="M38,393.1c-0.3,0.5-0.6,1.1-0.8,1.7C37.4,394.3,37.7,393.7,38,393.1z M38.3,392.6c0.7-1.2,1.4-2.3,2.1-3.4
				c-0.3,0.5-0.7,1-1,1.5c0.3-0.5,0.6-0.9,0.9-1.4c0.2-0.3,0.4-0.5,0.6-0.8c0.4-0.5,0.8-1.1,1.2-1.6c0.3-0.4,0.7-0.9,1.1-1.2
				c0.3-0.3,0.6-0.6,0.9-1c0.2-0.2,0.5-0.5,0.7-0.7c4.8-4.8,10.9-8,17.5-9.3c4.1-0.8,8,1.9,8.8,6c0.8,4-1.9,7.9-5.9,8.7
				c-3.8,0.7-7.5,2.8-10.3,5.8c-0.8,0.8-1.5,1.7-2.2,2.7c-0.4,0.6-0.8,1.3-1.2,2c-0.5,0.9-0.9,1.8-1.3,2.7c-0.3,0.7-0.5,1.4-0.7,2.2
				c-0.3,1-0.5,2-0.6,3c-0.2,1.5-0.3,3.1-0.3,4.6c0,0.5,0,1,0.1,1.4v0.1c0,0.4,0.1,0.9,0.1,1.4c0,0.1,0,0.1,0,0.2
				c0,0.3,0.1,0.7,0.2,1c0.1,0.4,0.1,0.8,0.2,1.2c0.1,0.5,0.2,1,0.4,1.6c0.1,0.4,0.2,0.8,0.3,1.2c0.1,0.2,0.1,0.4,0.2,0.7
				c0.1,0.4,0.3,0.9,0.4,1.3c0.2,0.5,0.4,1.1,0.6,1.6c1.5,3.8-0.3,8.2-4.2,9.8c-0.9,0.4-1.9,0.5-2.8,0.5c-3,0-5.8-1.8-7-4.7
				c-4.5-11.2-4.8-22.6-1-32.5c0.3-0.8,0.6-1.5,1-2.3c0.3-0.7,0.7-1.5,1.1-2.2c0.2-0.3,0.3-0.6,0.5-0.9
				C38.6,392.1,38.4,392.3,38.3,392.6z"/>
			<path class="st2" d="M37.1,429.7c1.2,2.9,4,4.7,7,4.7c0.9,0,1.9-0.1,2.8-0.5c3.9-1.6,5.7-6,4.2-9.8c-0.2-0.5-0.4-1.1-0.6-1.6
				c-0.1-0.4-0.3-0.9-0.4-1.3c-0.1-0.3-0.1-0.5-0.2-0.7c-0.1-0.4-0.2-0.8-0.3-1.2c-0.2-0.6-0.3-1.1-0.4-1.6
				c-0.1-0.4-0.1-0.8-0.2-1.2c-0.1-0.3-0.2-0.7-0.2-1c0-0.1,0-0.1,0-0.2c0-0.5-0.1-1-0.1-1.4v-0.1c-0.1-0.4-0.1-0.9-0.1-1.4
				c0-1.5,0.1-3.1,0.3-4.6c0.1-1,0.3-2,0.6-3c0.2-0.8,0.4-1.5,0.7-2.2c0.4-0.9,0.8-1.8,1.3-2.7c0.4-0.7,0.8-1.4,1.2-2
				c0.7-1,1.4-1.9,2.2-2.7c2.8-3,6.5-5.1,10.3-5.8c4-0.8,6.7-4.7,5.9-8.7c-0.8-4.1-4.7-6.8-8.8-6c-6.6,1.3-12.7,4.5-17.5,9.3
				c-0.2,0.2-0.5,0.5-0.7,0.7c-0.3,0.3-0.6,0.6-0.9,1c-0.4,0.4-0.7,0.8-1.1,1.2c-0.4,0.5-0.8,1.1-1.2,1.6c-0.2,0.3-0.4,0.5-0.6,0.8
				c-0.3,0.5-0.6,0.9-0.9,1.4c-0.2,0.4-0.5,0.7-0.7,1.1c-0.2,0.3-0.3,0.6-0.5,0.9c-0.4,0.7-0.8,1.5-1.1,2.2c-0.4,0.8-0.7,1.5-1,2.3
				C32.3,407.1,32.6,418.5,37.1,429.7z M182.2,397c3.3,13.3,7.3,60.2-79.6,107.3c-1.9-1-3.7-2-5.5-3c-1.3-0.7-2.6-1.5-3.8-2.2
				c-1.2-0.7-2.4-1.4-3.5-2.1c-2.9-1.8-5.7-3.5-8.3-5.3c-1.1-0.7-2.1-1.4-3.1-2.1c-1-0.7-1.9-1.3-2.8-2c-0.8-0.6-1.6-1.2-2.4-1.8
				c-0.4-0.3-0.8-0.6-1.2-0.9c-0.8-0.6-1.6-1.2-2.3-1.7c-1.2-0.9-2.3-1.8-3.4-2.6c-0.7-0.6-1.5-1.2-2.2-1.7
				c-0.7-0.6-1.4-1.2-2.1-1.7c-1-0.9-2-1.7-3-2.6c-0.7-0.6-1.3-1.1-1.9-1.7c-0.9-0.8-1.9-1.7-2.8-2.5c-0.6-0.6-1.2-1.1-1.8-1.7
				c-1.4-1.4-2.8-2.8-4.1-4.2c-0.5-0.6-1-1.1-1.6-1.7c-0.5-0.5-1-1.1-1.5-1.6s-1-1.1-1.4-1.6c-1.1-1.2-2.1-2.4-3-3.6
				c-0.3-0.4-0.6-0.8-0.9-1.2c-6.6-8.5-10.9-16.6-13.6-23.9c-0.3-0.9-0.6-1.8-0.9-2.7c-0.2-0.6-0.4-1.2-0.5-1.7
				c-0.6-1.9-1-3.7-1.4-5.5c-0.4-1.9-0.7-3.7-0.9-5.4c-0.1-0.6-0.1-1.2-0.2-1.8c-0.4-4.7-0.2-8.7,0.2-11.9c0-0.2,0.1-0.5,0.1-0.7
				c0.2-1.6,0.5-3.1,0.8-4.2c0.4-1.8,1-3.5,1.6-5.2c0.2-0.6,0.4-1.1,0.7-1.7c0.2-0.5,0.5-1.1,0.7-1.6c0.8-1.6,1.6-3.2,2.5-4.7
				c1.2-1.9,2.5-3.6,3.8-5.3c0.6-0.7,1.1-1.3,1.7-1.9c0.3-0.3,0.6-0.6,0.9-0.9c7.3-7.2,16.9-11.6,26.9-11.6c5,0,9.8,1.1,14.4,3.2
				c0.5,0.2,1,0.5,1.5,0.7c3.9,2.1,7.6,4.9,10.9,8.4c0.6,0.7,1.3,1.4,1.9,2.1c1.9,2.2,3.7,4.6,5.3,7.2c0.7,1.2,1.8,2.1,2.9,2.7
				c0.1,0,0.1,0.1,0.2,0.1c1,0.5,2.2,0.8,3.4,0.8c2.6,0,5-1.3,6.4-3.5c8.7-14,20.8-21.7,34.1-21.7c5.3,0,10.5,1.2,15.3,3.4
				c0.7,0.3,1.4,0.7,2,1C171,374.2,179.1,384.5,182.2,397z"/>
			<path class="st0" d="M39.4,390.7c0.3-0.5,0.7-1,1-1.5c-0.7,1.1-1.4,2.2-2.1,3.4c0.1-0.3,0.3-0.5,0.4-0.8
				C39,391.4,39.2,391.1,39.4,390.7z"/>
			<path class="st0" d="M37.2,394.8c0.2-0.6,0.5-1.1,0.8-1.7C37.7,393.7,37.4,394.3,37.2,394.8z"/>
			<path class="st1" d="M24.7,426.4c-0.6-1.9-1-3.7-1.4-5.5c-0.4-1.9-0.7-3.7-0.9-5.4c-0.1-0.6-0.2-1.2-0.2-1.8
				c-0.4-4.7-0.2-8.7,0.2-11.9c0-0.2,0.1-0.5,0.1-0.7c0.2-1.6,0.5-3.1,0.8-4.2c0.4-1.8,1-3.5,1.6-5.2c0.2-0.6,0.5-1.2,0.7-1.7
				c0.2-0.5,0.4-1.1,0.7-1.6c0.7-1.7,1.6-3.2,2.5-4.7c1.1-1.9,2.4-3.7,3.8-5.3c0.5-0.6,1.1-1.3,1.7-1.9c0.3-0.3,0.6-0.6,0.9-0.9
				c7.3-7.2,16.9-11.6,26.9-11.6c5.1,0,10,1.1,14.6,3.3c-4.5-2.1-9.4-3.2-14.4-3.2c-10,0-19.6,4.4-26.9,11.6
				c-0.3,0.3-0.6,0.6-0.9,0.9c-0.6,0.6-1.1,1.2-1.7,1.9c-1.3,1.7-2.6,3.4-3.8,5.3c-0.9,1.5-1.7,3.1-2.5,4.7
				c-0.2,0.5-0.5,1.1-0.7,1.6c-0.3,0.6-0.5,1.1-0.7,1.7c-0.6,1.7-1.2,3.4-1.6,5.2c-0.3,1.1-0.6,2.6-0.8,4.2c0,0.2-0.1,0.5-0.1,0.7
				c-0.4,3.2-0.6,7.2-0.2,11.9c0.1,0.6,0.1,1.2,0.2,1.8c0.2,1.7,0.5,3.5,0.9,5.4c0.4,1.8,0.8,3.6,1.4,5.5c0.1,0.5,0.3,1.1,0.5,1.7
				c0.3,0.9,0.6,1.8,0.9,2.7c2.7,7.3,7,15.4,13.6,23.9c0.3,0.4,0.6,0.8,0.9,1.2c0.9,1.2,1.9,2.4,3,3.6c0.4,0.5,0.9,1.1,1.4,1.6
				s1,1.1,1.5,1.6c0.6,0.6,1.1,1.1,1.6,1.7c1.3,1.4,2.7,2.8,4.1,4.2c0.6,0.6,1.2,1.1,1.8,1.7c0.9,0.8,1.9,1.7,2.8,2.5
				c0.6,0.6,1.2,1.1,1.9,1.7c1,0.9,2,1.7,3,2.6c0.7,0.5,1.4,1.1,2.1,1.7c0.7,0.5,1.5,1.1,2.2,1.7c1.1,0.8,2.2,1.7,3.4,2.6
				c0.7,0.5,1.5,1.1,2.3,1.7c0.4,0.3,0.8,0.6,1.2,0.9c0.8,0.6,1.6,1.2,2.4,1.8c0.9,0.6,1.9,1.3,2.8,2c-1-0.7-2-1.4-3-2.1
				c-0.8-0.6-1.6-1.2-2.4-1.8c-0.4-0.3-0.8-0.6-1.2-0.9c-0.7-0.5-1.5-1.1-2.3-1.7c-1.2-0.9-2.3-1.7-3.4-2.6
				c-0.8-0.5-1.5-1.1-2.2-1.7c-0.7-0.6-1.4-1.1-2.1-1.7c-1-0.9-2-1.8-3-2.6c-0.6-0.6-1.3-1.1-1.9-1.7c-1-0.8-1.9-1.7-2.8-2.5
				c-0.7-0.6-1.2-1.2-1.8-1.7c-1.4-1.4-2.8-2.8-4.1-4.2c-0.6-0.6-1.1-1.1-1.6-1.7c-0.5-0.5-1-1.1-1.5-1.6s-0.9-1.1-1.4-1.6
				c-1-1.2-2-2.4-3-3.6c-0.3-0.4-0.6-0.8-0.9-1.2c-6.6-8.6-10.9-16.6-13.6-23.9c-0.3-0.9-0.6-1.8-0.9-2.7
				C25,427.5,24.9,427,24.7,426.4z"/>
		</g>
		<g>
		</g>
	</g>
</g>
</svg>
