<?xml version="1.0" encoding="utf-8"?>
<!-- Generator: Adobe Illustrator 19.2.1, SVG Export Plug-In . SVG Version: 6.00 Build 0)  -->
<svg version="1.1" id="Capa_1" xmlns="http://www.w3.org/2000/svg" xmlns:xlink="http://www.w3.org/1999/xlink" x="0px" y="0px"
	 viewBox="0 0 422.5 422.5" style="enable-background:new 0 0 422.5 422.5;" xml:space="preserve">
<style type="text/css">
	.st0{fill:#0C3B5D;}
	.st1{fill:#FCD614;}
</style>
<g>
	<g>
		<path class="st0" d="M281.5,177.8c-25.5,0-49.7,7.7-70.3,22.3c-14.2-10-30.5-17-48.2-20.3l47.8-31.3c2.9-1.9,4.2-5.6,2.9-8.9
			l-14.2-38.2c-1.1-2.9-3.9-4.9-7-4.9H90c-3.1,0-5.9,2-7,4.9l-14.2,38.2c-1.2,3.3,0,7,2.9,8.9l47.7,31.2
			C62.2,190,18.6,240.1,18.6,300.2c0,67.5,54.9,122.3,122.3,122.3c25.5,0,49.7-7.7,70.3-22.3c19.9,14,44.1,22.3,70.3,22.3
			c67.5,0,122.3-54.9,122.3-122.3C403.9,232.7,349,177.8,281.5,177.8z M187.3,111.6l5.1,13.6l-23.3-13.6H187.3z M179,134.8h-75.5
			l37.8-22L179,134.8z M95.2,111.6h18.4l-23.5,13.7L95.2,111.6z M100.9,149.8h80.6l-40.3,26.4L100.9,149.8z M141,407.5
			c-59.2,0-107.3-48.2-107.3-107.3c0-59.2,48.2-107.3,107.3-107.3c59.2,0,107.3,48.1,107.3,107.3c0,19.4-5.2,38.2-15,54.7
			c-5.2-4.6-9.7-9.9-13.5-15.8c5.9-12,9-25.4,9-38.9c0-48.5-39.5-88-88-88s-88,39.5-88,88s39.5,88,88,88c15.8,0,31.1-4.2,44.6-12.2
			c4.1,5.2,8.6,10,13.5,14.4C181.7,401.6,161.8,407.5,141,407.5z M245.5,236.7c10.9-6.2,23.3-9.5,36-9.5c40.2,0,73,32.7,73,73
			c0,40.2-32.7,73-73,73c-13.1,0-25.3-3.5-36-9.5c11.6-19.1,17.7-40.9,17.7-63.4C263.3,277,256.8,255.2,245.5,236.7z M213.9,300.2
			c0,6.6-0.9,13.2-2.7,19.5c-1.7-6.2-2.7-12.8-2.7-19.5c0-6.6,0.9-13.2,2.7-19.6C213,286.8,213.9,293.4,213.9,300.2z M176.9,236.7
			c-11.6,19.1-17.7,40.9-17.7,63.4c0,23.2,6.5,44.9,17.8,63.5c-10.9,6.2-23.3,9.5-36,9.5c-40.2,0-73-32.7-73-73
			c0-40.2,32.7-73,73-73C154,227.2,166.3,230.7,176.9,236.7z M281.5,407.5c-59.2,0-107.3-48.2-107.3-107.3c0-19.4,5.2-38.2,15-54.7
			c5.2,4.6,9.7,9.9,13.5,15.8c-5.9,12-9,25.4-9,38.9c0,48.5,39.5,88,88,88c48.5,0,88-39.5,88-88s-39.5-88-88-88
			c-15.9,0-31.1,4.2-44.6,12.2c-4.1-5.2-8.6-10-13.4-14.4c17.3-11.2,37.2-17.1,58.1-17.1c59.2,0,107.3,48.1,107.3,107.3
			S340.7,407.5,281.5,407.5z"/>
		<polygon class="st1" points="192.3,125.2 169.1,111.6 187.3,111.6 		"/>
		<polygon class="st1" points="113.6,111.6 90.1,125.2 95.2,111.6 		"/>
		<polygon class="st1" points="179,134.8 103.6,134.8 141.4,112.7 		"/>
		<polygon class="st1" points="181.6,149.8 141.2,176.2 100.9,149.8 		"/>
		<path class="st0" d="M141.2,49.3c4.1,0,7.5-3.4,7.5-7.5V7.5c0-4.1-3.4-7.5-7.5-7.5s-7.5,3.4-7.5,7.5v34.3
			C133.7,45.9,137.1,49.3,141.2,49.3z"/>
		<path class="st0" d="M58,80.6c1.5,1.5,3.4,2.2,5.3,2.2c1.9,0,3.8-0.7,5.3-2.2c2.9-2.9,2.9-7.7,0-10.6L44.3,45.8
			c-2.9-2.9-7.7-2.9-10.6,0c-2.9,2.9-2.9,7.7,0,10.6L58,80.6z"/>
		<path class="st0" d="M219.2,82.8c1.9,0,3.8-0.7,5.3-2.2l24.2-24.2c2.9-2.9,2.9-7.7,0-10.6c-2.9-2.9-7.7-2.9-10.6,0L213.9,70
			c-2.9,2.9-2.9,7.7,0,10.6C215.4,82.1,217.3,82.8,219.2,82.8z"/>
	</g>
</g>
</svg>
