<?xml version="1.0" encoding="utf-8"?>
<!-- Generator: Adobe Illustrator 19.2.1, SVG Export Plug-In . SVG Version: 6.00 Build 0)  -->
<svg version="1.1" id="Capa_1" xmlns="http://www.w3.org/2000/svg" xmlns:xlink="http://www.w3.org/1999/xlink" x="0px" y="0px"
	 viewBox="0 0 349.2 349.2" style="enable-background:new 0 0 349.2 349.2;" xml:space="preserve">
<style type="text/css">
	.st0{fill:#0C3B5D;}
	.st1{fill:#73AA6F;}
</style>
<g>
	<g>
		<path class="st0" d="M341.7,6.2H83.5c-4.2,0-7.5,3.3-7.5,7.5v149.1H7.5c-4.1,0-7.5,3.4-7.5,7.5v127.1c0,25.1,20.4,45.5,45.5,45.5
			c0.6,0,258.2,0,258.2,0c25.1,0,45.5-20.4,45.5-45.5V13.7C349.2,9.6,345.8,6.2,341.7,6.2z M76,297.4c0,16.8-13.7,30.5-30.5,30.5
			S15,314.2,15,297.4V177.8h61V297.4z M334.2,297.4c0,16.8-13.7,30.5-30.5,30.5H79.2c7.3-8.1,11.8-18.8,11.8-30.5V21.2h243.2V297.4z
			"/>
		<path class="st0" d="M202,92.9h96.1c4.1,0,7.5-3.4,7.5-7.5s-3.4-7.5-7.5-7.5H202c-4.1,0-7.5,3.4-7.5,7.5S197.9,92.9,202,92.9z"/>
		<path class="st0" d="M202,175.2h96.1c4.1,0,7.5-3.4,7.5-7.5s-3.4-7.5-7.5-7.5H202c-4.1,0-7.5,3.4-7.5,7.5S197.9,175.2,202,175.2z"
			/>
		<path class="st0" d="M202,257.6h96.1c4.1,0,7.5-3.4,7.5-7.5s-3.4-7.5-7.5-7.5H202c-4.1,0-7.5,3.4-7.5,7.5
			C194.5,254.3,197.9,257.6,202,257.6z"/>
		<path class="st1" d="M185,56.1l-41.1,45.1c-1.4,1.5-3.4,2.4-5.5,2.4c-0.1,0-0.1,0-0.1,0c-2.1,0-4.1-0.8-5.5-2.3l-16.7-17.7
			c-2.8-3-2.7-7.8,0.3-10.6s7.8-2.7,10.6,0.3l11.1,11.9L173.9,46c2.8-3.1,7.5-3.3,10.6-0.5S187.8,53,185,56.1z"/>
		<path class="st1" d="M185.1,142.2l-41.2,45.1c-1.4,1.5-3.4,2.4-5.5,2.4c-0.1,0-0.1,0-0.1,0c-2.1,0-4.1-0.9-5.5-2.4l-16.7-17.7
			c-2.8-3-2.7-7.8,0.3-10.6s7.8-2.7,10.6,0.3l11.1,11.8l35.8-39.2c2.8-3,7.6-3.1,10.7-0.3C187.7,134.4,187.9,139.1,185.1,142.2z"/>
		<path class="st1" d="M185,228l-41.1,45.3c-1.4,1.5-3.4,2.4-5.5,2.4c-0.1,0-0.1,0-0.1,0c-2.1,0-4.1-0.9-5.5-2.4l-16.7-17.7
			c-2.8-3-2.7-7.8,0.3-10.6s7.8-2.7,10.6,0.3l11.1,11.8l35.8-39.2c2.8-3,7.6-3.3,10.6-0.5C187.6,220.2,187.8,224.9,185,228z"/>
	</g>
</g>
</svg>
