<?xml version="1.0" encoding="utf-8"?>
<!-- Generator: Adobe Illustrator 19.0.0, SVG Export Plug-In . SVG Version: 6.00 Build 0)  -->
<svg version="1.1" id="Capa_1" xmlns="http://www.w3.org/2000/svg" xmlns:xlink="http://www.w3.org/1999/xlink" x="0px" y="0px"
	 viewBox="-49 141 512 512" style="enable-background:new -49 141 512 512;" xml:space="preserve">
<style type="text/css">
	.st0{fill:#FFFFFF;}
</style>
<g>
	<path class="st0" d="M190.4,463h25.7c2.2,0,4-1.8,4-4v-58h13.4c2.1,0,3.8-1.6,4-3.6l2.3-21.9c0.1-1.1-0.3-2.2-1-3.1
		c-0.8-0.8-1.8-1.3-3-1.3h-15.6v-8.9c0-1.8,0.6-2,1.5-2h13.8c2.2,0,4-1.8,4-4v-21.3c0-2.2-1.8-4-4-4l-19.1-0.1
		c-13.4,0-20.5,5.9-24.1,10.8c-5.1,6.9-5.8,15-5.8,19.2v10.2h-8.2c-2.2,0-4,1.8-4,4V397c0,2.2,1.8,4,4,4h8.2v58
		C186.4,461.2,188.2,463,190.4,463z M182.2,393v-13.9h8.2c2.2,0,4-1.8,4-4V361c0-2.6,0.4-9.2,4.3-14.4c3.7-5,9.6-7.6,17.7-7.6
		l15.1,0.1v13.3h-9.8c-4.7,0-9.5,3.1-9.5,10v12.9c0,2.2,1.8,4,4,4h15.2L230,393h-13.8c-2.2,0-4,1.8-4,4v58h-17.7v-58
		c0-2.2-1.8-4-4-4H182.2L182.2,393z"/>
	<path class="st0" d="M297.5,306.5C273.3,282.3,241.2,269,207,269c-34.2,0-66.3,13.3-90.5,37.5S79,362.8,79,397
		c0,34.2,13.3,66.3,37.5,90.5c24.2,24.2,56.3,37.5,90.5,37.5c34.2,0,66.3-13.3,90.5-37.5c24.2-24.2,37.5-56.3,37.5-90.5
		C335,362.8,321.7,330.7,297.5,306.5z M291.9,481.9C269.2,504.5,239.1,517,207,517c-32.1,0-62.2-12.5-84.9-35.1
		C99.5,459.2,87,429.1,87,397c0-32.1,12.5-62.2,35.1-84.9c22.7-22.7,52.8-35.1,84.9-35.1c32.1,0,62.2,12.5,84.9,35.1
		c22.7,22.7,35.1,52.8,35.1,84.9C327,429.1,314.5,459.2,291.9,481.9z"/>
	<path class="st0" d="M294,326.5c-1.4-1.7-3.9-2-5.6-0.6c-1.7,1.4-2,3.9-0.6,5.6c15,18.4,23.2,41.7,23.2,65.5
		c0,27.8-10.8,53.9-30.5,73.5C260.9,490.2,234.8,501,207,501c-25.6,0-50.3-9.4-69.3-26.5c-1.6-1.5-4.2-1.3-5.6,0.3
		c-1.5,1.6-1.3,4.2,0.3,5.6c20.5,18.4,47.1,28.5,74.7,28.5c29.9,0,58-11.6,79.2-32.8C307.4,455,319,426.9,319,397
		C319,371.4,310.1,346.3,294,326.5z"/>
	<path class="st0" d="M103,397c0-57.3,46.7-104,104-104c25.6,0,50.3,9.4,69.3,26.5c1.6,1.5,4.2,1.3,5.6-0.3c1.5-1.6,1.3-4.2-0.3-5.6
		C261.1,295.1,234.6,285,207,285c-29.9,0-58,11.7-79.2,32.8C106.7,339,95,367.1,95,397c0,25.6,8.9,50.7,25,70.5
		c0.8,1,1.9,1.5,3.1,1.5c0.9,0,1.8-0.3,2.5-0.9c1.7-1.4,2-3.9,0.6-5.6C111.2,444,103,420.8,103,397z"/>
</g>
</svg>
