<?xml version="1.0" encoding="utf-8"?>
<!-- Generator: Adobe Illustrator 19.0.0, SVG Export Plug-In . SVG Version: 6.00 Build 0)  -->
<svg version="1.1" id="Capa_1" xmlns="http://www.w3.org/2000/svg" xmlns:xlink="http://www.w3.org/1999/xlink" x="0px" y="0px"
	 viewBox="-49 141 512 512" style="enable-background:new -49 141 512 512;" xml:space="preserve">
<style type="text/css">
	.st0{fill:#FFFFFF;}
</style>
<g>
	<path class="st0" d="M297.5,306.5C273.3,282.3,241.2,269,207,269c-34.2,0-66.3,13.3-90.5,37.5S79,362.8,79,397
		c0,34.2,13.3,66.3,37.5,90.5c24.2,24.2,56.3,37.5,90.5,37.5c34.2,0,66.3-13.3,90.5-37.5c24.2-24.2,37.5-56.3,37.5-90.5
		C335,362.8,321.7,330.7,297.5,306.5z M291.9,481.9C269.2,504.5,239.1,517,207,517c-32.1,0-62.2-12.5-84.9-35.1
		C99.5,459.2,87,429.1,87,397c0-32.1,12.5-62.2,35.1-84.9c22.7-22.7,52.8-35.1,84.9-35.1c32.1,0,62.2,12.5,84.9,35.1
		c22.7,22.7,35.1,52.8,35.1,84.9C327,429.1,314.5,459.2,291.9,481.9z"/>
	<path class="st0" d="M294,326.5c-1.4-1.7-3.9-2-5.6-0.6c-1.7,1.4-2,3.9-0.6,5.6c15,18.4,23.2,41.7,23.2,65.5
		c0,27.8-10.8,53.9-30.5,73.5C260.9,490.2,234.8,501,207,501c-25.6,0-50.3-9.4-69.3-26.5c-1.6-1.5-4.2-1.3-5.6,0.3
		c-1.5,1.6-1.3,4.2,0.3,5.6c20.5,18.4,47.1,28.5,74.7,28.5c29.9,0,58-11.6,79.2-32.8C307.4,455,319,426.9,319,397
		C319,371.4,310.1,346.3,294,326.5z"/>
	<path class="st0" d="M103,397c0-57.3,46.7-104,104-104c25.6,0,50.3,9.4,69.3,26.5c1.6,1.5,4.2,1.3,5.6-0.3c1.5-1.6,1.3-4.2-0.3-5.6
		C261.1,295.1,234.6,285,207,285c-29.9,0-58,11.7-79.2,32.8C106.7,339,95,367.1,95,397c0,25.6,8.9,50.7,25,70.5
		c0.8,1,1.9,1.5,3.1,1.5c0.9,0,1.8-0.3,2.5-0.9c1.7-1.4,2-3.9,0.6-5.6C111.2,444,103,420.8,103,397z"/>
	<path class="st0" d="M163,332.8c-11,0-20,9-20,20v88c0,11,9,20,20,20h88c11,0,20-9,20-20v-88c0-11-9-20-20-20
		C251,332.8,163,332.8,163,332.8z M251,452.8h-88c-6.6,0-12-5.4-12-12v-60h23.8c-2.4,4.8-3.8,10.3-3.8,16c0,19.9,16.1,36,36,36
		s36-16.1,36-36c0-5.7-1.4-11.2-3.8-16H263v60C263,447.4,257.6,452.8,251,452.8z M235,396.8c0,15.4-12.6,28-28,28s-28-12.6-28-28
		s12.6-28,28-28S235,381.4,235,396.8z M263,352.8v20h-29.2c-6.6-7.4-16.2-12-26.8-12s-20.2,4.6-26.8,12H151v-20
		c0-5.2,3.3-9.7,8-11.3v23.3c0,2.2,1.8,4,4,4s4-1.8,4-4v-24h4v24c0,2.2,1.8,4,4,4s4-1.8,4-4v-24h72C257.6,340.8,263,346.2,263,352.8
		z"/>
	<path class="st0" d="M207,376.8c-2.2,0-4,1.8-4,4c0,2.2,1.8,4,4,4c6.6,0,12,5.4,12,12c0,2.2,1.8,4,4,4s4-1.8,4-4
		C227,385.8,218,376.8,207,376.8z"/>
	<path class="st0" d="M235,348.8v16c0,2.2,1.8,4,4,4h16c2.2,0,4-1.8,4-4v-16c0-2.2-1.8-4-4-4h-16C236.8,344.8,235,346.6,235,348.8z
		 M243,352.8h8v8h-8V352.8z"/>
</g>
</svg>
