<svg id="Calque_1" data-name="Calque 1" xmlns="http://www.w3.org/2000/svg" viewBox="0 0 773.66 329.69"><defs><style>.cls-1{fill:#fed700;}.cls-2{fill:#0d3c5e;}</style></defs><title>logo</title><polygon class="cls-1" points="715.68 64.97 662.79 116.5 662.79 116.5 609.2 65.09 663.08 65.09 715.68 64.97"/><polygon class="cls-1" points="715.69 59.72 609.17 59.72 620.21 43.79 704.64 43.79 715.69 59.72"/><path class="cls-2" d="M706.14,114.76q-4.38,0-8.65.33a107.65,107.65,0,0,0-56.73,21.5c-0.76.57-1.55,1.11-2.35,1.75-0.41.34-.8,0.64-1.19,1,0,0,0,0-.06,0q-2.77-2.46-5.7-4.71a106.2,106.2,0,0,0-33.33-17.31,15.25,15.25,0,0,0-1.59-.48,110,110,0,0,0-31.69-4.63c-30.66,0-58.73,14.72-76.9,37.64V18.84H452.52V228.39c0,27.16,8.2,51.71,22.24,71.26,0.93,1.3,1.89,2.6,2.89,3.87,1.14,1.46,2.32,2.85,3.53,4.24a52.72,52.72,0,0,0,3.67,4c1.14,1.23,2.3,2.42,3.48,3.54,0.71,0.72,1.44,1.39,2.14,2,2.08,1.93,4.22,3.71,6.43,5.42s4.76,3.53,7.2,5.12c1.09,0.73,2.18,1.39,3.28,2.08a109.79,109.79,0,0,0,57,15.63,108.51,108.51,0,0,0,57.37-16.23l0.3-.19a113.19,113.19,0,0,1-22.52-27,68.9,68.9,0,0,1-35.15,9.65c-40.6,0-75.15-37.15-75.15-83.4a87.08,87.08,0,0,1,11.39-43.51c13.32-23.46,37.06-39,63.76-39a69.67,69.67,0,0,1,41.33,13.7,75.9,75.9,0,0,1,7,5.82,2.84,2.84,0,0,1,.68.62,81.27,81.27,0,0,1,20.63,32.28c0.4,1.09.76,2.2,1.1,3.32,0.3,0.84.55,1.69,0.76,2.53a86.66,86.66,0,0,1,1.93,8.75c0.16,0.93.3,1.84,0.44,2.78a95.38,95.38,0,0,1,.86,12.73,94.27,94.27,0,0,1-4.24,28.2c-0.16-.59-0.34-1.16-0.5-1.75a84.39,84.39,0,0,1-3-22.53c0-2.3.09-4.57,0.25-6.82,0.14-1.84-12.52-38-28.53-39.48-7.53,18.39-8.87,24.49-8.87,46.3A119.75,119.75,0,0,0,610.55,293a2.75,2.75,0,0,0,.45.8c0.16,0.3.35,0.59,0.55,0.89A112.35,112.35,0,0,0,633.4,321a0.8,0.8,0,0,0,.23.19c0.25,0.2.45,0.41,0.7,0.59a110.17,110.17,0,0,0,128,11.42,107.4,107.4,0,0,0,9.2-6.14,4,4,0,0,0,.48-0.36c28.16-21.12,46-55.59,46-94.38C818,167.48,769.65,114.76,706.14,114.76Zm42,184.5a2.54,2.54,0,0,1-.41.3,71.25,71.25,0,0,1-41.07,13.55h-0.54a71.07,71.07,0,0,1-48.34-19.34,0.49,0.49,0,0,1-.19-0.14s0,0,0,0c0.32-.55.66-1.09,1-1.64,11-18,17.32-39.73,17.32-63.56a128.89,128.89,0,0,0-1.21-17.74c-0.18-1.51-.43-3-0.73-4.54a0.78,0.78,0,0,1,0-.34,117.64,117.64,0,0,0-13.78-38.34l0.11-.1c0.9-.8,1.82-1.57,2.81-2.29a69.09,69.09,0,0,1,43.08-15.26c41.48,0,75.19,37.15,75.19,82.53C781.33,260.08,768.19,284.73,748.16,299.26Z" transform="translate(-44.39 -18.84)"/><path class="cls-2" d="M249.07,145.8V341.29H213.56V145.8c0-38.43-30.08-67.67-66.84-67.67S79.89,107.37,79.89,145.8V341.29H44.39V145.8c0-57.65,44.7-101.51,102.34-101.51S249.07,88.16,249.07,145.8Z" transform="translate(-44.39 -18.84)"/><path class="cls-2" d="M405.64,126.17h35.51V256.5c0,54.3-39.27,89.81-89.81,89.81s-89.81-35.51-89.81-89.81V126.17h35.09V256.5c0,32.16,21.3,55.56,54.72,55.56,33,0,54.3-23.39,54.3-55.56V126.17Z" transform="translate(-44.39 -18.84)"/></svg>