<?xml version="1.0" encoding="utf-8"?>
<!-- Generator: Adobe Illustrator 19.0.0, SVG Export Plug-In . SVG Version: 6.00 Build 0)  -->
<svg version="1.1" id="Capa_1" xmlns="http://www.w3.org/2000/svg" xmlns:xlink="http://www.w3.org/1999/xlink" x="0px" y="0px"
	 viewBox="-49 141 512 512" style="enable-background:new -49 141 512 512;" xml:space="preserve">
<style type="text/css">
	.st0{fill:#FFFFFF;}
</style>
<g>
	<path class="st0" d="M297.5,306.5C273.3,282.3,241.2,269,207,269c-34.2,0-66.3,13.3-90.5,37.5S79,362.8,79,397
		c0,34.2,13.3,66.3,37.5,90.5c24.2,24.2,56.3,37.5,90.5,37.5c34.2,0,66.3-13.3,90.5-37.5c24.2-24.2,37.5-56.3,37.5-90.5
		C335,362.8,321.7,330.7,297.5,306.5z M291.9,481.9C269.2,504.5,239.1,517,207,517c-32.1,0-62.2-12.5-84.9-35.1
		C99.5,459.2,87,429.1,87,397c0-32.1,12.5-62.2,35.1-84.9c22.7-22.7,52.8-35.1,84.9-35.1c32.1,0,62.2,12.5,84.9,35.1
		c22.7,22.7,35.1,52.8,35.1,84.9C327,429.1,314.5,459.2,291.9,481.9z"/>
	<path class="st0" d="M294,326.5c-1.4-1.7-3.9-2-5.6-0.6c-1.7,1.4-2,3.9-0.6,5.6c15,18.4,23.2,41.7,23.2,65.5
		c0,27.8-10.8,53.9-30.5,73.5C260.9,490.2,234.8,501,207,501c-25.6,0-50.3-9.4-69.3-26.5c-1.6-1.5-4.2-1.3-5.6,0.3
		c-1.5,1.6-1.3,4.2,0.3,5.6c20.5,18.4,47.1,28.5,74.7,28.5c29.9,0,58-11.6,79.2-32.8C307.4,455,319,426.9,319,397
		C319,371.4,310.1,346.3,294,326.5z"/>
	<path class="st0" d="M103,397c0-57.3,46.7-104,104-104c25.6,0,50.3,9.4,69.3,26.5c1.6,1.5,4.2,1.3,5.6-0.3c1.5-1.6,1.3-4.2-0.3-5.6
		C261.1,295.1,234.6,285,207,285c-29.9,0-58,11.7-79.2,32.8C106.7,339,95,367.1,95,397c0,25.6,8.9,50.7,25,70.5
		c0.8,1,1.9,1.5,3.1,1.5c0.9,0,1.8-0.3,2.5-0.9c1.7-1.4,2-3.9,0.6-5.6C111.2,444,103,420.8,103,397z"/>
	<path class="st0" d="M278.3,366.4c1-1.5,0.9-3.4-0.3-4.8c-1.1-1.4-3.1-1.8-4.7-1.1c-0.1,0-0.2,0.1-0.3,0.1c0.9-1.7,1.7-3.5,2.3-5.3
		c0.5-1.6,0-3.3-1.3-4.3c-1.3-1-3.1-1.2-4.5-0.3c-4,2.4-8.4,4.2-12.9,5.2c-5.4-4.9-12.5-7.7-19.8-7.7c-16.2,0-29.4,13.2-29.4,29.4
		c0,0.5,0,0.9,0,1.4c-17.4-2.1-33.5-11-44.7-24.7c-0.8-1-2.1-1.6-3.4-1.5c-1.3,0.1-2.5,0.8-3.1,2c-2.6,4.5-4,9.6-4,14.8
		c0,5,1.2,9.8,3.5,14c-0.6,0-1.2,0.2-1.8,0.5c-1.2,0.7-2,2-2,3.4v0.3c0,8.8,4,16.9,10.3,22.4c-0.1,0.1-0.3,0.2-0.4,0.4
		c-0.9,1.1-1.2,2.5-0.8,3.9c2.7,8.5,9.1,15.2,17.1,18.4c-6.5,3.3-13.7,5-21.2,5c-1.9,0-3.8-0.1-5.6-0.3c-1.8-0.2-3.6,0.9-4.2,2.6
		c-0.6,1.8,0,3.7,1.6,4.7c12.3,7.9,26.5,12.1,41.2,12.1c28.7,0,46.7-13.6,56.7-24.9c12.5-14.2,19.6-32.9,19.6-51.4
		c0-0.5,0-0.9,0-1.3C271,375.6,275,371.3,278.3,366.4z M260,374.1c-1.1,0.8-1.7,2.1-1.7,3.4c0,1,0.1,2,0.1,3.1
		c0,16.6-6.4,33.4-17.6,46.2c-8.9,10.1-25,22.2-50.7,22.2c-7.9,0-15.6-1.4-22.9-4c8.8-1.6,16.9-5.3,24.1-10.8c1.3-1,1.9-2.8,1.3-4.4
		c-0.5-1.6-2-2.7-3.7-2.7c-7-0.1-13.4-3.7-17.3-9.3c2-0.1,4-0.4,6-1c1.8-0.5,3-2.1,3-4c-0.1-1.9-1.4-3.4-3.2-3.8
		c-8-1.6-14.2-7.6-16.4-15.1c2.1,0.6,4.3,0.9,6.6,1c1.8,0.1,3.4-1.1,3.9-2.8c0.5-1.7-0.1-3.6-1.6-4.6c-6-4-9.5-10.7-9.5-17.9
		c0-1.8,0.2-3.6,0.7-5.4c13.4,13.8,31.7,22.2,51,23.2c1.3,0.1,2.5-0.5,3.3-1.4c0.8-1,1.1-2.3,0.8-3.5c-0.4-1.6-0.6-3.2-0.6-4.9
		c0-11.8,9.6-21.4,21.4-21.4c5.9,0,11.6,2.5,15.7,6.8c0.9,1,2.3,1.4,3.7,1.2c1.5-0.3,3-0.7,4.5-1.1c-0.7,0.6-1.5,1.1-2.3,1.6
		c-1.6,1-2.3,2.9-1.7,4.7c0.6,1.8,2.4,2.9,4.3,2.7c0.7-0.1,1.3-0.2,1.9-0.3C261.9,372.6,260.9,373.4,260,374.1z"/>
</g>
</svg>
