<?xml version="1.0" encoding="utf-8"?>
<!-- Generator: Adobe Illustrator 21.1.0, SVG Export Plug-In . SVG Version: 6.00 Build 0)  -->
<svg version="1.1" id="Capa_1" xmlns="http://www.w3.org/2000/svg" xmlns:xlink="http://www.w3.org/1999/xlink" x="0px" y="0px"
	 viewBox="0 0 327.2 327.2" style="enable-background:new 0 0 327.2 327.2;" xml:space="preserve">
<style type="text/css">
	.st0{fill:#FFFFFF;}
</style>
<g>
	<path class="st0" d="M228.5,43.6c0-2.8-2.2-5-5-5H82.1c-2.8,0-5,2.2-5,5s2.2,5,5,5h141.4C226.3,48.6,228.5,46.3,228.5,43.6z"/>
	<path class="st0" d="M65.9,48.6c2.8,0,5-2.2,5-5s-2.2-5-5-5h-8.5c-2.8,0-5,2.2-5,5s2.2,5,5,5H65.9z"/>
	<path class="st0" d="M41.2,48.6c2.8,0,5-2.2,5-5s-2.2-5-5-5h-6.8c-2.8,0-5,2.2-5,5s2.2,5,5,5H41.2z"/>
	<path class="st0" d="M116.9,144.8c2.8,0,5-2.2,5-5V74.2c0-2.8-2.2-5-5-5H37c-2.8,0-5,2.2-5,5v125.2c0,2.8,2.2,5,5,5h79.9
		c2.8,0,5-2.2,5-5v-36.6c0-2.8-2.2-5-5-5s-5,2.2-5,5v31.6H42V79.2h69.9v60.6C111.9,142.6,114.1,144.8,116.9,144.8z"/>
	<path class="st0" d="M146.9,288.8h79.9c2.8,0,5-2.2,5-5v-48.2c0-2.8-2.2-5-5-5h-79.9c-2.8,0-5,2.2-5,5v48.2
		C141.9,286.6,144.1,288.8,146.9,288.8z M151.9,240.6h69.9v38.2h-69.9L151.9,240.6L151.9,240.6z"/>
	<path class="st0" d="M116.9,221.2H37c-2.8,0-5,2.2-5,5s2.2,5,5,5h79.9c2.8,0,5-2.2,5-5S119.7,221.2,116.9,221.2z"/>
	<path class="st0" d="M116.9,248.9h-15.2c-2.8,0-5,2.2-5,5c0,2.8,2.2,5,5,5h15.2c2.8,0,5-2.2,5-5S119.7,248.9,116.9,248.9z"/>
	<path class="st0" d="M37,258.9h44.3c2.8,0,5-2.2,5-5s-2.2-5-5-5H37c-2.8,0-5,2.2-5,5C32,256.7,34.2,258.9,37,258.9z"/>
	<path class="st0" d="M37,286.6h79.9c2.8,0,5-2.2,5-5s-2.2-5-5-5H37c-2.8,0-5,2.2-5,5S34.2,286.6,37,286.6z"/>
	<path class="st0" d="M226.8,69.2h-37.3c-2.8,0-5,2.2-5,5s2.2,5,5,5h37.3c2.8,0,5-2.2,5-5S229.6,69.2,226.8,69.2z"/>
	<path class="st0" d="M146.9,69.2c-2.8,0-5,2.2-5,5s2.2,5,5,5h17.9c2.8,0,5-2.2,5-5s-2.2-5-5-5H146.9z"/>
	<path class="st0" d="M226.8,96.9h-79.9c-2.8,0-5,2.2-5,5s2.2,5,5,5h79.9c2.8,0,5-2.2,5-5S229.6,96.9,226.8,96.9z"/>
	<path class="st0" d="M226.8,124.6h-79.9c-2.8,0-5,2.2-5,5s2.2,5,5,5h79.9c2.8,0,5-2.2,5-5S229.6,124.6,226.8,124.6z"/>
	<path class="st0" d="M226.8,150.7h-22c-2.8,0-5,2.2-5,5s2.2,5,5,5h22c2.8,0,5-2.2,5-5S229.6,150.7,226.8,150.7z"/>
	<path class="st0" d="M146.9,160.7h37.5c2.8,0,5-2.2,5-5s-2.2-5-5-5h-37.5c-2.8,0-5,2.2-5,5S144.1,160.7,146.9,160.7z"/>
	<path class="st0" d="M226.8,178.4h-79.9c-2.8,0-5,2.2-5,5s2.2,5,5,5h79.9c2.8,0,5-2.2,5-5S229.6,178.4,226.8,178.4z"/>
	<path class="st0" d="M226.8,206.1h-79.9c-2.8,0-5,2.2-5,5s2.2,5,5,5h79.9c2.8,0,5-2.2,5-5S229.6,206.1,226.8,206.1z"/>
	<path class="st0" d="M270.8,231.2h22c2.8,0,5-2.2,5-5s-2.2-5-5-5h-22c-2.8,0-5,2.2-5,5S268,231.2,270.8,231.2z"/>
	<path class="st0" d="M8,247.3c2.8,0,5-2.2,5-5V10h238.8l0,61.3c0,2.8,2.2,5,5,5h0c2.8,0,5-2.2,5-5V5c0-2.8-2.2-5-5-5H8
		C5.2,0,3,2.2,3,5v237.3C3,245.1,5.2,247.3,8,247.3z"/>
	<path class="st0" d="M319.2,192.8h-57.4V99c0-2.6-1.9-4.9-4.5-5.2c-3-0.3-5.5,2.1-5.5,5l0,192.2c0,10.3,4.3,19.6,11.2,26.2
		l-223.9,0C24.7,317.2,13,305.4,13,291v-26.7c0-2.8-2.2-5-5-5s-5,2.2-5,5V291c0,19.9,16.2,36.2,36.2,36.2l247.6,0c0.1,0,0.2,0,0.3,0
		c0.6,0,1.2,0,1.8,0c19.7-0.5,35.3-17.1,35.3-36.8v-92.6C324.2,195,321.9,192.8,319.2,192.8z M314.2,291c0,14.4-11.7,26.2-26.2,26.2
		s-26.2-11.7-26.2-26.3l-0.1-4.3h31c2.8,0,5-2.2,5-5s-2.2-5-5-5h-31v-17.7h31c2.8,0,5-2.2,5-5s-2.2-5-5-5h-31v-46.1h52.4L314.2,291
		L314.2,291z"/>
</g>
</svg>
