<?xml version="1.0" encoding="utf-8"?>
<!-- Generator: Adobe Illustrator 20.0.0, SVG Export Plug-In . SVG Version: 6.00 Build 0)  -->
<svg version="1.1" id="Calque_1" xmlns="http://www.w3.org/2000/svg" xmlns:xlink="http://www.w3.org/1999/xlink" x="0px" y="0px"
	 viewBox="0 0 125 605.3" style="enable-background:new 0 0 125 605.3;" xml:space="preserve">
<style type="text/css">
	.st0{fill:#FFFFFF;}
</style>
<g id="XMLID_7_">
	<path id="XMLID_8_" class="st0" d="M72.5,427.8l18.8,18.8l-47.6,47.7l-18.8-18.8L72.5,427.8z M105.7,423.2l-8.4-8.4
		c-3.2-3.2-8.5-3.2-11.8,0l-8,8l18.8,18.8l9.4-9.4C108.2,429.8,108.2,425.8,105.7,423.2z M15,502c-0.3,1.5,1.1,2.9,2.6,2.6l21-5.1
		l-18.8-18.8L15,502z"/>
</g>
<g id="XMLID_13_">
	<path id="XMLID_11_" class="st0" d="M60.8,550.4c11.1,0,20-10.9,20-24.3s-2.9-24.3-20-24.3s-20,10.9-20,24.3S49.8,550.4,60.8,550.4
		z"/>
	<path id="XMLID_10_" class="st0" d="M23,587.5C23,586.8,23,587.3,23,587.5L23,587.5z"/>
	<path id="XMLID_9_" class="st0" d="M98.6,588.3C98.6,587.9,98.6,586.6,98.6,588.3L98.6,588.3z"/>
	<path id="XMLID_6_" class="st0" d="M98.6,586.5c-0.4-23.4-3.4-30.1-26.8-34.3c0,0-3.3,4.2-11,4.2s-11-4.2-11-4.2
		C26.7,556.5,23.4,563,23,585.8c0,1.9-0.1,2-0.1,1.7c0,0.4,0,1.2,0,2.5c0,0,5.6,11.2,37.8,11.2S98.5,590,98.5,590c0-0.8,0-1.4,0-1.8
		C98.6,588.3,98.6,588,98.6,586.5z"/>
</g>
<g id="XMLID_17_">
	<path id="XMLID_15_" class="st0" d="M25.1,90.1c0,0-0.1,2.2,2.1,2.2c2.7,0,25.1,0,25.1,0V71.7c0,0-0.4-3.4,2.9-3.4h10.4
		c3.9,0,3.7,3.4,3.7,3.4v20.5c0,0,21.2,0,24.6,0c2.8,0,2.6-2.8,2.6-2.8V51.6L61.9,20.8L25.1,51.6V90.1z"/>
	<path id="XMLID_14_" class="st0" d="M11.5,48.7c0,0,3.1,5.8,9.9,0l40.7-34.4l38.2,34.2c7.9,5.7,10.8,0,10.8,0l-49-44.4L11.5,48.7z"
		/>
	<polygon id="XMLID_12_" class="st0" points="99.4,14.2 89.6,14.2 89.6,26.1 99.4,34.4 	"/>
</g>
<path id="XMLID_41_" class="st0" d="M80.5,383.8c-3.5,2.8-7.5,4.9-11.9,6.1c1.7-1.8,3.3-4.2,4.7-7c0.5-0.9,0.9-1.9,1.3-2.9
	C76.7,381.1,78.6,382.3,80.5,383.8z"/>
<path id="XMLID_40_" class="st0" d="M71.5,378.7c-0.4,1-0.8,1.9-1.3,2.8c-2.8,5.5-6.2,8.9-9.8,9.6v-14.8
	C64.3,376.5,68,377.3,71.5,378.7z"/>
<path id="XMLID_39_" class="st0" d="M57.1,376.3v14.8c-3.6-0.8-7.1-4.1-9.8-9.6c-0.4-0.9-0.9-1.8-1.3-2.8
	C49.6,377.3,53.3,376.5,57.1,376.3z"/>
<path id="XMLID_38_" class="st0" d="M49.1,389.9c-4.4-1.3-8.4-3.4-11.9-6.1c1.8-1.4,3.8-2.7,5.9-3.7c0.4,1,0.8,2,1.3,2.9
	C45.7,385.8,47.3,388.1,49.1,389.9z"/>
<path id="XMLID_37_" class="st0" d="M49.1,322.6c-1.7,1.8-3.3,4.2-4.7,7c-0.5,0.9-0.9,1.9-1.3,2.9c-2.1-1-4-2.3-5.9-3.7
	C40.6,326,44.7,323.9,49.1,322.6z"/>
<path id="XMLID_36_" class="st0" d="M57.1,321.4v14.8c-3.8-0.2-7.6-1-11.1-2.4c0.4-1,0.8-1.9,1.3-2.8
	C50.1,325.5,53.5,322.2,57.1,321.4z"/>
<path id="XMLID_35_" class="st0" d="M80.5,328.7c-1.8,1.4-3.8,2.7-5.9,3.7c-0.4-1-0.8-2-1.3-2.9c-1.4-2.8-3-5.1-4.7-7
	C72.9,323.9,77,326,80.5,328.7z"/>
<path id="XMLID_34_" class="st0" d="M71.5,333.8c-3.5,1.4-7.3,2.2-11.1,2.4v-14.8c3.6,0.8,7.1,4.1,9.8,9.6
	C70.7,331.9,71.2,332.9,71.5,333.8z"/>
<path id="XMLID_33_" class="st0" d="M80.5,328.7c-1.8,1.4-3.8,2.7-5.9,3.7c-0.4-1-0.8-2-1.3-2.9c-1.4-2.8-3-5.1-4.7-7
	C72.9,323.9,77,326,80.5,328.7z"/>
<path id="XMLID_32_" class="st0" d="M93.8,354.6h-15c-0.1-6.8-1.2-13.3-3.1-19c2.6-1.3,5-2.8,7.3-4.7
	C89.3,337,93.4,345.3,93.8,354.6z"/>
<path id="XMLID_31_" class="st0" d="M93.8,357.9c-0.4,9.3-4.5,17.6-10.8,23.6c-2.3-1.8-4.7-3.4-7.3-4.7c1.9-5.6,2.9-12.1,3.1-19
	L93.8,357.9L93.8,357.9z"/>
<path id="XMLID_30_" class="st0" d="M80.5,383.8c-3.5,2.8-7.5,4.9-11.9,6.1c1.7-1.8,3.3-4.2,4.7-7c0.5-0.9,0.9-1.9,1.3-2.9
	C76.7,381.1,78.6,382.3,80.5,383.8z"/>
<path id="XMLID_29_" class="st0" d="M57.1,376.3v14.8c-3.6-0.8-7.1-4.1-9.8-9.6c-0.4-0.9-0.9-1.8-1.3-2.8
	C49.6,377.3,53.3,376.5,57.1,376.3z"/>
<path id="XMLID_28_" class="st0" d="M71.5,378.7c-0.4,1-0.8,1.9-1.3,2.8c-2.8,5.5-6.2,8.9-9.8,9.6v-14.8
	C64.3,376.5,68,377.3,71.5,378.7z"/>
<path id="XMLID_27_" class="st0" d="M75.5,357.9c-0.1,6.3-1.1,12.4-2.8,17.6c-3.9-1.5-8-2.4-12.2-2.6v-15.1L75.5,357.9L75.5,357.9z"
	/>
<path id="XMLID_26_" class="st0" d="M75.5,354.6h-15v-15.1c4.2-0.2,8.3-1.1,12.2-2.6C74.4,342.2,75.3,348.2,75.5,354.6z"/>
<path id="XMLID_25_" class="st0" d="M49.1,322.6c-1.7,1.8-3.3,4.2-4.7,7c-0.5,0.9-0.9,1.9-1.3,2.9c-2.1-1-4-2.3-5.9-3.7
	C40.6,326,44.7,323.9,49.1,322.6z"/>
<path id="XMLID_24_" class="st0" d="M57.1,321.4v14.8c-3.8-0.2-7.6-1-11.1-2.4c0.4-1,0.8-1.9,1.3-2.8
	C50.1,325.5,53.5,322.2,57.1,321.4z"/>
<path id="XMLID_23_" class="st0" d="M57.1,339.5v15.1h-15c0.1-6.3,1.1-12.4,2.8-17.6C48.8,338.5,52.9,339.3,57.1,339.5z"/>
<path id="XMLID_22_" class="st0" d="M57.1,357.9V373c-4.2,0.2-8.3,1.1-12.2,2.6c-1.7-5.2-2.6-11.3-2.8-17.6h15V357.9z"/>
<path id="XMLID_21_" class="st0" d="M41.9,335.6c-1.9,5.6-2.9,12.1-3.1,19h-15c0.4-9.3,4.5-17.6,10.8-23.6
	C36.8,332.8,39.3,334.3,41.9,335.6z"/>
<path id="XMLID_20_" class="st0" d="M41.9,376.9c-2.6,1.3-5,2.8-7.3,4.7c-6.3-6-10.3-14.4-10.8-23.6h15
	C38.9,364.7,40,371.2,41.9,376.9z"/>
<path id="XMLID_19_" class="st0" d="M95.1,390.7L95.1,390.7c0-0.1,0-0.2,0-0.2l0,0v-0.1l0,0c0,0,0-0.1-0.1-0.1l0,0
	c0-0.1-0.1-0.1-0.1-0.2l0,0c0-0.1-0.1-0.1-0.1-0.2l0,0l0,0c0,0,0-0.1-0.1-0.1l0,0l0,0l-0.1-0.1l0,0l-0.1-0.1l0,0
	c-0.1-0.1-0.2-0.1-0.4-0.1l0,0H94c0,0,0,0-0.1,0s-0.1,0-0.2,0l0,0c-0.1,0-0.1,0-0.2,0l0,0l-8.2,0.9c-0.9,0.1-1.6,0.9-1.5,1.8
	c0.1,0.9,0.9,1.6,1.8,1.5l3-0.3c-18.5,14.9-45.8,13.8-63.1-3.4c-8.9-8.9-13.8-20.8-13.8-33.4c0-0.9-0.7-1.7-1.7-1.7
	s-1.7,0.7-1.7,1.7c0,13.5,5.3,26.2,14.8,35.8c9.6,9.6,22.3,14.8,35.8,14.8c11.5,0,22.5-3.8,31.4-10.9l-0.7,2.3
	c-0.3,0.9,0.2,1.8,1.1,2.1c0.2,0,0.3,0.1,0.5,0.1c0.7,0,1.4-0.5,1.6-1.2l2.3-7.9l0,0l0,0l0,0c0-0.1,0-0.1,0-0.2c0,0,0,0,0-0.1v-0.1
	c0,0,0,0,0-0.1C95.1,390.8,95.1,390.8,95.1,390.7z"/>
<path id="XMLID_18_" class="st0" d="M94.6,320.5c-9.6-9.6-22.3-14.9-35.8-14.9c-11.5,0-22.5,3.8-31.4,10.9l0.7-2.3
	c0.3-0.9-0.2-1.8-1.1-2.1c-0.9-0.3-1.8,0.2-2.1,1.1l-2.3,7.9l0,0l0,0l0,0c0,0.1,0,0.1,0,0.2c0,0,0,0,0,0.1v0.1c0,0,0,0,0,0.1v0.1
	l0,0c0,0.1,0,0.1,0,0.2l0,0v0.1l0,0c0,0,0,0.1,0.1,0.1l0,0c0,0.1,0.1,0.1,0.1,0.2l0,0c0,0.1,0.1,0.1,0.1,0.2l0,0l0,0
	c0,0,0,0,0.1,0.1l0,0c0,0,0,0,0.1,0c0,0,0.1,0,0.1,0.1c0,0,0,0,0.1,0c0,0,0.1,0,0.1,0.1c0,0,0,0,0.1,0c0,0,0.1,0,0.1,0.1
	c0,0,0,0,0.1,0h0.1c0,0,0,0,0.1,0H24c0,0,0,0,0.1,0h0.1c0,0,0,0,0.1,0s0.1,0,0.2,0l0,0l0,0c0.1,0,0.1,0,0.2,0l0,0l8.2-0.9
	c0.9-0.1,1.6-0.9,1.5-1.8c-0.1-0.9-0.9-1.6-1.8-1.5l-3,0.3c18.5-14.9,45.8-13.8,63.1,3.4c8.9,8.9,13.8,20.8,13.8,33.4
	c0,0.9,0.7,1.7,1.7,1.7s1.7-0.7,1.7-1.7C109.4,342.7,104.2,330,94.6,320.5z"/>
<g id="icomoon-ignore">
</g>
<path class="st0" d="M112.9,180.8c-0.4-0.8-1.8-1-4.2-0.7c-4.4,0.6-7.5-0.9-9.5-4.3c-1.5-2.6-1.9-5.2-1.2-7.8s2.9-6.3,6.4-11.2
	l2.2-3.1c6.6-9.1,7.9-17,4.1-23.7c-3.9-6.8-15.4-6.3-23.6-2.8c-6.6-13.7-20.6-23.1-36.8-23.1c-22.6,0-40.9,18.3-40.9,40.9
	s18.3,40.9,40.9,40.9s40.9-18.3,40.9-40.9c0-5-0.9-9.8-2.6-14.2c2.8-1,6.1-1.7,9.2-1.8c4.1-0.1,7.8,0.7,9.3,3.3
	c3.3,5.7,1.7,12.4-4.8,20.2l-1.3,1.6c-7.5,9.1-9.4,17-5.4,23.8c1.6,2.8,4.1,4.7,7.6,5.9s6.4,1.1,8.8-0.3
	C113.3,182.9,113.6,182,112.9,180.8L112.9,180.8z M31.6,153.9c-4.7,0-8.5-3.8-8.5-8.5s3.8-8.5,8.5-8.5s8.5,3.8,8.5,8.5
	S36.3,153.9,31.6,153.9z M50.4,172.7c-4.7,0-8.5-3.8-8.5-8.5s3.8-8.5,8.5-8.5s8.5,3.8,8.5,8.5S55.1,172.7,50.4,172.7z M47,145.4
	c0-1.9,1.5-3.4,3.4-3.4s3.4,1.5,3.4,3.4s-1.5,3.4-3.4,3.4S47,147.3,47,145.4z M50.4,135.2c-4.7,0-8.5-3.8-8.5-8.5
	c0-4.7,3.8-8.5,8.5-8.5s8.5,3.8,8.5,8.5C58.9,131.4,55.1,135.2,50.4,135.2z M69.1,153.9c-4.7,0-8.5-3.8-8.5-8.5s3.8-8.5,8.5-8.5
	s8.5,3.8,8.5,8.5S73.9,153.9,69.1,153.9z"/>
<path class="st0" d="M109.1,215.8H87c0,0-0.2-0.4-0.2-5.6c0-5.1-4.2-9.3-9.3-9.3H47.7c-5.1,0-9.3,4.2-9.3,9.3c0,5.1,0.2,5.6,0.2,5.6
	H16c-4.1,0-7.5,3.3-7.5,7.5V283c0,4.1,3.3,7.5,7.5,7.5h93.2c4.1,0,7.5-3.3,7.5-7.5v-59.7C116.6,219.1,113.3,215.8,109.1,215.8z
	 M62.7,275.4c-12.4,0-22.4-10-22.4-22.4s10-22.4,22.4-22.4s22.4,10,22.4,22.4S75,275.4,62.7,275.4z"/>
</svg>
