<?xml version="1.0" encoding="utf-8"?>
<!-- Generator: Adobe Illustrator 21.1.0, SVG Export Plug-In . SVG Version: 6.00 Build 0)  -->
<svg version="1.1" id="Calque_1" xmlns="http://www.w3.org/2000/svg" xmlns:xlink="http://www.w3.org/1999/xlink" x="0px" y="0px"
	 viewBox="0 0 125 605.3" style="enable-background:new 0 0 125 605.3;" xml:space="preserve">
<style type="text/css">
	.st0{fill:#FFFFFF;}
</style>
<g id="icomoon-ignore">
</g>
<g>
	<g>
		<g>
			<path class="st0" d="M37.3,68.7l-1.5,0.9c-0.8,0.5-1.1,1.6-0.6,2.4c0.5,0.8,1.6,1.1,2.4,0.6l22.1-13.3c1.7-1,3.8-1,5.5,0
				l46.9,28.3c1.2,0.7,2,1.9,2.4,3.2c0.3,1.3,0.1,2.7-0.6,3.9c-1,1.5-2.7,2.5-4.5,2.5c-1,0-1.9-0.3-2.8-0.8l-10.2-6.2
				c-0.8-0.5-1.9-0.2-2.4,0.6s-0.2,1.9,0.6,2.4l8.4,5.1v57.4H36.4c-1,0-1.8,0.8-1.8,1.8c0,1,0.8,1.8,1.8,1.8h80c1,0,1.8-0.8,1.8-1.8
				c0-1-0.8-1.8-1.8-1.8h-10v-55.6c0.9,0.3,1.9,0.5,2.9,0.5c3.1,0,5.9-1.5,7.5-4.1c1.2-2,1.6-4.3,1.1-6.5c-0.5-2.3-2-4.2-4-5.4
				L67.1,56.3c-2.8-1.7-6.3-1.7-9.2,0L40.8,66.6"/>
			<path class="st0" d="M23.3,77.2l-12.2,7.4c-2,1.2-3.4,3.1-4,5.4c-0.5,2.3-0.2,4.6,1.1,6.5c2.2,3.5,6.6,5,10.4,3.6v55.6h-10
				c-1,0-1.8,0.8-1.8,1.8c0,1,0.8,1.8,1.8,1.8h21.1c1,0,1.8-0.8,1.8-1.8c0-1-0.8-1.8-1.8-1.8h-7.6V98.3l40.4-24.4L89.2,90
				c0.8,0.5,1.9,0.2,2.4-0.6c0.5-0.8,0.2-1.9-0.6-2.4L63.4,70.3c-0.6-0.3-1.3-0.3-1.8,0L18.4,96.4c-2.5,1.5-5.7,0.7-7.3-1.7
				c-0.7-1.2-1-2.5-0.6-3.9c0.3-1.3,1.2-2.5,2.4-3.2l19.8-12c0.8-0.5,1.1-1.6,0.6-2.4c-0.5-0.8-1.6-1.1-2.4-0.6l-4.1,2.5"/>
			<path class="st0" d="M39.7,115.3v21.1c0,2.3,1.8,4.1,4.1,4.1h37.5c2.3,0,4.1-1.8,4.1-4.1v-21.1c0-2.3-1.8-4.1-4.1-4.1H43.8
				C41.5,111.2,39.7,113.1,39.7,115.3z M60.7,137h-17c-0.3,0-0.6-0.3-0.6-0.6v-12.3h17.6V137L60.7,137z M64.3,124.1h12.3
				c1,0,1.8-0.8,1.8-1.8s-0.8-1.8-1.8-1.8H64.3v-5.8h17c0.3,0,0.6,0.3,0.6,0.6v21.1c0,0.3-0.3,0.6-0.6,0.6h-17V124.1L64.3,124.1z
				 M60.7,120.6H43.2v-5.3c0-0.3,0.3-0.6,0.6-0.6h17V120.6L60.7,120.6z"/>
			<path class="st0" d="M66,98.3c3.5,0,6.4-2.9,6.4-6.4c0-3.5-2.9-6.4-6.4-6.4h-7c-3.5,0-6.4,2.9-6.4,6.4c0,3.5,2.9,6.4,6.4,6.4H66z
				 M56.1,91.9c0-1.6,1.3-2.9,2.9-2.9h7c1.6,0,2.9,1.3,2.9,2.9c0,1.6-1.3,2.9-2.9,2.9h-7C57.4,94.8,56.1,93.5,56.1,91.9z"/>
		</g>
	</g>
</g>
<g>
	<g>
		<g>
			<path class="st0" d="M50.9,226.5c-4.4,0-8,3.6-8,8c0,4.4,3.6,8,8,8s8-3.6,8-8C58.9,230,55.3,226.5,50.9,226.5z M50.9,238.9
				c-2.5,0-4.5-2-4.5-4.5s2-4.5,4.5-4.5c2.5,0,4.5,2,4.5,4.5S53.4,238.9,50.9,238.9z"/>
		</g>
	</g>
	<g>
		<g>
			<path class="st0" d="M83.2,218.2c-2.3-2.3-5.4-3.5-8.7-3.5c-0.9,0-1.9,0.1-2.8,0.3c-3.2,0.8-6,2.7-7.7,5.5
				c-1.8,2.9-2.3,6.6-1.4,9.9c1.5,5.4,6.3,9.1,11.9,9.1c4.2,0,8.3-2.2,10.5-5.8C88.1,228.7,87.3,222.2,83.2,218.2z M74.1,235.9
				c0,0.3-3.2-0.8-3.5-0.9c-3.5-1.7-5.5-5.6-4.9-9.4c0.4-2.2,1.6-4.2,3.3-5.6c3.3,4.1,5.1,9.2,5.1,14.5
				C74.2,234.9,74.1,235.4,74.1,235.9z M77.6,235.4c0-0.3,0-0.6,0-1c0-5.8-1.9-11.4-5.4-16c0.1,0,0.2,0,0.3-0.1
				c4.8-1.1,9.6,1.9,10.7,6.7C84.3,229.3,81.8,233.9,77.6,235.4z"/>
		</g>
	</g>
	<g>
		<g>
			<path class="st0" d="M75.8,246.6c-2.4-3.1-6-4.9-9.9-4.9c-3.9,0-7.5,1.9-9.8,4.8c-1,1.2-1.7,2.6-2.1,4.1c-1.1,3.7-0.3,7.9,2,11
				c2.4,3.1,6,4.9,9.9,4.9c2.7,0,5.3-0.9,7.5-2.5c2.6-2,4.3-4.9,4.8-8.2C78.6,252.4,77.8,249.2,75.8,246.6z M74.8,255.3
				c-0.3,2.4-1.5,4.4-3.4,5.9c-1.6,1.2-3.4,1.8-5.4,1.8c-2.7,0-5.1-1.2-6.8-3.2c1.6-0.5,3.2-1.2,4.7-2c0.8-0.5,1.2-1.5,0.7-2.3
				c-0.5-0.8-1.5-1.2-2.3-0.7c-1.5,0.8-3.1,1.5-4.7,2c-0.5-1.7-0.5-3.5-0.1-5.1c0,0,0,0,0,0c1.4-5,7-7.7,11.8-5.8
				c0.6,0.2,1.1,0.5,1.6,0.8c-1,1.5-2.1,3-3.4,4.3c-0.7,0.7-0.7,1.8,0,2.5s1.8,0.7,2.5,0c1.3-1.3,2.5-2.7,3.5-4.3
				C74.5,250.9,75.1,253.1,74.8,255.3z"/>
		</g>
	</g>
	<g>
		<g>
			<path class="st0" d="M48.2,252.4C48.2,252.4,48.2,252.4,48.2,252.4c-0.7-5.2-4.8-9.5-9.9-10.5c-1.3-0.3-2.7-0.3-4-0.1
				c-3.2,0.4-6.2,2.1-8.2,4.7c-2,2.6-2.9,5.9-2.4,9.2c0.4,3.3,2.1,6.2,4.8,8.2c2.2,1.7,4.8,2.5,7.5,2.5c3.9,0,7.5-1.8,9.9-4.9
				C47.8,259,48.7,255.7,48.2,252.4z M36,263c-2,0-3.8-0.6-5.4-1.8c-1.9-1.4-3.1-3.5-3.4-5.9c-0.3-2.2,0.2-4.4,1.5-6.2
				c3.4,5.1,8.4,8.9,14.2,10.8C41.1,261.8,38.6,263,36,263z M44.5,256.7c-5.6-1.6-10.3-5.2-13.3-10.2c1.1-0.7,2.3-1.1,3.5-1.3
				c0,0,0,0,0.1,0c3.5-0.5,7,1.2,8.8,4.2C44.9,251.6,45.3,254.3,44.5,256.7z"/>
		</g>
	</g>
	<g>
		<g>
			<path class="st0" d="M30.1,214.9c-6.6-1.5-13.3,2.7-14.9,9.3c-1.5,6.6,2.7,13.3,9.3,14.9c6.6,1.5,13.3-2.7,14.9-9.3
				C40.9,223.2,36.7,216.5,30.1,214.9z M24.3,234.4c0,0.3,0,0.6,0,1c-1.9-0.7-3.5-1.9-4.5-3.7c-1.3-2-1.7-4.4-1.1-6.7
				c1-4.1,4.5-6.9,8.7-6.9c0.7,0,1.3,0.1,2,0.2c0.1,0,0.2,0,0.3,0.1C26.1,223,24.3,228.6,24.3,234.4z M36.2,228.3c0,0,0,0.1,0,0.1
				c-0.7,4.1-4.2,7.3-8.4,7.5c0-0.5,0-1,0-1.5c0-5.3,1.8-10.4,5.1-14.5C35.3,221.9,36.6,225.1,36.2,228.3z"/>
		</g>
	</g>
	<g>
		<g>
			<path class="st0" d="M50.9,197.3c-6.8,0-12.4,5.6-12.4,12.4c0,3.5,1.5,6.8,4,9.1c2.3,2.1,5.3,3.3,8.3,3.3c3.6,0,7.2-1.7,9.5-4.5
				c1.8-2.2,2.9-5,2.9-7.9C63.3,202.9,57.8,197.3,50.9,197.3z M58.5,214.4c-0.6,0.9-1.3,1.7-2.2,2.4c-1.5,1.2-3.4,1.8-5.4,1.8
				c-1.6,0-3.3-0.5-4.7-1.3c-1.7-1.1-3-2.7-3.7-4.5c2.7-1,5.5-1.6,8.4-1.6s5.7,0.5,8.4,1.6C59.4,212.8,58.6,214.3,58.5,214.4z
				 M50.9,207.7c-3.1,0-6.1,0.5-8.9,1.5c0.2-4.7,4.1-8.5,8.9-8.5c4.8,0,8.7,3.8,8.9,8.5C57,208.2,54,207.7,50.9,207.7z"/>
		</g>
	</g>
	<g>
		<g>
			<path class="st0" d="M117.4,251.9h-6.9c-0.8,0-1.7,0-2.5,0.1c-1,0.1-1.7,0.9-1.6,1.9c0.1,1,0.9,1.7,1.9,1.6
				c0.7-0.1,1.5-0.1,2.2-0.1h5.2v6.9h-5.2c-4,0-6.3,0.9-11.3,5.8c-5.1,5.1-11.8,7.9-19,7.9h-12c4.1-1.7,8-4.1,11.5-6.9h0.5
				c5.3,0,10.3-2.1,14.1-5.8c2.3-2.3,4.8-4.6,7.7-6c0.9-0.4,1.2-1.5,0.8-2.3s-1.5-1.2-2.3-0.8c-3.3,1.7-6.1,4.2-8.6,6.7
				c-2.2,2.2-5,3.8-8.1,4.4c7.6-8.1,12.2-18.9,12.2-30.8c0-24.8-20.2-45.1-45.1-45.1c-9.2,0-18,2.7-25.5,7.9c-0.8,0.6-1,1.6-0.4,2.4
				c0.6,0.8,1.6,1,2.4,0.4c6.9-4.8,15.1-7.3,23.6-7.3c22.9,0,41.6,18.7,41.6,41.6c0,16.1-9.2,30.1-22.6,37
				c-5.4,2.8-11.5,4.4-17.6,4.6c-0.4,0-0.9,0-1.4,0c-23,0-41.6-18.7-41.6-41.6c0-11.5,4.6-22.1,12.9-30.1c0.7-0.7,0.7-1.8,0-2.5
				s-1.8-0.7-2.5,0c-4.4,4.2-7.8,9.1-10.2,14.6c-2.5,5.7-3.7,11.7-3.7,18c0,24.8,20.2,45.1,45.1,45.1c0.4,0,0.8,0,1.2,0
				c0.1,0,0.1,0,0.2,0h27.9c8.1,0,15.7-3.1,21.4-8.9c4-4,5.5-4.8,8.8-4.8h6.9c1,0,1.7-0.8,1.7-1.7v-10.4
				C119.1,252.7,118.4,251.9,117.4,251.9z"/>
		</g>
	</g>
</g>
<g>
	<g>
		<path class="st0" d="M62.5,489.7c-13,0-23.6-12.7-23.6-28.2c0-13.9,2.8-28.2,23.6-28.2c20.8,0,23.6,14.3,23.6,28.2
			c0,7.5-2.4,14.6-6.9,19.9c-0.7,0.8-1.9,0.9-2.7,0.2c-0.8-0.7-0.9-1.9-0.2-2.7c3.9-4.6,6-10.8,6-17.5c0-8.3-1.1-13.7-3.6-17.6
			c-3-4.6-8.3-6.8-16.2-6.8c-7.9,0-13.1,2.2-16.2,6.8c-2.5,3.8-3.6,9.2-3.6,17.6c0,13.4,8.9,24.4,19.7,24.4c3.1,0,6-0.9,8.8-2.5
			c0.9-0.6,2.1-0.3,2.6,0.6c0.6,0.9,0.3,2.1-0.6,2.6C70,488.7,66.3,489.7,62.5,489.7z"/>
	</g>
	<g>
		<path class="st0" d="M21.6,529.9c-1.1,0-1.9-0.9-1.9-1.9v-0.5c0-1.1,0.9-1.9,1.9-1.9c1.1,0,1.9,0.9,1.9,1.9v0.5
			C23.5,529,22.7,529.9,21.6,529.9z"/>
	</g>
	<g>
		<path class="st0" d="M103.4,530.6c-1.1,0-1.9-0.9-1.9-1.9v-0.8c0-1.1,0.9-1.9,1.9-1.9s1.9,0.9,1.9,1.9v0.8
			C105.3,529.7,104.5,530.6,103.4,530.6z"/>
	</g>
	<g>
		<path class="st0" d="M62.5,544.7c-35.6,0-42.3-12.7-42.6-13.2c-0.1-0.3-0.2-0.6-0.2-0.8V528c0-0.1,0-0.2,0-0.3c0-0.2,0-0.7,0-1.6
			c0.2-12.5,1.2-20.9,5.7-26.8c4.3-5.7,11.2-8.8,24.9-11.3c0.7-0.1,1.4,0.1,1.8,0.7c0.1,0.1,3.2,3.8,10.4,3.8s10.2-3.7,10.4-3.8
			c0.4-0.6,1.1-0.8,1.8-0.7c13.8,2.5,20.8,5.7,25,11.5c4.4,6,5.3,14.6,5.5,27.4c0,0.7,0,1.2,0,1.5c0,0.1,0,0.2,0,0.3v2
			c0,0.3-0.1,0.6-0.2,0.8c-0.2,0.4-2.3,4.4-10.1,7.8c-1,0.4-2.1,0-2.5-1c-0.4-1,0-2.1,1-2.5c5.3-2.4,7.4-4.9,8.1-5.8v-1.4
			c0-0.1,0-0.1,0-0.2c0,0,0,0,0,0c0-0.3,0-0.7,0-1.5c-0.2-12.1-1-20.1-4.8-25.2c-3.4-4.7-9.7-7.6-21.6-9.8
			c-1.6,1.5-5.6,4.4-12.5,4.4c-6.9,0-10.9-2.9-12.5-4.4c-23.3,4.4-26,11-26.4,34.2c0,0.8,0,1.3,0,1.6c0,0.1,0,0.2,0,0.4v2
			c1.3,1.8,9.3,10.8,39,10.8c9,0,16.8-0.8,23.2-2.4c1-0.3,2.1,0.4,2.3,1.4c0.3,1-0.4,2.1-1.4,2.3C79.9,543.8,71.8,544.7,62.5,544.7z
			"/>
	</g>
</g>
<g>
	<path class="st0" d="M81.8,326c0-0.8-0.7-1.5-1.5-1.5h-42c-0.8,0-1.5,0.7-1.5,1.5c0,0.8,0.7,1.5,1.5,1.5h42
		C81.1,327.5,81.8,326.9,81.8,326z"/>
	<path class="st0" d="M33.5,327.5c0.8,0,1.5-0.7,1.5-1.5c0-0.8-0.7-1.5-1.5-1.5h-2.5c-0.8,0-1.5,0.7-1.5,1.5c0,0.8,0.7,1.5,1.5,1.5
		H33.5z"/>
	<path class="st0" d="M26.1,327.5c0.8,0,1.5-0.7,1.5-1.5c0-0.8-0.7-1.5-1.5-1.5h-2c-0.8,0-1.5,0.7-1.5,1.5c0,0.8,0.7,1.5,1.5,1.5
		H26.1z"/>
	<path class="st0" d="M48.6,356.1c0.8,0,1.5-0.7,1.5-1.5v-19.5c0-0.8-0.7-1.5-1.5-1.5H24.9c-0.8,0-1.5,0.7-1.5,1.5v37.2
		c0,0.8,0.7,1.5,1.5,1.5h23.8c0.8,0,1.5-0.7,1.5-1.5v-10.9c0-0.8-0.7-1.5-1.5-1.5c-0.8,0-1.5,0.7-1.5,1.5v9.4H26.4v-34.3h20.8v18
		C47.1,355.5,47.8,356.1,48.6,356.1z"/>
	<path class="st0" d="M57.5,398.9h23.8c0.8,0,1.5-0.7,1.5-1.5v-14.3c0-0.8-0.7-1.5-1.5-1.5H57.5c-0.8,0-1.5,0.7-1.5,1.5v14.3
		C56,398.3,56.7,398.9,57.5,398.9z M59,384.6h20.8V396H59L59,384.6L59,384.6z"/>
	<path class="st0" d="M48.6,378.8H24.9c-0.8,0-1.5,0.7-1.5,1.5s0.7,1.5,1.5,1.5h23.8c0.8,0,1.5-0.7,1.5-1.5S49.4,378.8,48.6,378.8z"
		/>
	<path class="st0" d="M48.6,387.1h-4.5c-0.8,0-1.5,0.7-1.5,1.5s0.7,1.5,1.5,1.5h4.5c0.8,0,1.5-0.7,1.5-1.5S49.4,387.1,48.6,387.1z"
		/>
	<path class="st0" d="M24.9,390H38c0.8,0,1.5-0.7,1.5-1.5s-0.7-1.5-1.5-1.5H24.9c-0.8,0-1.5,0.7-1.5,1.5S24,390,24.9,390z"/>
	<path class="st0" d="M24.9,398.3h23.8c0.8,0,1.5-0.7,1.5-1.5s-0.7-1.5-1.5-1.5H24.9c-0.8,0-1.5,0.7-1.5,1.5S24,398.3,24.9,398.3z"
		/>
	<path class="st0" d="M81.3,333.7H70.2c-0.8,0-1.5,0.7-1.5,1.5c0,0.8,0.7,1.5,1.5,1.5h11.1c0.8,0,1.5-0.7,1.5-1.5
		C82.8,334.3,82.1,333.7,81.3,333.7z"/>
	<path class="st0" d="M57.5,333.7c-0.8,0-1.5,0.7-1.5,1.5c0,0.8,0.7,1.5,1.5,1.5h5.3c0.8,0,1.5-0.7,1.5-1.5c0-0.8-0.7-1.5-1.5-1.5
		H57.5z"/>
	<path class="st0" d="M81.3,341.9H57.5c-0.8,0-1.5,0.7-1.5,1.5s0.7,1.5,1.5,1.5h23.8c0.8,0,1.5-0.7,1.5-1.5S82.1,341.9,81.3,341.9z"
		/>
	<path class="st0" d="M81.3,350.1H57.5c-0.8,0-1.5,0.7-1.5,1.5s0.7,1.5,1.5,1.5h23.8c0.8,0,1.5-0.7,1.5-1.5S82.1,350.1,81.3,350.1z"
		/>
	<path class="st0" d="M81.3,357.9h-6.5c-0.8,0-1.5,0.7-1.5,1.5s0.7,1.5,1.5,1.5h6.5c0.8,0,1.5-0.7,1.5-1.5S82.1,357.9,81.3,357.9z"
		/>
	<path class="st0" d="M57.5,360.9h11.1c0.8,0,1.5-0.7,1.5-1.5s-0.7-1.5-1.5-1.5H57.5c-0.8,0-1.5,0.7-1.5,1.5S56.7,360.9,57.5,360.9z
		"/>
	<path class="st0" d="M81.3,366.1H57.5c-0.8,0-1.5,0.7-1.5,1.5s0.7,1.5,1.5,1.5h23.8c0.8,0,1.5-0.7,1.5-1.5S82.1,366.1,81.3,366.1z"
		/>
	<path class="st0" d="M81.3,374.3H57.5c-0.8,0-1.5,0.7-1.5,1.5s0.7,1.5,1.5,1.5h23.8c0.8,0,1.5-0.7,1.5-1.5S82.1,374.3,81.3,374.3z"
		/>
	<path class="st0" d="M94.4,381.8h6.5c0.8,0,1.5-0.7,1.5-1.5s-0.7-1.5-1.5-1.5h-6.5c-0.8,0-1.5,0.7-1.5,1.5S93.5,381.8,94.4,381.8z"
		/>
	<path class="st0" d="M16.3,386.6c0.8,0,1.5-0.7,1.5-1.5v-69.1h71l0,18.2c0,0.8,0.7,1.5,1.5,1.5h0c0.8,0,1.5-0.7,1.5-1.5v-19.7
		c0-0.8-0.7-1.5-1.5-1.5H16.3c-0.8,0-1.5,0.7-1.5,1.5v70.5C14.8,385.9,15.4,386.6,16.3,386.6z"/>
	<path class="st0" d="M108.7,370.4H91.7v-27.9c0-0.8-0.6-1.5-1.3-1.5c-0.9-0.1-1.6,0.6-1.6,1.5l0,57.1c0,3.1,1.3,5.8,3.3,7.8
		l-66.5,0c-4.3,0-7.8-3.5-7.8-7.8v-7.9c0-0.8-0.7-1.5-1.5-1.5c-0.8,0-1.5,0.7-1.5,1.5v7.9c0,5.9,4.8,10.8,10.8,10.8l73.6,0
		c0,0,0.1,0,0.1,0c0.2,0,0.4,0,0.5,0c5.9-0.1,10.5-5.1,10.5-10.9v-27.5C110.2,371.1,109.6,370.4,108.7,370.4z M107.3,399.6
		c0,4.3-3.5,7.8-7.8,7.8s-7.8-3.5-7.8-7.8l0-1.3h9.2c0.8,0,1.5-0.7,1.5-1.5s-0.7-1.5-1.5-1.5h-9.2V390h9.2c0.8,0,1.5-0.7,1.5-1.5
		s-0.7-1.5-1.5-1.5h-9.2v-13.7h15.6L107.3,399.6L107.3,399.6z"/>
</g>
</svg>
