<?xml version="1.0" encoding="utf-8"?>
<!-- Generator: Adobe Illustrator 19.0.0, SVG Export Plug-In . SVG Version: 6.00 Build 0)  -->
<svg version="1.1" id="Calque_1" xmlns="http://www.w3.org/2000/svg" xmlns:xlink="http://www.w3.org/1999/xlink" x="0px" y="0px"
	 viewBox="-281 282.3 32 32" style="enable-background:new -281 282.3 32 32;" xml:space="preserve">
<style type="text/css">
	.st0{fill:#FFFFFF;}
</style>
<path class="st0" d="M-253,290.3h-5.9c0,0-0.1-0.1-0.1-1.5s-1.1-2.5-2.5-2.5h-8c-1.4,0-2.5,1.1-2.5,2.5s0.1,1.5,0.1,1.5h-6.1
	c-1.1,0-2,0.9-2,2v16c0,1.1,0.9,2,2,2h25c1.1,0,2-0.9,2-2v-16C-251,291.2-251.9,290.3-253,290.3z M-265.5,306.3c-3.3,0-6-2.7-6-6
	s2.7-6,6-6c3.3,0,6,2.7,6,6S-262.1,306.3-265.5,306.3z"/>
</svg>
