<?xml version="1.0" encoding="utf-8"?>
<!-- Generator: Adobe Illustrator 21.1.0, SVG Export Plug-In . SVG Version: 6.00 Build 0)  -->
<svg version="1.1" id="Capa_1" xmlns="http://www.w3.org/2000/svg" xmlns:xlink="http://www.w3.org/1999/xlink" x="0px" y="0px"
	 viewBox="0 0 350 350" style="enable-background:new 0 0 350 350;" xml:space="preserve">
<style type="text/css">
	.st0{fill:#FFFFFF;}
</style>
<g>
	<g>
		<path class="st0" d="M175,177.3c-40.8,0-74-39.7-74-88.5c0-43.8,8.8-88.5,74-88.5c65.2,0,74,44.8,74,88.5
			c0,23.6-7.7,45.9-21.6,62.6c-2.1,2.5-5.9,2.9-8.5,0.8c-2.5-2.1-2.9-5.9-0.8-8.5c12.1-14.6,18.8-34,18.8-54.9
			c0-26.2-3.5-43.1-11.3-55.1c-9.4-14.4-26-21.4-50.7-21.4c-24.7,0-41.3,7-50.7,21.4C116.5,45.7,113,62.6,113,88.8
			c0,42.2,27.8,76.5,62,76.5c9.6,0,18.9-2.7,27.5-8c2.8-1.7,6.5-0.9,8.3,2c1.7,2.8,0.9,6.5-2,8.3C198.4,174,186.7,177.3,175,177.3z"
			/>
	</g>
	<g>
		<path class="st0" d="M46.7,303.4c-3.3,0-6-2.7-6-6v-1.5c0-3.3,2.7-6,6-6s6,2.7,6,6v1.5C52.7,300.7,50,303.4,46.7,303.4z"/>
	</g>
	<g>
		<path class="st0" d="M303.3,305.5c-3.3,0-6-2.7-6-6v-2.5c0-3.3,2.7-6,6-6s6,2.7,6,6v2.5C309.3,302.8,306.6,305.5,303.3,305.5z"/>
	</g>
	<g>
		<path class="st0" d="M174.9,349.7C63,349.7,42,310,41.2,308.3c-0.4-0.8-0.6-1.7-0.6-2.7v-8.4c0-0.3,0-0.7,0.1-1
			c0-0.7,0.1-2.2,0.1-5c0.7-39.2,3.9-65.5,17.8-84.1c13.3-17.8,35.2-27.8,78.1-35.5c2.2-0.4,4.4,0.5,5.8,2.2c0.4,0.4,10,12,32.5,12
			s32.1-11.5,32.5-12c1.4-1.8,3.6-2.6,5.8-2.2c43.3,7.8,65.3,18,78.6,36.2c13.7,18.8,16.7,45.7,17.4,86c0,2.3,0.1,3.7,0.1,4.6
			c0,0.4,0,0.7,0,1.1v6.1c0,0.9-0.2,1.8-0.6,2.7c-0.7,1.4-7.4,13.7-31.8,24.6c-3,1.4-6.6,0-7.9-3c-1.3-3,0-6.6,3-7.9
			c16.6-7.4,23.3-15.3,25.3-18.1v-4.4c0-0.2,0-0.4,0-0.5c0,0,0-0.1,0-0.1c0-0.8-0.1-2.3-0.1-4.7c-0.6-37.9-3.3-62.9-15.1-79.1
			c-10.8-14.8-30.6-23.8-67.9-30.9c-5.1,4.7-17.7,13.8-39.3,13.8c-21.6,0-34.2-9.1-39.3-13.8c-73.1,13.7-81.5,34.4-82.9,107.4
			c0,2.5-0.1,4-0.1,5c0,0.4,0,0.8-0.1,1.1v6.3c4,5.6,29,33.8,122.3,33.8c28.2,0,52.7-2.6,73-7.7c3.2-0.8,6.5,1.1,7.3,4.4
			c0.8,3.2-1.1,6.5-4.4,7.3C229.6,347,204.1,349.7,174.9,349.7z"/>
	</g>
</g>
</svg>
