<?xml version="1.0" encoding="utf-8"?>
<!-- Generator: Adobe Illustrator 19.2.1, SVG Export Plug-In . SVG Version: 6.00 Build 0)  -->
<svg version="1.1" id="Calque_1" xmlns="http://www.w3.org/2000/svg" xmlns:xlink="http://www.w3.org/1999/xlink" x="0px" y="0px"
	 viewBox="0 0 769 116.7" style="enable-background:new 0 0 769 116.7;" xml:space="preserve">
<style type="text/css">
	.st0{fill:#662D8F;stroke:#221F1F;stroke-miterlimit:10;}
	.st1{fill:#8D62A8;stroke:#221F1F;stroke-miterlimit:10;}
	.st2{fill:none;stroke:#221F1F;stroke-miterlimit:10;}
	.st3{fill:#221F1F;}
	.st4{font-family:'PathwayGothicOne-Book';}
	.st5{font-size:18px;}
	.st6{font-size:20px;}
	.st7{font-size:10.1186px;}
</style>
<title>formation</title>
<polygon class="st0" points="245.8,36.7 215.8,47.9 1,47.9 31,36.7 1,25.6 215.8,25.6 "/>
<polygon class="st1" points="766.9,36.7 736.9,47.9 563.5,47.9 593.5,36.7 563.5,25.6 736.9,25.6 "/>
<polygon class="st1" points="575.8,36.7 545.8,47.9 215.8,47.9 245.8,36.7 215.8,25.6 545.8,25.6 "/>
<polygon class="st1" points="594.6,36.7 564.6,47.9 545.8,47.9 575.8,36.7 545.8,25.6 564.6,25.6 "/>
<polygon class="st0" points="593.5,36.7 563.5,47.9 544.7,47.9 574.7,36.7 544.7,25.6 563.5,25.6 "/>
<line class="st2" x1="559" y1="53.7" x2="559" y2="72.6"/>
<line class="st2" x1="710.5" y1="55.7" x2="710.5" y2="74.6"/>
<line class="st2" x1="378" y1="55.7" x2="378" y2="74.6"/>
<line class="st2" x1="119.4" y1="52.7" x2="119.4" y2="71.6"/>
<text transform="matrix(1 0 0 1 105.9204 87.8612)" class="st3 st4 st5">Bac S</text>
<text transform="matrix(1 0 0 1 353.9704 90.8614)" class="st3 st4 st5">E-artsup</text>
<text transform="matrix(1 0 0 1 690.3307 90.8612)" class="st3 st4 st5">E-artsup</text>
<text transform="matrix(1 0 0 1 518.3063 92.8617)" class="st3 st4 st5">Certificat HEC</text>
<text transform="matrix(1 0 0 1 497.4596 110.9951)" class="st3 st4 st5">Digital entreprenariat</text>
<g>
	<text transform="matrix(1 0 0 1 105.3872 18.1857)" class="st4 st6">2013</text>
</g>
<g>
	<text transform="matrix(1 0 0 1 231.5055 18.3864)" class="st4 st6">2014</text>
</g>
<text transform="matrix(1 0 0 1 695.1722 17.0531)" class="st4 st6">2016</text>
<text transform="matrix(1 0 0 1 542.3809 18.388)" class="st4 st7">MAI 2016</text>
</svg>
