<?xml version="1.0" encoding="utf-8"?>
<!-- Generator: Adobe Illustrator 21.1.0, SVG Export Plug-In . SVG Version: 6.00 Build 0)  -->
<svg version="1.1" id="Layer_1" xmlns="http://www.w3.org/2000/svg" xmlns:xlink="http://www.w3.org/1999/xlink" x="0px" y="0px"
	 viewBox="0 0 512 512" style="enable-background:new 0 0 512 512;" xml:space="preserve">
<style type="text/css">
	.st0{fill:#FFFFFF;}
</style>
<g>
	<g>
		<g>
			<path class="st0" d="M140.1,95.5l-6.8,4.1c-3.8,2.3-5,7.3-2.7,11.1c2.3,3.8,7.3,5,11.1,2.7L243.3,52c7.9-4.8,17.6-4.8,25.5,0
				l215.6,130.3c5.5,3.3,9.4,8.6,10.9,14.8c1.5,6.1,0.4,12.4-2.9,17.8c-4.4,7.1-12.2,11.4-20.7,11.4c-4.5,0-8.9-1.2-12.7-3.5
				l-47-28.4c-3.8-2.3-8.8-1.1-11.1,2.7c-2.3,3.8-1.1,8.8,2.7,11.1l38.5,23.3v264.3H135.8c-4.5,0-8.1,3.6-8.1,8.1s3.6,8.1,8.1,8.1
				h368.1c4.5,0,8.1-3.6,8.1-8.1s-3.6-8.1-8.1-8.1h-45.8V240.2c4.3,1.5,8.8,2.3,13.4,2.3c14.2,0,27-7.1,34.4-19
				c5.7-9.1,7.4-19.8,4.9-30.1c-2.5-10.4-9-19.3-18.2-24.9L277.1,38.2c-13-7.9-29.2-7.9-42.2,0l-78.6,47.5"/>
			<path class="st0" d="M75.5,134.6l-56.1,33.9c-9.3,5.6-15.7,14.4-18.2,24.9c-2.5,10.4-0.7,21.1,4.9,30.1
				c10.1,16.3,30.3,22.8,47.9,16.7v255.6H8.1c-4.5,0-8.1,3.6-8.1,8.1s3.6,8.1,8.1,8.1h97c4.5,0,8.1-3.6,8.1-8.1s-3.6-8.1-8.1-8.1
				h-35V231.5L256,119.1l122.7,74.2c3.8,2.3,8.8,1.1,11.1-2.7c2.3-3.8,1.1-8.8-2.7-11.1l-126.9-76.7c-2.6-1.6-5.8-1.6-8.4,0
				l-198.6,120c-11.4,6.9-26.4,3.4-33.4-7.8c-3.3-5.4-4.4-11.7-2.9-17.8c1.5-6.2,5.3-11.5,10.9-14.8l91-55c3.8-2.3,5-7.3,2.7-11.1
				c-2.3-3.8-7.3-5-11.1-2.7l-18.7,11.3"/>
			<path class="st0" d="M150.9,309.9v97c0,10.4,8.5,18.9,18.9,18.9h172.5c10.4,0,18.9-8.5,18.9-18.9v-97c0-10.4-8.5-18.9-18.9-18.9
				H169.8C159.4,291,150.9,299.5,150.9,309.9z M247.9,409.6h-78.1c-1.5,0-2.7-1.2-2.7-2.7v-56.6h80.8V409.6L247.9,409.6z
				 M264.1,350.3h56.6c4.5,0,8.1-3.6,8.1-8.1s-3.6-8.1-8.1-8.1h-56.6v-26.9h78.1c1.5,0,2.7,1.2,2.7,2.7v97c0,1.5-1.2,2.7-2.7,2.7
				h-78.1V350.3L264.1,350.3z M247.9,334.1h-80.8v-24.3c0-1.5,1.2-2.7,2.7-2.7h78.1V334.1L247.9,334.1z"/>
			<path class="st0" d="M272.2,231.7c16.3,0,29.6-13.3,29.6-29.6s-13.3-29.6-29.6-29.6h-32.3c-16.3,0-29.6,13.3-29.6,29.6
				s13.3,29.6,29.6,29.6H272.2z M226.4,202.1c0-7.4,6-13.5,13.5-13.5h32.3c7.4,0,13.5,6,13.5,13.5s-6,13.5-13.5,13.5h-32.3
				C232.4,215.6,226.4,209.5,226.4,202.1z"/>
		</g>
	</g>
</g>
</svg>
