<?xml version="1.0" encoding="utf-8"?>
<!-- Generator: Adobe Illustrator 19.0.0, SVG Export Plug-In . SVG Version: 6.00 Build 0)  -->
<svg version="1.1" id="Capa_1" xmlns="http://www.w3.org/2000/svg" xmlns:xlink="http://www.w3.org/1999/xlink" x="0px" y="0px"
	 viewBox="-291 384 27 27" enable-background="new -291 384 27 27" xml:space="preserve">
<g>
	<path fill="#FFFFFF" d="M-287.3,408.9c0,0,0,0.6,0.6,0.6c0.7,0,6.8,0,6.8,0l0-5.6c0,0-0.1-0.9,0.8-0.9h2.8c1.1,0,1,0.9,1,0.9l0,5.6
		c0,0,5.8,0,6.7,0c0.7,0,0.7-0.8,0.7-0.8v-10.3l-9.4-8.4l-10,8.4C-287.3,398.4-287.3,408.9-287.3,408.9z"/>
	<path fill="#FFFFFF" d="M-291,397.6c0,0,0.8,1.6,2.7,0l11-9.3l10.3,9.3c2.1,1.5,2.9,0,2.9,0l-13.3-12L-291,397.6z"/>
	<polygon fill="#FFFFFF" points="-267.2,388.3 -269.8,388.3 -269.8,391.5 -267.2,393.7 	"/>
</g>
</svg>
