<?xml version="1.0" encoding="iso-8859-1"?>
<!-- Generator: Adobe Illustrator 18.0.0, SVG Export Plug-In . SVG Version: 6.00 Build 0)  -->
<!DOCTYPE svg PUBLIC "-//W3C//DTD SVG 1.1//EN" "http://www.w3.org/Graphics/SVG/1.1/DTD/svg11.dtd">
<svg version="1.1" id="Capa_1" xmlns="http://www.w3.org/2000/svg" xmlns:xlink="http://www.w3.org/1999/xlink" x="0px" y="0px"
	 viewBox="0 0 440.31 440.31" style="enable-background:new 0 0 440.31 440.31;" xml:space="preserve">
<g>
	<path d="M432.81,88.655H284.158v-14.5c0-4.142-3.358-7.5-7.5-7.5h-16.003c-4.142,0-7.5,3.358-7.5,7.5s3.358,7.5,7.5,7.5h8.503v7
		h-98.007v-7h8.503c4.142,0,7.5-3.358,7.5-7.5s-3.358-7.5-7.5-7.5h-16.003c-4.142,0-7.5,3.358-7.5,7.5v14.5h-40.493v-14.5
		c0-4.142-3.358-7.5-7.5-7.5h-60c-4.142,0-7.5,3.358-7.5,7.5v14.5H7.5c-4.142,0-7.5,3.358-7.5,7.5v270c0,4.142,3.358,7.5,7.5,7.5
		h425.31c4.142,0,7.5-3.358,7.5-7.5v-270C440.31,92.013,436.952,88.655,432.81,88.655z M55.658,81.655h45v7h-45V81.655z
		 M425.31,103.655v56h-18.651v-38.5c0-4.142-3.358-7.5-7.5-7.5h-74c-4.142,0-7.5,3.358-7.5,7.5v38.5h-43.165
		c-15.685-10.094-34.34-15.956-54.338-15.956c-19.998,0-38.653,5.862-54.338,15.956H15v-56H425.31z M134.469,244.385
		c0-47.247,38.438-85.686,85.686-85.686c47.248,0,85.686,38.438,85.686,85.686s-38.438,85.686-85.686,85.686
		C172.908,330.071,134.469,291.632,134.469,244.385z M147.594,314.115H15v-139.46h132.594
		c-17.407,18.107-28.125,42.689-28.125,69.73S130.187,296.008,147.594,314.115z M320.841,244.385
		c0-27.041-10.718-51.623-28.125-69.73H425.31v139.46H292.716C310.123,296.008,320.841,271.425,320.841,244.385z M391.658,159.655
		h-59v-31h59V159.655z M15,358.655v-29.54h150.817c15.685,10.094,34.339,15.956,54.338,15.956c19.999,0,38.653-5.862,54.338-15.956
		H425.31v29.54H15z"/>
	<path d="M291.782,244.385c0-39.495-32.132-71.627-71.627-71.627s-71.627,32.132-71.627,71.627s32.132,71.627,71.627,71.627
		S291.782,283.88,291.782,244.385z M163.528,244.385c0-31.224,25.403-56.627,56.627-56.627s56.627,25.403,56.627,56.627
		s-25.403,56.627-56.627,56.627S163.528,275.609,163.528,244.385z"/>
	<path d="M227.655,282.857c0-4.142-3.358-7.5-7.5-7.5c-17.079,0-30.973-13.894-30.973-30.972c0-4.142-3.358-7.5-7.5-7.5
		s-7.5,3.358-7.5,7.5c0,25.349,20.623,45.972,45.973,45.972C224.297,290.357,227.655,286.999,227.655,282.857z"/>
	<path d="M220.157,213.414c3.508,0,6.612-2.541,7.337-5.961c0.626-2.952-0.664-6.11-3.178-7.779
		c-2.764-1.836-6.511-1.622-9.035,0.538C210.097,204.65,213.338,213.414,220.157,213.414z"/>
	<path d="M234.526,216.939c10.24,5.376,16.602,15.892,16.602,27.445c0,4.142,3.358,7.5,7.5,7.5s7.5-3.358,7.5-7.5
		c0-17.146-9.438-32.751-24.629-40.727c-3.668-1.925-8.202-0.513-10.127,3.155C229.446,210.48,230.858,215.014,234.526,216.939z"/>
	<path d="M97.258,183.024c-12.131,0-22,9.869-22,22s9.869,22,22,22s22-9.869,22-22S109.389,183.024,97.258,183.024z M97.258,212.024
		c-3.86,0-7-3.14-7-7s3.14-7,7-7s7,3.14,7,7S101.118,212.024,97.258,212.024z"/>
</g>
<g>
</g>
<g>
</g>
<g>
</g>
<g>
</g>
<g>
</g>
<g>
</g>
<g>
</g>
<g>
</g>
<g>
</g>
<g>
</g>
<g>
</g>
<g>
</g>
<g>
</g>
<g>
</g>
<g>
</g>
</svg>
