<?xml version="1.0" encoding="utf-8"?>
<!-- Generator: Adobe Illustrator 21.1.0, SVG Export Plug-In . SVG Version: 6.00 Build 0)  -->
<svg version="1.1" id="Layer_1" xmlns="http://www.w3.org/2000/svg" xmlns:xlink="http://www.w3.org/1999/xlink" x="0px" y="0px"
	 viewBox="0 0 512 512" style="enable-background:new 0 0 512 512;" xml:space="preserve">
<style type="text/css">
	.st0{fill:#FFFFFF;}
</style>
<g>
	<g>
		<path class="st0" d="M203.7,220c-19.8,0-36,16.1-36,36s16.1,36,36,36s36-16.1,36-36S223.6,220,203.7,220z M203.7,276.3
			c-11.2,0-20.3-9.1-20.3-20.3c0-11.2,9.1-20.3,20.3-20.3c11.2,0,20.3,9.1,20.3,20.3S214.9,276.3,203.7,276.3z"/>
	</g>
</g>
<g>
	<g>
		<path class="st0" d="M349.7,182.5c-10.4-10.2-24.6-16-39.2-16c-4.2,0-8.5,0.5-12.6,1.4c-14.6,3.4-27,12.2-34.9,24.9
			c-8.2,13.2-10.6,29.7-6.5,44.6c6.7,24.3,28.5,41,53.9,41c19.2,0,37.4-10.1,47.5-26.3C371.7,230.2,368.2,200.6,349.7,182.5z
			 M308.5,262.8c-0.1,1.3-14.5-3.5-15.7-4.1c-15.6-7.8-24.9-25.4-22-42.7c1.7-10,7.1-19.2,15.1-25.4c14.8,18.5,22.9,41.5,22.9,65.4
			C308.7,258.3,308.6,260.5,308.5,262.8z M324.3,260.4c0.1-1.5,0.1-2.9,0.1-4.4c0-26.3-8.5-51.7-24.2-72.5c0.4-0.1,0.8-0.2,1.2-0.3
			c21.5-5,43.4,8.7,48.4,30.2C354.3,233,343.2,253.5,324.3,260.4z"/>
	</g>
</g>
<g>
	<g>
		<path class="st0" d="M316,310.9c-10.7-14-26.9-22.1-44.6-22.1c-17.5,0-33.7,8.5-44.1,21.8c-4.3,5.5-7.6,11.7-9.6,18.6
			c-5,16.9-1.4,35.6,9.2,49.5c10.7,14,26.9,22.1,44.6,22.1c12.3,0,24-4,33.9-11.4c11.9-9.1,19.6-22.2,21.6-37
			C328.9,337.5,325,322.8,316,310.9z M311.4,350.3c-1.4,10.7-7,20.1-15.5,26.7c-7.1,5.4-15.5,8.2-24.4,8.2c-12,0-23.2-5.2-30.8-14.3
			c7.3-2.4,14.5-5.4,21.3-9.2c3.8-2.1,5.2-6.9,3.1-10.6c-2.1-3.8-6.9-5.2-10.6-3.1c-6.8,3.8-14,6.7-21.4,8.9
			c-2.3-7.5-2.4-15.6-0.3-23c0-0.1,0-0.1,0-0.2c6.4-22.4,31.5-34.6,53.2-26.4c2.5,1,5,2.2,7.3,3.7c-4.3,7-9.4,13.5-15.3,19.3
			c-3.1,3.1-3.1,8,0,11.1s8,3.1,11.1,0c5.9-5.9,11.1-12.3,15.7-19.3C310.3,330.3,312.7,340.3,311.4,350.3z"/>
	</g>
</g>
<g>
	<g>
		<path class="st0" d="M191.5,337.4C191.5,337.4,191.5,337.3,191.5,337.4c-3.2-23.7-21.6-42.9-44.9-47.4c-6-1.2-12.1-1.3-18.2-0.5
			c-14.6,2-28,9.7-36.9,21.4c-9.1,11.9-12.9,26.6-10.9,41.4c2,14.8,9.7,28,21.6,37c9.8,7.5,21.6,11.4,33.9,11.4
			c17.7,0,33.9-8,44.6-22.1C189.5,367.1,193.5,352,191.5,337.4z M136,385.2c-8.9,0-17.3-2.9-24.4-8.2c-8.6-6.5-14.1-16-15.5-26.7
			c-1.4-10,1-19.9,6.7-28.2c15.2,23.2,37.8,40.4,64.1,48.8C159.2,380,148.1,385.2,136,385.2z M174.6,356.8
			c-25.1-7.2-46.6-23.6-60.3-45.9c4.8-3.1,10.2-5.1,15.9-5.9c0.1,0,0.2,0,0.3,0c15.8-2.2,31.7,5.3,40,18.9
			C176.4,333.6,178,345.8,174.6,356.8z"/>
	</g>
</g>
<g>
	<g>
		<path class="st0" d="M109.6,167.9c-29.9-6.9-60.3,12.1-67.2,42c-6.9,29.7,12.3,60.3,42,67.2c29.9,6.9,60.3-12.1,67.2-42
			C158.4,205.4,139.3,174.8,109.6,167.9z M83.1,256c0,1.5,0,2.9,0.1,4.4c-8.4-3.1-15.6-8.8-20.4-16.5c-5.7-9.1-7.5-19.9-5.1-30.4
			C62,195,78.1,182.2,97,182.2c3,0,6.1,0.4,9.1,1c0.4,0.1,0.8,0.2,1.2,0.3C91.6,204.3,83.1,229.7,83.1,256z M136.9,228.4
			c0,0.2,0,0.3-0.1,0.5c-3,18.6-19,33-37.8,33.9c-0.1-2.3-0.2-4.5-0.2-6.8c0-23.9,8.1-46.9,22.9-65.4
			C133.1,199.4,139,214,136.9,228.4z"/>
	</g>
</g>
<g>
	<g>
		<path class="st0" d="M203.7,88.3c-30.9,0-56,25.1-56,56c0,15.6,6.8,30.8,18.3,41.3c10.2,9.4,23.9,14.7,37.7,14.7
			c16.4,0,32.6-7.6,43.1-20.3c8.3-10,12.9-22.8,12.9-35.7C259.7,113.4,234.6,88.3,203.7,88.3z M237.9,165.7
			c-2.6,4.2-6.1,7.9-10,10.9c-6.9,5.2-15.5,8.1-24.2,8.1c-7.4,0-14.9-2.1-21.2-6c-7.6-4.8-13.6-12-16.7-20.5
			c12.1-4.7,24.8-7.1,37.9-7.1c13.1,0,25.8,2.4,37.9,7.1C242,158.2,238.3,165.1,237.9,165.7z M203.7,135.4
			c-13.9,0-27.4,2.3-40.3,6.9c1.1-21.3,18.7-38.3,40.3-38.3c21.5,0,39.2,17,40.3,38.3C231.1,137.7,217.6,135.4,203.7,135.4z"/>
	</g>
</g>
<g>
	<g>
		<path class="st0" d="M504.2,335.2h-31.2c-3.8,0-7.7,0.2-11.4,0.5c-4.3,0.4-7.5,4.2-7.1,8.5c0.4,4.3,4.2,7.5,8.5,7.1
			c3.2-0.3,6.6-0.4,10-0.4h23.4v31.4h-23.4c-18.2,0-28.7,4-51,26.3c-22.9,22.9-53.3,35.5-85.7,35.5h-54.1
			c18.7-7.8,36.3-18.4,51.8-31.4h2.3c24,0,46.6-9.3,63.6-26.3c10.3-10.3,21.6-20.7,34.6-27.2c3.9-1.9,5.4-6.6,3.5-10.5
			c-1.9-3.9-6.6-5.4-10.5-3.5c-15,7.5-27.5,18.9-38.7,30.2c-10.1,10.1-22.7,17-36.4,20c34.2-36.5,55.2-85.5,55.2-139.3
			c0-112.3-91.4-203.7-203.7-203.7c-41.5,0-81.4,12.4-115.4,35.8c-3.6,2.5-4.5,7.3-2,10.9c2.5,3.6,7.3,4.5,10.9,2
			c31.4-21.6,68.2-33.1,106.5-33.1c103.7,0,188.1,84.4,188.1,188.1c0,72.8-41.6,136-102.2,167.3c-24.6,12.6-51.9,19.8-79.7,20.7
			c-2,0.1-4.1,0.1-6.2,0.1C100,444.1,15.7,359.7,15.7,256c0-51.8,20.6-100.1,58.1-135.9c3.1-3,3.2-8,0.2-11.1c-3-3.1-8-3.2-11.1-0.2
			c-19.7,18.8-35.2,41-46,65.8C5.7,200.3,0,227.7,0,256c0,112.3,91.4,203.7,203.7,203.7c1.8,0,3.5,0,5.3-0.1c0.3,0,0.6,0.1,1,0.1
			h126.2c36.6,0,70.9-14.2,96.8-40.1c18.1-18.1,24.8-21.7,39.9-21.7h31.2c4.3,0,7.8-3.5,7.8-7.8v-47
			C512,338.7,508.5,335.2,504.2,335.2z"/>
	</g>
</g>
</svg>
