<?xml version="1.0" encoding="utf-8"?>
<!-- Generator: Adobe Illustrator 19.0.0, SVG Export Plug-In . SVG Version: 6.00 Build 0)  -->
<svg version="1.1" id="Capa_1" xmlns="http://www.w3.org/2000/svg" xmlns:xlink="http://www.w3.org/1999/xlink" x="0px" y="0px"
	 viewBox="-105 196.5 400.5 400.5" enable-background="new -105 196.5 400.5 400.5" xml:space="preserve">
<path fill="#FFFFFF" d="M278.9,296.2c-10.1-4.2-21.7-1.9-29.5,5.9l-51.5,51.5v-31.4c0-22.3-18.1-40.5-40.5-40.5H-64.5
	c-22.4,0-40.5,18.1-40.5,40.5v149c0,22.4,18.1,40.5,40.5,40.5h221.9c22.4,0,40.5-18.1,40.5-40.5v-31.4l51.5,51.5
	c5.2,5.2,12.1,7.9,19.1,7.9c3.5,0,7-0.7,10.3-2.1c10.1-4.2,16.7-14,16.7-25v-151C295.5,310.3,289,300.4,278.9,296.2z M85.3,407.2
	l-55.2,42.4c-2.4,1.8-5.2,2.7-8.1,2.7c-2,0-4-0.5-5.8-1.4c-4.5-2.2-7.4-6.8-7.4-11.9v-84.8c0-5,2.9-9.6,7.4-11.9
	c4.5-2.2,9.9-1.7,13.9,1.4l55.2,42.4c3.3,2.5,5.2,6.4,5.2,10.5S88.6,404.7,85.3,407.2z"/>
</svg>
