<?xml version="1.0" encoding="utf-8"?>
<!-- Generator: Adobe Illustrator 19.0.0, SVG Export Plug-In . SVG Version: 6.00 Build 0)  -->
<svg version="1.1" id="Calque_1" xmlns="http://www.w3.org/2000/svg" xmlns:xlink="http://www.w3.org/1999/xlink" x="0px" y="0px"
	 viewBox="-447 29 1024 1024" style="enable-background:new -447 29 1024 1024;" xml:space="preserve">
<style type="text/css">
	.st0{fill:#FFFFFF;}
</style>
<g id="icomoon-ignore">
</g>
<path class="st0" d="M565.8,850.7c-4.2-7.3-17.7-9.5-40.6-6.7c-42.1,5.5-72.6-8.2-91.7-41.2c-14.4-24.9-18.1-50-11.1-75.3
	c7-25.3,27.6-61.1,61.9-107.9l21.4-29.8c63.6-87.8,76.6-164.2,39.2-229.3c-38.1-66.2-148.5-60.6-227.7-26.6
	C252.9,201.7,117.7,110.2-39.1,110.2c-218.7,0-395.9,177.2-395.9,395.9S-257.8,902-39.1,902s395.9-177.2,395.9-395.9
	c0-48.5-9.2-94.7-25.1-137.6c26.8-9.6,58.8-16.6,89-17.7c39.7-1.4,75.6,6.9,89.8,31.5c31.8,55.1,16.4,120.1-46,195.1l-12.9,15.5
	c-73,87.6-90.5,164.4-52.5,230.3c15.4,26.6,39.8,45.6,73.4,57c33.6,11.3,62,10.3,85.3-3.2C569.4,870.2,572,861.5,565.8,850.7
	L565.8,850.7z M-220.6,590.6c-45.6,0-82.5-36.9-82.5-82.5s36.9-82.5,82.5-82.5s82.5,36.9,82.5,82.5S-175,590.6-220.6,590.6z
	 M-39.1,772.1c-45.6,0-82.5-36.9-82.5-82.5s36.9-82.5,82.5-82.5s82.5,36.9,82.5,82.5S6.5,772.1-39.1,772.1z M-71.5,508.2
	c0-18.2,14.8-33,33-33s33,14.7,33,33s-14.7,33-33,33S-71.5,526.4-71.5,508.2z M-39.1,409.2c-45.6,0-82.5-36.9-82.5-82.5
	s36.9-82.5,82.5-82.5s82.5,36.9,82.5,82.5S6.5,409.2-39.1,409.2z M142.3,590.6c-45.6,0-82.5-36.9-82.5-82.5s36.9-82.5,82.5-82.5
	s82.5,36.9,82.5,82.5S187.9,590.6,142.3,590.6z"/>
</svg>
