<?xml version="1.0" encoding="utf-8"?>
<!-- Generator: Adobe Illustrator 19.0.0, SVG Export Plug-In . SVG Version: 6.00 Build 0)  -->
<svg version="1.1" id="Capa_1" xmlns="http://www.w3.org/2000/svg" xmlns:xlink="http://www.w3.org/1999/xlink" x="0px" y="0px"
	 viewBox="-78 169 455 455" enable-background="new -78 169 455 455" xml:space="preserve">
<path fill="none" d="M264.3,267.9c0,0-0.1-0.1-0.1-0.1c-0.5-0.5-1-0.9-1.5-1.3c-30.3-26.5-70-42.5-113.3-42.5s-82.9,16-113.3,42.5
	c-0.5,0.3-1,0.8-1.5,1.3c0,0-0.1,0.1-0.1,0.1C-0.7,299.5-23,345.5-23,396.5s22.3,97,57.7,128.6c0,0,0.1,0.1,0.1,0.1
	c0.5,0.5,1,0.9,1.5,1.3c30.3,26.5,70,42.5,113.3,42.5c43.3,0,83-16,113.3-42.5c0.5-0.4,1-0.8,1.5-1.3c0,0,0-0.1,0.1-0.1
	c35.4-31.6,57.7-77.5,57.7-128.6S299.7,299.5,264.3,267.9z M105.7,245.2c-7.8,8.2-14.9,18.7-21.2,31.3c-2.1,4.2-4.1,8.6-5.9,13.1
	c-9.3-4.7-18.1-10.3-26.4-16.8C67.8,260.4,86,250.9,105.7,245.2z M40.6,282.8c10.1,8.3,21.1,15.3,32.7,21
	C65,329.1,60.3,358.3,59.6,389H-7.8C-5.8,347.3,12.4,309.9,40.6,282.8z M-7.8,404h67.4c0.7,30.7,5.4,59.9,13.7,85.2
	c-11.6,5.7-22.6,12.7-32.7,21C12.4,483.1-5.8,445.7-7.8,404z M52.1,520.2c8.3-6.5,17.1-12.1,26.4-16.8c1.8,4.5,3.8,8.9,5.9,13.1
	c6.3,12.6,13.4,23.1,21.2,31.3C86,542.1,67.8,532.6,52.1,520.2z M142,553.2c-16.3-3.6-31.8-18.6-44.1-43.4c-2-4-3.9-8.2-5.6-12.5
	c15.8-6.2,32.6-9.8,49.8-10.6V553.2z M142,471.7c-18.9,0.8-37.5,4.7-54.9,11.5c-7.6-23.5-11.9-50.6-12.5-79.2H142V471.7z M142,389
	H74.6c0.6-28.5,5-55.7,12.5-79.2c17.4,6.8,35.9,10.7,54.9,11.5V389z M142,306.3c-17.2-0.8-34-4.4-49.8-10.6
	c1.8-4.3,3.6-8.5,5.6-12.5c12.4-24.7,27.8-39.8,44.1-43.4V306.3z M306.8,389h-67.4c-0.7-30.7-5.4-59.9-13.7-85.2
	c11.6-5.7,22.6-12.7,32.7-21C286.6,309.9,304.9,347.3,306.8,389z M246.9,272.8c-8.3,6.5-17.1,12.1-26.4,16.8
	c-1.8-4.5-3.8-8.9-5.9-13.1c-6.3-12.6-13.4-23.1-21.2-31.3C213,250.9,231.2,260.4,246.9,272.8z M157,239.8
	c16.3,3.6,31.8,18.6,44.1,43.4c2,4,3.9,8.2,5.6,12.5c-15.8,6.2-32.6,9.8-49.8,10.6V239.8z M157,321.3c18.9-0.8,37.5-4.7,54.9-11.5
	c7.6,23.5,11.9,50.6,12.5,79.2H157V321.3z M157,404h67.4c-0.6,28.5-5,55.7-12.5,79.2c-17.4-6.8-35.9-10.7-54.9-11.5V404z M157,553.2
	v-66.5c17.2,0.8,34,4.4,49.8,10.6c-1.8,4.3-3.6,8.5-5.6,12.5C188.8,534.5,173.3,549.6,157,553.2z M193.3,547.8
	c7.8-8.2,14.9-18.7,21.2-31.3c2.1-4.2,4.1-8.6,5.9-13.1c9.3,4.7,18.1,10.3,26.4,16.8C231.2,532.6,213,542.1,193.3,547.8z
	 M258.4,510.2c-10.1-8.3-21.1-15.3-32.7-21c8.3-25.3,13.1-54.6,13.8-85.2h67.4C304.8,445.7,286.6,483.1,258.4,510.2z"/>
<path fill="#FFFFFF" d="M246.9,520.2c-15.7,12.4-33.8,21.9-53.5,27.6c7.8-8.2,14.9-18.7,21.2-31.3c2.1-4.2,4.1-8.6,5.9-13.1
	C229.8,508.1,238.6,513.7,246.9,520.2z"/>
<path fill="#FFFFFF" d="M206.8,497.3c-1.8,4.3-3.6,8.5-5.6,12.5c-12.4,24.7-27.8,39.8-44.1,43.4v-66.5
	C174.2,487.5,191,491.1,206.8,497.3z"/>
<path fill="#FFFFFF" d="M142,486.7v66.5c-16.3-3.6-31.8-18.6-44.1-43.4c-2-4-3.9-8.2-5.6-12.5C108,491.1,124.8,487.5,142,486.7z"/>
<path fill="#FFFFFF" d="M105.7,547.8c-19.7-5.7-37.8-15.2-53.5-27.6c8.3-6.5,17.1-12.1,26.4-16.8c1.8,4.5,3.8,8.9,5.9,13.1
	C90.8,529.1,97.9,539.6,105.7,547.8z"/>
<path fill="#FFFFFF" d="M105.7,245.2c-7.8,8.2-14.9,18.7-21.2,31.3c-2.1,4.2-4.1,8.6-5.9,13.1c-9.3-4.7-18.1-10.3-26.4-16.8
	C67.8,260.4,86,250.9,105.7,245.2z"/>
<path fill="#FFFFFF" d="M142,239.8v66.5c-17.2-0.8-34-4.4-49.8-10.6c1.8-4.3,3.6-8.5,5.6-12.5C110.2,258.5,125.7,243.4,142,239.8z"
	/>
<path fill="#FFFFFF" d="M246.9,272.8c-8.3,6.5-17.1,12.1-26.4,16.8c-1.8-4.5-3.8-8.9-5.9-13.1c-6.3-12.6-13.4-23.1-21.2-31.3
	C213,250.9,231.2,260.4,246.9,272.8z"/>
<path fill="#FFFFFF" d="M206.8,295.7c-15.8,6.2-32.6,9.8-49.8,10.6v-66.5c16.3,3.6,31.8,18.6,44.1,43.4
	C203.1,287.2,205,291.4,206.8,295.7z"/>
<path fill="none" d="M246.9,272.8c-8.3,6.5-17.1,12.1-26.4,16.8c-1.8-4.5-3.8-8.9-5.9-13.1c-6.3-12.6-13.4-23.1-21.2-31.3
	C213,250.9,231.2,260.4,246.9,272.8z"/>
<path fill="#FFFFFF" d="M306.8,389h-67.4c-0.7-30.7-5.4-59.9-13.7-85.2c11.6-5.7,22.6-12.7,32.7-21
	C286.6,309.9,304.9,347.3,306.8,389z"/>
<path fill="#FFFFFF" d="M306.8,404c-2,41.7-20.2,79.1-48.5,106.2c-10.1-8.3-21.1-15.3-32.7-21c8.3-25.3,13.1-54.6,13.8-85.2H306.8z"
	/>
<path fill="none" d="M246.9,520.2c-15.7,12.4-33.8,21.9-53.5,27.6c7.8-8.2,14.9-18.7,21.2-31.3c2.1-4.2,4.1-8.6,5.9-13.1
	C229.8,508.1,238.6,513.7,246.9,520.2z"/>
<path fill="none" d="M142,486.7v66.5c-16.3-3.6-31.8-18.6-44.1-43.4c-2-4-3.9-8.2-5.6-12.5C108,491.1,124.8,487.5,142,486.7z"/>
<path fill="none" d="M206.8,497.3c-1.8,4.3-3.6,8.5-5.6,12.5c-12.4,24.7-27.8,39.8-44.1,43.4v-66.5
	C174.2,487.5,191,491.1,206.8,497.3z"/>
<path fill="#FFFFFF" d="M224.4,404c-0.6,28.5-5,55.7-12.5,79.2c-17.4-6.8-35.9-10.7-54.9-11.5V404H224.4z"/>
<path fill="#FFFFFF" d="M224.4,389H157v-67.7c18.9-0.8,37.5-4.7,54.9-11.5C219.4,333.3,223.8,360.5,224.4,389z"/>
<path fill="none" d="M105.7,245.2c-7.8,8.2-14.9,18.7-21.2,31.3c-2.1,4.2-4.1,8.6-5.9,13.1c-9.3-4.7-18.1-10.3-26.4-16.8
	C67.8,260.4,86,250.9,105.7,245.2z"/>
<path fill="none" d="M142,239.8v66.5c-17.2-0.8-34-4.4-49.8-10.6c1.8-4.3,3.6-8.5,5.6-12.5C110.2,258.5,125.7,243.4,142,239.8z"/>
<path fill="#FFFFFF" d="M142,321.3V389H74.6c0.6-28.5,5-55.7,12.5-79.2C104.5,316.6,123.1,320.5,142,321.3z"/>
<path fill="#FFFFFF" d="M142,404v67.7c-18.9,0.8-37.5,4.7-54.9,11.5c-7.6-23.5-11.9-50.6-12.5-79.2H142z"/>
<path fill="#FFFFFF" d="M73.3,303.8C65,329.1,60.3,358.3,59.6,389H-7.8c2-41.7,20.2-79.1,48.5-106.2C50.8,291,61.8,298.1,73.3,303.8
	z"/>
<path fill="#FFFFFF" d="M73.3,489.2c-11.6,5.7-22.6,12.7-32.7,21C12.4,483.1-5.8,445.7-7.8,404h67.4C60.3,434.7,65,463.9,73.3,489.2
	z"/>
<path fill="#FFFFFF" d="M312.5,551.6c0-0.1,0-0.1,0-0.2c0-0.3-0.1-0.6-0.1-0.8c0-0.1,0-0.1,0-0.2c-0.1-0.2-0.1-0.4-0.2-0.7
	c0-0.1,0-0.1-0.1-0.2c-0.1-0.2-0.2-0.4-0.2-0.6c0-0.1-0.1-0.1-0.1-0.2c-0.1-0.2-0.2-0.5-0.4-0.7c0,0,0,0,0-0.1
	c-0.2-0.2-0.3-0.5-0.5-0.7c0,0,0,0,0,0c0,0-0.1-0.1-0.1-0.1c-0.1-0.1-0.2-0.2-0.3-0.4c0,0-0.1-0.1-0.1-0.1c-0.1-0.1-0.1-0.1-0.2-0.2
	c-0.1-0.1-0.3-0.3-0.5-0.4c-0.1-0.1-0.1-0.1-0.2-0.2c-0.2-0.1-0.4-0.3-0.6-0.4c0,0-0.1,0-0.1-0.1c-0.5-0.3-1-0.5-1.6-0.6
	c-0.1,0-0.1,0-0.2,0c-0.2-0.1-0.4-0.1-0.7-0.1c-0.1,0-0.2,0-0.2,0c-0.2,0-0.5,0-0.7-0.1c-0.1,0-0.1,0-0.2,0c-0.3,0-0.6,0-0.8,0
	c0,0,0,0,0,0l-36.7,4.1c-4.1,0.5-7.1,4.2-6.6,8.3c0.5,4.1,4.2,7.1,8.3,6.6l13.5-1.5c-83.4,67.2-206.1,62.1-283.4-15.3
	C-40.9,506.6-63,453.3-63,396.5c0-4.1-3.4-7.5-7.5-7.5s-7.5,3.4-7.5,7.5c0,60.8,23.7,117.9,66.6,160.9S88.7,624,149.5,624
	c51.8,0,101-17.2,141-49l-3,10.3c-1.2,4,1.1,8.1,5.1,9.3c0.7,0.2,1.4,0.3,2.1,0.3c3.2,0,6.2-2.1,7.2-5.4l10.3-35.4c0,0,0,0,0-0.1
	l0,0v0c0.1-0.3,0.1-0.5,0.2-0.8c0-0.1,0-0.2,0-0.2c0-0.2,0-0.4,0.1-0.6c0-0.1,0-0.2,0-0.3C312.6,552,312.6,551.8,312.5,551.6z"/>
<path fill="#FFFFFF" d="M310.4,235.6c-43-43-100.1-66.6-160.9-66.6c-51.8,0-101,17.2-141,49l3-10.3c1.2-4-1.1-8.1-5.1-9.3
	c-4-1.2-8.1,1.1-9.3,5.1l-10.3,35.4c0,0,0,0,0,0.1l0,0v0c-0.1,0.3-0.1,0.5-0.2,0.8c0,0.1,0,0.2,0,0.2c0,0.2,0,0.4-0.1,0.6
	c0,0.1,0,0.2,0,0.3c0,0.2,0,0.4,0,0.7c0,0.1,0,0.1,0,0.2c0,0.3,0.1,0.6,0.1,0.8c0,0.1,0,0.1,0,0.2c0.1,0.2,0.1,0.4,0.2,0.7
	c0,0.1,0.1,0.1,0.1,0.2c0.1,0.2,0.2,0.4,0.2,0.6c0,0.1,0.1,0.1,0.1,0.2c0.1,0.2,0.2,0.5,0.4,0.7c0,0,0,0,0,0.1
	c0.2,0.2,0.3,0.5,0.5,0.7c0,0,0,0,0,0c0.1,0.1,0.1,0.1,0.2,0.2c0.1,0.1,0.2,0.2,0.3,0.3c0,0,0,0,0.1,0.1c0.1,0.1,0.2,0.1,0.2,0.2
	c0.1,0.1,0.2,0.2,0.4,0.3c0.1,0.1,0.2,0.1,0.2,0.2c0.1,0.1,0.3,0.2,0.4,0.3c0.1,0,0.2,0.1,0.2,0.1c0.2,0.1,0.3,0.2,0.5,0.2
	c0.1,0,0.2,0.1,0.2,0.1c0.2,0.1,0.3,0.1,0.5,0.2c0.1,0,0.2,0.1,0.2,0.1c0.2,0.1,0.3,0.1,0.5,0.1c0.1,0,0.2,0,0.3,0.1
	c0.2,0,0.3,0.1,0.5,0.1c0.1,0,0.2,0,0.2,0c0.2,0,0.5,0,0.7,0c0,0,0,0,0,0c0,0,0,0,0,0c0.3,0,0.5,0,0.8,0c0,0,0,0,0,0l36.7-4.1
	c4.1-0.5,7.1-4.2,6.6-8.3c-0.5-4.1-4.2-7.1-8.3-6.6l-13.5,1.5c83.4-67.2,206.1-62.1,283.4,15.3c40.1,40.1,62.2,93.5,62.2,150.3
	c0,4.1,3.4,7.5,7.5,7.5s7.5-3.4,7.5-7.5C377,335.7,353.3,278.6,310.4,235.6z"/>
</svg>
