<?xml version="1.0" encoding="utf-8"?>
<!-- Generator: Adobe Illustrator 20.0.0, SVG Export Plug-In . SVG Version: 6.00 Build 0)  -->
<svg version="1.1" id="Calque_1" xmlns="http://www.w3.org/2000/svg" xmlns:xlink="http://www.w3.org/1999/xlink" x="0px" y="0px"
	 viewBox="0 0 769 116.7" style="enable-background:new 0 0 769 116.7;" xml:space="preserve">
<style type="text/css">
	.st0{fill:#662D8F;stroke:#221F1F;stroke-miterlimit:10;}
	.st1{fill:#8D62A8;stroke:#221F1F;stroke-miterlimit:10;}
	.st2{fill:none;stroke:#221F1F;stroke-miterlimit:10;}
	.st3{fill:#221F1F;}
	.st4{font-family:'PathwayGothicOne-Book';}
	.st5{font-size:18px;}
	.st6{enable-background:new    ;}
	.st7{font-size:20px;}
</style>
<title>formation</title>
<polygon class="st0" points="245.8,36.7 215.8,47.9 1,47.9 31,36.7 1,25.6 215.8,25.6 "/>
<polygon class="st1" points="575.8,36.7 545.8,47.9 215.8,47.9 245.8,36.7 215.8,25.6 545.8,25.6 "/>
<polygon class="st1" points="594.6,36.7 564.6,47.9 545.8,47.9 575.8,36.7 545.8,25.6 564.6,25.6 "/>
<polygon class="st0" points="767,36.7 737,47.9 544.8,47.9 574.8,36.7 544.8,25.6 737,25.6 "/>
<line class="st2" x1="676.1" y1="55.7" x2="676.1" y2="74.6"/>
<line class="st2" x1="378" y1="55.7" x2="378" y2="74.6"/>
<line class="st2" x1="119.4" y1="52.7" x2="119.4" y2="71.6"/>
<text transform="matrix(1 0 0 1 85.8843 87.8615)" class="st3 st4 st5">Maquettiste</text>
<text transform="matrix(1 0 0 1 26.4843 109.4615)" class="st3 st4 st5">Science et vie Junior (Mondadori)</text>
<text transform="matrix(1 0 0 1 303.4904 90.8614)" class="st6"><tspan x="0" y="0" class="st3 st4 st5">Webdesigner &amp; intégrateur</tspan><tspan x="-5.7" y="21.6" class="st3 st4 st5">Fédération du Crédit Agricole</tspan></text>
<text transform="matrix(1 0 0 1 601.2533 92.8616)" class="st6"><tspan x="0" y="0" class="st3 st4 st5">Photographe Évenementiel</tspan><tspan x="47.6" y="21.6" class="st3 st4 st5">Weemove</tspan></text>
<g>
	<text transform="matrix(1 0 0 1 90.0539 18.3867)" class="st4 st7">Juillet 2014</text>
</g>
<g>
	<text transform="matrix(1 0 0 1 359.8388 17.0532)" class="st4 st7">Été 2015</text>
</g>
<text transform="matrix(1 0 0 1 617.1722 18.3867)" class="st4 st7">Fin 2015- 2016</text>
</svg>
